<?xml version="1.0" standalone="no"?>
<!DOCTYPE svg PUBLIC "-//W3C//DTD SVG 20010904//EN"
 "http://www.w3.org/TR/2001/REC-SVG-20010904/DTD/svg10.dtd">
<svg version="1.0" xmlns="http://www.w3.org/2000/svg"
 width="1125.000000pt" height="1125.000000pt" viewBox="0 0 1125.000000 1125.000000"
 preserveAspectRatio="xMidYMid meet">
<metadata>
Created by potrace 1.14, written by Peter Selinger 2001-2017
</metadata>
<g transform="translate(0.000000,1125.000000) scale(0.100000,-0.100000)"
fill="#000000" stroke="none">
<path d="M1450 5625 l0 -5625 2040 0 2040 0 0 80 c0 90 3 87 -80 65 -30 -8
-58 -15 -62 -15 -5 0 -8 35 -8 78 l0 77 -38 22 c-90 52 -171 92 -211 103 -24
6 -41 14 -38 17 12 11 118 -30 202 -80 l90 -53 3 -72 c3 -82 4 -82 88 -57 27
8 52 15 56 15 4 0 9 -39 10 -88 l3 -87 2123 -3 2122 -2 -1 2922 -1 2923 -23
-85 c-12 -47 -39 -145 -58 -218 -53 -195 -77 -226 -166 -203 -22 6 -60 16 -82
22 -41 10 -41 11 -35 49 3 21 9 46 13 56 7 18 8 18 -57 -2 -19 -6 -20 -2 -20
60 0 62 -1 66 -29 81 -20 10 -52 14 -95 12 l-66 -2 0 -36 c0 -28 5 -38 24 -47
14 -6 44 -23 67 -38 l43 -27 -40 -37 c-29 -27 -58 -42 -109 -55 -41 -11 -116
-45 -180 -82 -86 -49 -115 -71 -135 -103 -33 -53 -49 -52 -17 2 20 34 47 55
142 111 80 46 139 73 186 84 51 13 77 25 100 49 l30 31 -65 39 c-66 38 -66 38
-66 82 0 44 0 44 31 38 18 -3 49 -1 71 4 34 10 44 8 76 -11 49 -30 53 -37 50
-89 l-2 -45 41 3 41 3 -15 -51 c-8 -28 -13 -54 -10 -56 2 -3 39 -14 81 -26
l77 -21 24 23 c13 12 28 34 34 48 9 24 127 458 138 507 3 16 -80 344 -89 350
-2 1 -46 13 -98 26 l-95 24 -5 60 c-4 48 -14 77 -48 135 -23 41 -47 93 -53
116 -8 29 -27 57 -65 95 -30 29 -54 58 -54 64 0 6 31 42 70 80 l70 69 0 108
c0 102 -2 112 -31 166 -26 50 -30 66 -28 127 l3 70 -42 14 c-23 7 -50 10 -60
6 -13 -6 -5 -11 31 -22 l47 -14 0 -71 c0 -61 4 -79 30 -125 28 -49 30 -60 30
-152 l0 -100 -75 -77 c-41 -43 -75 -80 -75 -84 0 -3 27 -32 59 -64 46 -45 61
-68 66 -98 4 -21 11 -41 16 -44 5 -3 25 -37 44 -74 28 -56 35 -81 35 -127 0
-71 8 -77 129 -108 l85 -21 17 -69 c10 -39 29 -109 43 -156 23 -85 23 -87 7
-155 -9 -38 -19 -73 -23 -79 -3 -5 -18 -59 -32 -120 -37 -152 -75 -272 -92
-286 -11 -9 -28 -9 -74 1 -34 7 -63 17 -66 21 -3 5 0 27 6 50 14 51 1 71 -41
62 -28 -5 -29 -5 -29 36 0 46 -7 56 -60 88 -29 17 -49 20 -116 19 -44 -2 -86
-6 -92 -10 -16 -10 -15 -94 1 -110 6 -6 33 -24 60 -39 26 -15 47 -31 47 -36 0
-19 -40 -40 -102 -54 -37 -8 -86 -27 -110 -42 -24 -15 -78 -47 -121 -72 -54
-32 -84 -56 -99 -82 -19 -34 -27 -38 -97 -54 -57 -13 -85 -15 -111 -7 -49 14
-50 14 -110 -25 -63 -40 -70 -49 -70 -92 0 -31 -1 -31 -32 -22 -45 13 -61 5
-87 -42 -22 -39 -24 -40 -62 -34 -55 9 -69 -5 -69 -71 l0 -54 -76 0 c-89 0
-104 -10 -104 -70 0 -26 -8 -51 -21 -69 l-21 -28 -48 26 c-46 25 -50 25 -111
12 -35 -7 -82 -23 -104 -36 -22 -13 -69 -38 -104 -57 -39 -20 -93 -62 -138
-106 -72 -72 -73 -74 -73 -124 l0 -52 -35 34 c-30 29 -35 40 -35 82 0 43 -2
48 -22 48 -19 0 -20 2 -8 11 11 8 5 9 -24 4 -54 -9 -66 -25 -66 -87 0 -51 3
-57 45 -98 41 -40 45 -49 45 -91 0 -26 3 -54 6 -63 12 -31 24 -4 24 52 0 56
-2 59 -50 107 -46 45 -50 53 -50 96 0 40 3 48 23 53 42 11 47 8 47 -37 0 -39
5 -48 58 -100 32 -31 61 -57 65 -57 4 0 7 33 7 73 l0 73 68 65 c80 79 219 161
312 184 l65 17 52 -28 52 -29 31 30 c26 25 30 36 30 82 l0 53 95 0 95 0 0 70
c0 49 4 70 13 70 9 0 11 -18 7 -72 l-5 -73 -95 -3 -95 -3 3 -43 c3 -37 -1 -49
-28 -80 -38 -43 -51 -44 -110 -10 l-44 25 -61 -16 c-114 -32 -211 -90 -307
-184 l-68 -65 0 -78 c0 -57 -4 -78 -13 -78 -7 0 -41 28 -75 63 -56 57 -62 66
-62 105 0 42 -5 47 -34 36 -11 -4 -16 -19 -16 -43 0 -31 8 -45 55 -91 53 -53
55 -56 55 -110 l0 -55 114 -64 c80 -45 133 -83 177 -127 l62 -63 -43 -72 c-24
-40 -51 -103 -60 -140 l-18 -67 45 -44 c24 -23 52 -56 62 -73 10 -16 55 -95
101 -175 92 -161 176 -261 214 -254 18 4 17 3 -3 -6 -22 -10 -30 -5 -81 45
-40 40 -84 104 -158 233 -64 111 -119 195 -147 222 -25 24 -45 53 -45 63 0 39
33 131 72 199 l41 70 -54 55 c-44 45 -269 193 -293 193 -31 0 50 -58 151 -109
23 -12 72 -49 108 -82 l65 -61 -19 -27 c-31 -44 -78 -147 -91 -201 l-12 -51
60 -62 c33 -35 76 -94 96 -132 20 -39 46 -86 58 -105 11 -19 36 -62 56 -95 36
-62 97 -132 144 -166 26 -19 29 -19 87 -3 l61 17 63 -64 c57 -57 65 -71 77
-126 7 -35 17 -60 21 -57 5 3 9 0 9 -5 0 -7 24 -11 60 -11 l60 0 30 -57 c45
-86 50 -93 109 -150 53 -53 54 -53 116 -53 76 0 135 -29 211 -105 45 -46 53
-60 69 -126 10 -41 22 -80 28 -87 7 -9 6 -20 -1 -35 -6 -12 -20 -54 -31 -93
-16 -59 -43 -127 -57 -143 -2 -2 -32 13 -68 33 -52 29 -75 36 -120 36 -31 0
-56 -4 -56 -10 0 -5 25 -10 55 -10 41 0 65 -6 93 -23 20 -13 51 -31 69 -40
l31 -17 30 49 c17 27 42 91 56 143 l25 95 -26 94 c-23 85 -30 99 -76 147 -29
29 -80 68 -114 87 -52 30 -71 35 -126 35 -64 0 -65 0 -108 47 -24 27 -62 81
-83 121 l-39 72 -57 0 c-34 0 -62 5 -68 13 -6 6 -17 39 -26 71 -13 51 -25 69
-82 127 -50 51 -71 65 -87 61 -14 -3 -18 -1 -13 6 15 25 44 9 113 -61 66 -66
73 -78 89 -139 l16 -68 63 0 62 0 48 -83 c26 -45 63 -99 83 -119 34 -36 39
-38 101 -38 58 0 72 -4 131 -39 83 -50 165 -135 179 -187 40 -152 39 -143 16
-234 -22 -88 -81 -210 -102 -210 -6 0 -42 18 -81 40 -50 29 -80 40 -111 40
l-41 0 0 -82 -1 -83 -64 -110 -63 -110 -69 -17 c-37 -10 -72 -16 -78 -15 -5 2
23 12 63 22 l72 19 58 105 58 106 -6 90 -7 90 -1 -83 c-2 -87 -11 -111 -90
-241 -29 -47 -37 -51 -185 -91 -37 -10 -89 -31 -115 -48 -26 -16 -65 -39 -88
-51 -28 -16 -52 -42 -80 -87 -21 -36 -49 -81 -61 -100 -13 -19 -23 -40 -23
-47 0 -7 43 -55 96 -107 116 -115 180 -206 160 -230 -8 -8 -25 -38 -40 -67
-14 -28 -30 -54 -36 -58 -5 -3 -10 -13 -10 -21 0 -29 27 -44 82 -44 52 0 54
-1 79 -43 14 -23 29 -50 33 -60 6 -18 -7 -92 -24 -132 -4 -11 -11 -28 -14 -39
-7 -22 -27 -19 -143 17 l-73 22 0 65 c-1 74 -9 89 -65 119 -61 33 -140 29
-218 -10 l-61 -32 -47 27 c-40 22 -59 26 -128 26 -50 0 -81 -4 -81 -11 0 -5
-4 -7 -10 -4 -6 4 -10 -20 -10 -64 l0 -71 -304 0 c-167 0 -311 -3 -320 -6 -13
-5 -16 -22 -16 -78 l0 -73 -53 -12 c-29 -6 -78 -28 -108 -47 -108 -72 -141
-84 -229 -84 l-81 0 -94 93 c-87 87 -99 95 -152 106 -32 7 -87 22 -122 34 -55
18 -69 19 -105 8 -22 -6 -65 -19 -95 -27 -30 -8 -60 -22 -69 -30 -13 -13 -13
-17 1 -32 8 -9 28 -44 44 -77 29 -59 30 -61 15 -118 -9 -38 -22 -62 -36 -71
-11 -7 -45 -27 -74 -44 -29 -18 -55 -32 -58 -32 -2 0 -4 28 -4 63 0 87 -6 94
-70 79 -28 -7 -56 -12 -61 -12 -5 0 -9 26 -9 58 0 56 -1 59 -37 81 -138 83
-198 113 -247 123 -51 11 -67 9 -173 -16 -65 -16 -124 -32 -131 -36 -9 -4 -45
24 -106 85 l-93 91 -125 29 -125 28 -74 -17 c-41 -10 -82 -20 -91 -22 -12 -4
-25 8 -43 35 l-25 41 -70 0 c-39 0 -70 3 -70 7 0 4 7 27 16 50 16 42 16 44 -2
58 -10 7 -52 23 -92 35 l-73 22 -94 -95 c-52 -52 -95 -98 -95 -103 0 -5 31
-28 69 -52 59 -36 76 -42 125 -42 52 0 56 -2 56 -23 0 -34 -6 -36 -64 -21 -47
12 -59 12 -122 -6 l-69 -19 -50 26 -50 25 -95 -26 c-190 -54 -181 -54 -236
-18 -26 18 -59 32 -73 32 -25 0 -136 -29 -172 -44 -11 -5 -24 7 -49 46 -18 29
-33 62 -32 74 2 22 43 190 92 371 l30 111 -29 49 c-74 118 -75 121 -56 169 9
25 23 50 30 57 7 8 27 40 44 73 18 32 41 73 52 91 20 31 47 117 93 298 l23 91
113 112 c63 62 126 134 141 160 15 26 44 76 64 112 19 36 49 87 66 114 16 27
28 54 26 61 -3 6 -44 34 -92 61 -47 27 -105 61 -128 76 -41 27 -44 28 -206 28
l-163 0 -85 82 -84 82 -62 -18 c-34 -10 -102 -28 -152 -41 l-90 -23 -80 79
c-44 43 -85 79 -90 79 -5 0 -28 -18 -51 -41 l-42 -41 -63 33 c-69 37 -81 51
-173 211 -32 56 -81 122 -114 155 l-58 58 22 92 c12 51 25 97 29 102 10 17 65
249 65 275 0 18 -13 30 -62 56 -131 69 -158 91 -194 160 -19 36 -44 80 -55 97
l-21 33 26 82 c14 46 30 101 35 123 8 31 35 65 120 152 92 93 109 115 104 135
-3 12 -9 28 -13 33 -4 6 -13 33 -20 62 -8 36 -18 54 -31 58 -10 4 -19 10 -19
14 0 4 -23 18 -50 31 -28 13 -50 25 -50 26 0 1 14 25 31 52 38 62 33 81 -26
110 -38 18 -46 27 -55 64 -14 58 -21 69 -61 95 -64 43 -66 46 -58 78 8 29 17
42 76 106 l24 26 -27 49 c-38 70 -48 79 -109 99 -55 19 -55 19 -55 61 0 35 4
43 23 47 116 28 139 39 193 93 54 53 55 56 38 75 -9 10 -24 19 -33 19 -9 0
-23 4 -31 10 -12 8 -12 11 2 27 9 10 28 43 43 73 15 29 36 66 47 80 11 15 28
62 38 106 10 43 21 87 25 97 8 19 -23 84 -76 163 -15 22 -31 57 -34 77 -4 21
-18 54 -31 73 -46 67 -74 133 -74 173 0 39 1 41 43 51 23 6 65 18 93 26 49 15
52 15 85 -8 19 -12 53 -31 76 -42 l41 -18 132 32 c72 17 150 38 173 46 44 16
137 98 137 122 0 8 -22 37 -50 65 -48 49 -58 70 -42 93 7 10 55 40 210 129
l82 48 0 114 c0 113 -17 212 -43 254 -10 17 -24 19 -108 19 -91 0 -98 2 -123
26 -31 32 -31 40 -3 124 l22 65 105 -3 c58 -2 120 0 138 3 l32 6 0 128 c0 121
1 130 25 166 14 20 39 63 55 95 16 32 34 61 40 65 6 4 10 59 10 138 0 107 5
150 25 227 29 112 33 185 9 194 -9 3 -51 6 -95 6 l-79 0 0 98 0 97 50 85 c28
47 50 88 50 92 0 4 21 19 48 33 26 14 65 37 87 50 40 25 41 25 323 25 l283 0
43 -44 c32 -34 45 -59 58 -108 9 -34 19 -72 23 -84 5 -17 1 -23 -24 -34 -17
-7 -40 -21 -52 -31 -26 -23 -19 -34 50 -78 41 -27 57 -31 115 -31 90 0 97 8
80 85 -11 46 -22 67 -47 90 -30 27 -33 33 -25 63 8 29 12 32 45 32 28 0 45 -9
80 -41 37 -34 49 -40 80 -37 56 5 60 21 35 134 l-22 99 20 85 c18 73 27 91 62
127 l41 42 60 -31 c34 -16 73 -39 88 -50 l27 -20 109 31 c61 17 130 31 155 31
42 0 49 -4 115 -72 39 -39 81 -93 94 -119 16 -35 30 -51 52 -59 41 -14 77 -13
83 4 4 12 -30 83 -47 96 -3 3 -14 21 -24 40 -9 19 -54 72 -98 118 l-82 82
-107 0 c-60 0 -116 4 -126 10 -9 5 -35 14 -57 20 -31 7 -46 19 -67 53 -16 24
-28 47 -28 51 0 3 27 6 60 6 36 0 60 4 60 11 0 5 4 8 9 5 4 -3 16 13 26 34 22
50 14 70 -52 125 -33 28 -48 34 -56 26 -30 -30 -37 -12 -37 93 0 120 4 116
-112 116 l-66 0 13 51 c8 29 18 55 22 59 69 56 84 62 138 55 48 -6 59 -3 112
27 32 18 66 40 76 49 17 16 17 18 -11 60 -43 66 -68 108 -101 170 -33 62 -49
77 -139 127 -58 33 -59 35 -80 106 -12 39 -22 80 -22 89 0 9 -9 26 -20 37 -20
20 -20 20 124 20 148 0 223 -11 337 -50 65 -22 176 -76 184 -90 13 -22 43 -7
101 51 l61 61 99 -57 c55 -31 103 -61 109 -66 5 -5 25 -9 45 -9 41 0 59 -19
104 -108 22 -44 26 -64 26 -140 l0 -88 -47 -23 c-58 -27 -123 -71 -123 -82 0
-18 41 -17 130 5 l95 24 28 -26 c17 -16 25 -32 21 -42 -17 -43 -34 -127 -29
-147 7 -31 42 -39 67 -16 11 10 33 44 49 76 21 41 39 62 63 73 31 16 34 15 92
-15 96 -51 160 -94 192 -128 33 -36 43 -38 107 -22 28 7 61 28 96 60 29 27 56
49 59 49 3 0 22 -5 42 -10 34 -10 37 -13 32 -38 -3 -15 4 -66 15 -112 11 -46
19 -85 18 -85 -1 -1 -15 -10 -32 -21 -29 -19 -115 -68 -208 -119 -26 -14 -51
-33 -54 -42 -8 -21 16 -111 35 -134 10 -12 30 -19 49 -19 32 0 33 -1 33 -40 0
-22 5 -40 10 -40 6 0 10 -7 10 -15 0 -24 28 -5 96 64 49 49 69 62 116 74 l56
15 18 -41 c18 -40 95 -110 135 -122 33 -11 56 19 69 91 7 36 22 79 34 97 12
18 35 58 51 89 47 90 50 93 167 122 84 20 132 26 221 26 129 0 127 -1 170 85
28 56 66 106 67 88 0 -6 -5 -15 -10 -18 -26 -16 52 -65 103 -65 18 0 33 15 65
66 23 36 42 69 42 73 0 5 9 20 21 35 19 24 26 26 105 26 89 0 118 9 199 65 43
28 49 25 85 -46 42 -82 80 -128 128 -154 26 -14 81 -59 122 -100 l75 -75 95 0
c83 0 101 3 138 25 50 29 56 26 90 -46 15 -30 22 -64 22 -101 0 -42 5 -62 23
-84 18 -24 23 -45 27 -124 4 -85 7 -95 25 -98 11 -2 57 -14 103 -28 67 -21 98
-25 162 -22 l80 3 11 -30 c11 -30 53 -188 123 -460 19 -77 40 -148 46 -157 12
-22 13 -61 1 -73 -16 -18 -34 -109 -40 -200 l-6 -89 -80 -47 c-119 -71 -115
-65 -115 -168 0 -90 0 -90 33 -114 17 -14 59 -39 92 -57 41 -23 108 -80 213
-184 l152 -151 0 -47 c0 -26 -5 -50 -10 -53 -6 -4 -20 -25 -31 -47 l-21 -40
22 -89 c14 -56 27 -89 35 -89 10 0 8 21 -10 88 l-24 87 30 52 c21 38 29 66 29
100 l0 48 -149 149 c-119 119 -168 160 -243 205 l-93 56 -3 85 -3 85 103 60
103 61 5 104 c4 58 14 133 24 167 l18 62 -37 138 c-20 76 -45 167 -55 203 -10
36 -28 103 -40 150 -12 47 -30 115 -41 153 l-20 67 -97 -2 c-79 -1 -113 3
-182 24 l-85 26 -5 83 c-4 64 -11 92 -28 119 -16 26 -22 50 -22 94 0 49 -6 68
-37 120 -20 33 -37 63 -39 64 -1 2 -22 -8 -47 -22 -39 -23 -54 -26 -142 -26
l-99 0 -75 73 c-42 39 -97 84 -122 98 -38 22 -54 42 -103 128 l-57 102 -57
-33 c-31 -17 -70 -40 -87 -50 -23 -14 -51 -18 -122 -18 l-92 0 -57 -101 c-62
-109 -58 -106 -130 -79 -24 10 -25 12 -12 33 9 12 30 48 48 80 21 37 43 62 59
69 14 5 52 23 83 39 52 27 65 29 162 29 90 0 110 3 142 22 l38 22 -44 15 c-32
10 -94 15 -214 15 l-168 1 -70 -125 c-39 -69 -82 -141 -96 -160 -15 -19 -40
-59 -57 -90 l-30 -55 -145 -6 c-80 -3 -158 -11 -173 -17 -34 -14 -55 -16 -42
-3 23 20 149 41 249 41 l105 0 17 32 c9 18 45 75 79 128 34 52 84 134 109 183
l47 87 155 0 c162 0 269 -17 306 -49 10 -8 42 -58 70 -110 45 -80 61 -99 108
-129 30 -19 83 -64 119 -99 l64 -63 89 0 c75 0 96 4 138 25 27 14 53 25 58 25
14 0 102 -165 102 -192 0 -46 42 -59 90 -29 12 9 9 16 -20 46 -29 30 -32 37
-20 45 8 5 20 10 25 10 6 0 3 -5 -5 -10 -12 -8 -9 -15 18 -43 17 -18 32 -36
32 -40 0 -4 -17 -15 -38 -26 -33 -17 -40 -18 -65 -5 -35 19 -34 8 3 -62 l29
-56 12 46 c10 40 16 47 54 62 33 14 41 22 38 39 -3 20 -3 20 6 0 14 -29 13
-35 -5 -35 -39 0 -74 -34 -89 -87 -14 -48 -14 -55 1 -78 18 -27 38 -31 81 -14
15 6 66 14 113 18 l85 6 3 61 3 62 -38 23 c-21 12 -69 52 -108 89 -38 37 -100
83 -137 104 -69 38 -138 104 -138 132 0 10 -6 14 -15 10 -8 -3 -15 -1 -15 5 0
19 45 5 48 -16 6 -31 60 -81 137 -127 38 -23 102 -72 140 -109 39 -37 85 -74
103 -83 32 -16 32 -17 32 -91 l0 -75 -62 0 c-35 0 -96 -7 -135 -17 l-73 -17
-25 24 -25 23 0 -40 0 -40 85 -22 c65 -18 106 -22 182 -20 l98 3 32 -119 c37
-136 98 -363 137 -507 l27 -97 -21 -80 c-13 -50 -20 -112 -20 -168 l0 -89 -77
-44 c-141 -79 -133 -69 -133 -163 l1 -82 82 -45 c68 -36 110 -72 245 -204
l162 -160 0 -49 c0 -38 -7 -62 -30 -98 l-29 -48 22 -85 c21 -83 22 -85 57 -91
66 -13 70 -18 70 -103 0 -67 4 -83 30 -127 28 -48 30 -56 30 -164 l0 -114 -75
-71 -75 -72 59 -58 c43 -43 62 -70 70 -101 6 -23 31 -77 56 -121 37 -65 45
-88 45 -130 l0 -52 88 -21 c48 -12 94 -26 102 -31 7 -4 28 -64 46 -132 l32
-123 1 2618 1 2617 -4170 0 -4170 0 0 -5625z m2382 5607 c-16 -5 -41 -39 -82
-112 l-60 -105 0 -121 0 -121 31 -7 c17 -3 35 -3 40 0 5 3 9 -2 9 -11 0 -11
-6 -15 -17 -11 -10 3 -30 8 -45 12 l-28 6 0 130 0 130 55 96 c65 117 70 122
98 121 l22 -1 -23 -6z m97 -18 c3 -3 -30 -40 -73 -83 -78 -79 -78 -79 -55 -92
18 -10 90 -15 276 -19 198 -4 255 -8 265 -19 11 -12 10 -13 -7 -5 -11 4 -132
11 -270 14 -240 5 -295 12 -295 38 0 4 32 39 70 77 39 38 70 73 70 76 0 4 -12
12 -27 18 -26 10 -26 10 7 5 19 -4 37 -8 39 -10z m-67 -12 c13 -6 4 -19 -48
-71 -35 -36 -64 -60 -64 -55 0 5 16 34 35 64 19 30 35 58 35 62 0 9 18 9 42 0z
m-92 -183 c3 -3 13 -10 24 -16 16 -9 15 -11 -13 -16 l-31 -6 0 -100 c0 -85 -2
-99 -15 -95 -12 5 -15 28 -15 119 0 131 4 152 29 133 9 -7 18 -16 21 -19z
m617 -35 c-3 -3 -12 -4 -19 -1 -8 3 -5 6 6 6 11 1 17 -2 13 -5z m332 -60 l-65
-65 -64 38 c-36 21 -94 48 -130 61 -36 12 -51 20 -35 17 70 -14 103 -26 155
-60 30 -19 59 -35 65 -35 6 0 35 25 65 55 30 30 59 55 65 55 5 0 -20 -30 -56
-66z m139 34 c31 -18 77 -45 101 -60 32 -20 58 -28 91 -28 l46 0 57 -95 57
-95 0 -97 0 -98 -51 -28 c-27 -15 -48 -31 -45 -36 3 -4 -10 -13 -29 -19 -55
-16 -41 1 35 44 l70 39 0 102 0 102 -50 86 c-51 85 -51 85 -92 85 -31 0 -63
13 -132 52 -50 28 -100 57 -111 65 -36 24 -5 13 53 -19z m-862 -99 l28 -101
78 -45 c43 -25 82 -51 87 -57 9 -12 151 -257 151 -261 0 -11 -133 -75 -152
-74 l-23 2 24 4 c35 7 131 63 131 77 0 6 -15 35 -32 64 -18 28 -51 82 -72 120
-39 69 -48 77 -157 136 -41 22 -48 31 -58 73 -6 26 -19 71 -28 100 l-16 52
-96 4 -96 3 101 2 102 2 28 -101z m4063 -25 c12 -19 21 -37 21 -39 0 -3 -13
-11 -29 -20 -27 -14 -29 -17 -20 -44 14 -38 38 -43 121 -23 62 14 72 15 96 1
23 -12 27 -22 30 -66 3 -50 2 -53 -30 -69 -57 -29 -59 -32 -38 -67 14 -23 33
-36 67 -47 42 -13 48 -19 51 -45 2 -21 12 -35 33 -47 29 -17 29 -18 14 -47 -8
-17 -15 -43 -15 -60 0 -39 -10 -44 -66 -30 -36 9 -51 20 -66 46 -20 33 -21 33
-35 13 -16 -22 -40 -26 -63 -9 -12 8 -9 9 13 5 22 -5 29 -2 39 19 15 34 23 32
48 -13 16 -29 31 -41 61 -49 44 -12 49 -9 49 24 0 13 7 37 15 53 14 28 14 30
-7 41 -29 15 -38 28 -38 56 0 17 -9 24 -46 35 -36 10 -52 22 -71 51 l-24 37
45 28 c43 26 45 29 46 75 0 64 -22 75 -109 52 -35 -9 -76 -13 -92 -10 -51 11
-67 72 -24 95 30 16 30 18 6 49 -17 22 -19 23 -49 7 -18 -9 -32 -14 -32 -11 0
6 62 45 72 45 3 0 15 -16 27 -36z m-149 -31 c-25 -9 -46 -16 -47 -17 -1 -1 4
-23 12 -48 7 -25 11 -49 8 -52 -12 -12 -51 -6 -57 9 -7 18 -40 20 -54 3 -6 -7
-12 -29 -14 -48 -1 -19 -7 -38 -11 -41 -8 -6 -37 -104 -37 -126 0 -7 7 -13 15
-13 16 0 65 91 65 120 0 35 29 57 90 70 47 10 70 10 99 1 21 -6 55 -11 75 -11
26 0 38 -5 42 -17 3 -10 16 -40 29 -68 25 -53 41 -105 32 -105 -28 0 -55 23
-60 49 -5 25 -13 33 -36 37 -20 4 -38 19 -56 45 -23 36 -29 39 -71 39 -44 0
-104 -22 -104 -39 0 -5 10 -15 22 -23 l22 -15 -28 -14 c-15 -8 -35 -27 -44
-43 -16 -27 -16 -29 2 -40 32 -19 72 -55 61 -56 -5 0 -28 15 -50 34 l-40 34
18 37 c10 20 26 39 37 42 23 6 17 23 -8 22 -10 0 -27 -21 -42 -52 -21 -42 -31
-53 -54 -55 l-29 -4 8 47 c3 26 15 74 26 107 10 34 19 69 19 78 0 31 75 44 86
15 4 -8 13 -15 21 -15 12 0 14 8 8 38 -12 63 -11 66 25 79 19 6 42 12 50 12 8
0 -5 -8 -30 -16z m125 7 c3 -5 2 -10 -3 -10 -5 0 -19 -8 -30 -18 -18 -16 -20
-24 -12 -52 5 -19 15 -38 22 -42 8 -6 -1 -6 -22 -2 -19 4 -46 8 -60 9 -33 2
-51 62 -24 82 10 7 25 13 33 13 9 1 27 7 41 15 30 17 47 19 55 5z m205 -170
c0 -18 -8 -33 -24 -43 -13 -9 -30 -23 -39 -32 -15 -15 -18 -14 -37 17 -11 18
-19 44 -18 58 2 20 11 26 48 36 53 13 70 4 70 -36z m-250 -64 c7 -13 28 -32
47 -43 18 -10 36 -28 39 -40 6 -23 44 -53 66 -53 8 0 20 9 28 20 14 19 14 19
27 0 8 -11 32 -24 53 -30 28 -8 40 -16 40 -29 0 -10 11 -29 25 -43 22 -22 23
-27 10 -44 -8 -10 -15 -27 -15 -36 0 -28 -35 -8 -69 40 -17 23 -36 42 -42 42
-5 0 -7 -4 -4 -10 3 -5 0 -10 -8 -10 -8 0 -18 -7 -21 -16 -5 -13 -14 -15 -41
-10 -29 6 -39 3 -61 -19 -22 -22 -25 -33 -21 -61 5 -31 4 -34 -19 -34 -38 0
-104 37 -156 88 -27 26 -48 50 -48 54 0 4 18 8 41 8 24 0 38 4 34 10 -3 6 -28
10 -56 10 -68 0 -65 -19 16 -97 35 -35 57 -59 47 -53 -50 29 -122 114 -122
144 0 22 5 24 51 28 36 2 53 -1 59 -11 4 -7 13 -12 20 -9 8 2 -8 25 -40 58
-41 42 -50 57 -43 69 6 9 18 18 28 20 10 2 25 10 33 18 12 12 12 16 -2 32 -25
27 -20 31 37 31 46 0 55 -3 67 -24z m-1895 -67 c12 -12 -1 -12 -43 0 -29 9
-34 7 -42 -12 -9 -21 -9 -22 -9 -1 -1 11 2 24 6 28 9 9 74 -2 88 -15z m67 -20
c33 -8 44 -20 82 -87 25 -42 43 -80 40 -84 -9 -14 -75 -20 -114 -10 l-40 10
-29 -49 -30 -48 24 -83 c35 -119 35 -118 -37 -156 -71 -36 -196 -109 -226
-132 -18 -14 -18 -18 -5 -62 l14 -48 49 0 c52 0 60 -8 60 -63 l0 -31 52 53
c54 55 61 59 146 85 l52 15 37 -64 c25 -44 48 -70 75 -85 22 -12 41 -20 43
-19 2 2 10 32 19 67 14 53 45 119 86 182 5 8 21 36 35 63 14 26 29 47 33 47 4
0 18 3 32 6 21 4 21 3 -5 -9 -41 -20 -146 -206 -171 -304 -10 -40 -20 -73 -24
-73 -21 0 -108 72 -127 105 -13 22 -27 46 -32 53 -6 11 -19 10 -72 -3 -56 -14
-72 -24 -131 -83 l-68 -66 0 56 0 57 -52 3 -52 3 -13 50 c-7 28 -13 53 -13 57
0 3 53 37 118 74 64 37 133 77 153 90 l37 23 -25 94 -26 94 29 54 c22 40 35
53 49 51 145 -18 148 -16 100 69 -45 79 -47 81 -93 95 -47 15 -30 17 20 3z
m-27 -23 c33 -10 45 -21 72 -70 19 -33 31 -61 29 -64 -3 -2 -29 2 -58 9 -29 7
-55 13 -58 14 -3 0 -12 6 -20 13 -8 7 -30 22 -47 32 -32 19 -40 41 -27 75 7
17 23 16 109 -9z m-140 -24 c-5 -26 -2 -31 40 -53 25 -13 45 -28 45 -32 0 -18
-31 -67 -43 -67 -7 0 -27 4 -46 10 -32 9 -36 7 -90 -44 -40 -38 -69 -56 -101
-64 -44 -11 -46 -10 -80 23 -19 18 -86 63 -149 99 l-113 67 -43 -26 c-33 -19
-53 -42 -81 -95 -40 -73 -41 -75 -61 -62 -9 6 -7 28 9 91 l21 83 -36 35 c-35
36 -35 36 -82 24 -57 -14 -73 -7 -18 8 58 16 66 14 111 -32 l42 -42 -20 -65
c-31 -102 -24 -112 23 -35 27 45 58 80 86 99 l44 29 46 -25 c25 -15 75 -42
111 -61 36 -20 82 -53 103 -75 l39 -40 51 14 c38 10 64 26 102 64 52 51 53 52
91 41 35 -10 41 -9 56 12 10 12 18 25 18 28 0 3 -20 17 -45 30 -36 19 -45 29
-45 50 0 23 7 39 17 39 3 0 2 -13 -2 -28z m1584 5 c17 -7 28 -16 24 -20 -3 -4
-54 -7 -112 -7 -98 0 -111 -3 -165 -30 -32 -17 -66 -30 -75 -30 -9 0 -25 -9
-34 -21 -32 -36 -28 -15 9 54 l35 67 144 0 c95 0 153 -4 174 -13z m-3429 -108
c12 -8 11 -9 -6 -7 -11 2 -47 -11 -80 -29 -59 -31 -60 -33 -77 -97 -9 -35 -17
-69 -17 -75 0 -7 29 -11 78 -11 42 0 83 -4 91 -9 8 -5 -26 -7 -80 -4 -52 3
-98 9 -102 13 -5 4 1 34 12 66 12 32 21 65 21 74 0 8 30 31 68 52 76 42 72 41
92 27z m3946 -58 c-14 -15 -16 -29 -10 -70 l7 -51 -49 0 c-31 0 -61 7 -81 20
-46 28 -41 35 7 10 37 -19 90 -27 102 -14 3 3 2 21 -4 41 -8 30 -7 38 13 59
26 28 40 33 15 5z m354 -242 c3 -3 23 -16 45 -27 24 -13 33 -21 22 -22 -22 0
-47 -23 -47 -42 0 -7 -13 10 -28 38 -16 27 -36 61 -45 74 -27 39 -20 46 15 14
18 -16 35 -32 38 -35z m-1833 -35 c-3 -3 -12 -4 -19 -1 -8 3 -5 6 6 6 11 1 17
-2 13 -5z m1959 -76 l29 -31 -32 22 c-18 12 -33 27 -33 32 0 14 4 11 36 -23z
m-4307 -62 l44 -45 -20 -33 c-18 -32 -21 -33 -91 -36 -43 -2 -72 -7 -72 -14 0
-14 57 -113 73 -125 25 -20 109 -33 215 -33 l108 0 85 -87 c76 -79 170 -216
156 -229 -3 -3 -17 -2 -32 2 -18 4 -36 22 -54 53 -14 25 -59 81 -100 123 -41
43 -70 78 -65 78 18 0 131 -124 164 -180 38 -65 30 -56 58 -64 24 -8 25 -11
-49 113 -8 13 -48 58 -90 101 l-75 78 -135 5 c-134 4 -209 18 -209 39 0 6 -16
36 -35 68 -19 32 -35 63 -35 69 0 7 27 11 78 11 76 0 77 1 95 32 l18 31 -38
39 c-32 32 -42 38 -68 33 -24 -4 -26 -3 -10 4 33 15 39 13 84 -33z m4404 5
c13 -16 43 -39 66 -50 39 -20 41 -24 41 -66 l0 -45 -54 0 c-51 0 -98 -10 -143
-32 -12 -6 -29 -8 -39 -4 -14 5 -15 15 -10 59 8 59 34 90 70 82 23 -6 54 29
36 40 -13 8 -13 45 -1 45 5 0 20 -13 34 -29z m-4608 -321 c131 -77 125 -75
200 -56 37 9 69 15 72 12 2 -2 -30 -12 -73 -22 l-76 -18 -37 22 c-20 12 -60
34 -88 49 l-53 27 -46 -44 c-25 -25 -50 -54 -54 -65 -8 -19 -9 -19 -9 -1 -1
17 95 126 109 126 3 0 28 -14 55 -30z m312 -36 c-3 -3 -12 -4 -19 -1 -8 3 -5
6 6 6 11 1 17 -2 13 -5z m-495 -164 c-18 -65 -18 -66 5 -155 12 -50 23 -96 23
-102 0 -8 -14 -13 -38 -13 -30 0 -45 7 -72 35 -30 31 -40 35 -85 35 -51 0 -52
0 -63 -39 -17 -55 -15 -64 20 -86 24 -15 35 -32 45 -70 19 -76 20 -75 -44 -75
-41 0 -70 7 -110 27 -29 15 -53 32 -53 38 0 5 23 22 50 37 63 35 65 29 4 -10
l-46 -31 41 -20 c27 -14 59 -21 100 -21 l60 0 -9 28 c-4 15 -11 38 -14 52 -3
17 -18 32 -41 43 -19 9 -35 20 -35 25 0 4 9 32 19 62 l19 55 49 3 c45 3 51 0
88 -38 30 -31 47 -40 72 -40 18 0 33 2 33 5 0 3 -11 44 -25 92 -26 87 -26 89
-9 158 18 75 26 95 31 79 2 -5 -5 -39 -15 -74z m-371 -97 c56 -54 61 -63 80
-137 27 -111 18 -119 -11 -10 -20 75 -31 96 -68 137 l-45 47 -294 0 -294 0
-88 -52 c-87 -51 -89 -52 -145 -149 l-57 -97 3 -114 3 -113 93 -3 92 -3 -1
-37 c-1 -20 -5 -48 -9 -62 -5 -16 -6 -4 -3 33 l6 57 -97 0 -96 0 0 124 0 125
37 63 c72 124 89 143 163 184 40 21 82 45 94 51 15 9 97 13 299 13 l279 0 59
-57z m-771 -704 c-15 -55 -20 -104 -20 -193 l0 -119 -60 -103 -60 -102 0 -121
0 -120 -137 -3 -137 -3 -23 -70 c-23 -70 -23 -65 -3 33 l12 52 139 0 139 0 0
118 0 117 46 80 c26 44 53 91 60 105 10 17 14 62 14 142 0 127 28 284 46 265
3 -2 -4 -38 -16 -78z m-462 -928 c-2 -12 11 -34 31 -55 l35 -36 93 0 c105 0
102 2 125 -90 9 -37 11 -91 8 -164 l-5 -110 -135 -78 c-102 -59 -139 -85 -149
-108 -15 -30 -15 -31 44 -90 l60 -60 -48 -48 c-26 -26 -45 -39 -42 -30 4 9 23
29 42 44 l35 27 -61 61 c-56 56 -74 86 -53 86 5 0 14 11 20 24 6 15 51 48 114
84 57 33 117 69 133 79 l30 19 0 129 c-1 73 -6 149 -13 173 l-13 42 -97 0 -98
0 -38 39 c-29 30 -36 44 -31 60 8 26 17 28 13 2z m-405 -912 c31 -17 60 -35
64 -41 3 -7 -24 6 -62 27 l-69 38 -65 -17 c-36 -9 -83 -22 -103 -27 l-38 -10
0 -57 c0 -49 6 -67 49 -142 27 -47 52 -98 55 -114 4 -16 31 -71 61 -123 45
-78 53 -97 44 -116 l-10 -22 5 22 c2 13 -7 40 -23 65 -38 60 -87 157 -100 198
-7 19 -30 65 -51 102 -36 59 -40 74 -40 132 l0 65 38 10 c20 5 62 16 92 25 79
21 90 19 153 -15z m406 27 c-9 -9 -241 -67 -246 -62 -8 7 5 11 122 40 101 24
132 30 124 22z m-262 -72 c-3 -3 -12 -4 -19 -1 -8 3 -5 6 6 6 11 1 17 -2 13
-5z m-40 -10 c-3 -3 -12 -4 -19 -1 -8 3 -5 6 6 6 11 1 17 -2 13 -5z m-192
-623 c-14 -56 -155 -322 -155 -294 0 13 18 47 89 168 23 38 41 75 41 81 0 18
33 115 37 110 2 -2 -3 -31 -12 -65z m-63 -320 c5 -4 -16 -29 -45 -56 l-52 -50
44 47 c25 26 43 49 40 51 -2 3 -17 9 -34 16 l-30 11 35 -6 c19 -3 38 -9 42
-13z m-105 -107 c-3 -3 -12 -4 -19 -1 -8 3 -5 6 6 6 11 1 17 -2 13 -5z m-87
-23 l-55 -17 -3 -60 -3 -60 63 -20 c55 -17 65 -24 89 -64 15 -25 28 -52 28
-60 1 -8 -16 -32 -38 -55 -21 -22 -44 -53 -50 -70 l-11 -30 6 35 c4 22 21 50
47 77 l41 42 -20 36 c-10 19 -22 35 -26 35 -5 0 -8 7 -8 15 0 13 -17 20 -102
41 -27 6 -28 8 -28 78 l0 73 48 10 c72 16 83 13 22 -6z m7258 -437 c-4 -3 -38
-14 -76 -24 -55 -14 -80 -15 -114 -8 -38 9 -48 7 -90 -17 l-48 -27 0 -55 0
-55 -37 7 c-21 3 -42 11 -47 16 -13 12 5 12 38 -1 26 -9 26 -9 26 39 0 49 0
50 56 83 52 32 58 34 103 25 36 -8 61 -6 107 5 64 17 91 21 82 12z m-7170 -64
c37 -21 43 -29 53 -77 13 -55 26 -71 89 -105 l32 -18 -31 -54 c-17 -29 -31
-58 -31 -63 0 -5 32 -27 70 -48 39 -21 70 -42 70 -46 0 -12 -141 71 -146 86
-6 14 33 102 48 111 5 3 -15 21 -44 39 -48 31 -53 38 -68 92 -14 55 -18 60
-68 86 -28 16 -52 35 -52 43 0 11 4 10 19 -5 10 -10 37 -28 59 -41z m6715
-131 c-32 -58 -45 -66 -76 -50 -21 11 -21 11 4 7 22 -5 29 1 54 44 38 66 54
65 18 -1z m-6423 -422 c0 -4 -49 -58 -108 -120 l-108 -112 -33 -125 -32 -126
62 -107 62 -107 86 -49 c141 -81 131 -54 86 -226 -21 -82 -40 -144 -42 -138
-2 6 10 64 27 129 17 66 34 128 36 139 4 16 -4 25 -38 43 -150 80 -155 84
-207 169 -90 148 -87 131 -50 279 l32 129 108 110 109 110 -15 55 c-8 30 -14
60 -14 65 1 10 39 -104 39 -118z m-50 -1217 l-22 -81 69 -72 c48 -50 90 -109
139 -194 l69 -122 79 -46 79 -46 46 45 46 46 81 -81 82 -82 67 17 c37 9 70 15
72 12 6 -6 -94 -36 -121 -36 -12 0 -52 31 -98 77 l-78 77 -45 -44 -45 -44 -42
22 c-128 67 -155 97 -250 282 -13 25 -54 76 -92 114 -76 77 -77 80 -40 195 26
79 28 53 4 -39z m6167 -236 c-3 -3 -12 -4 -19 -1 -8 3 -5 6 6 6 11 1 17 -2 13
-5z m-5112 -394 l80 -80 161 0 161 0 126 -72 c70 -40 127 -77 127 -83 0 -5
-39 -77 -86 -160 -78 -135 -98 -162 -203 -270 l-118 -120 -43 -165 c-41 -158
-47 -172 -132 -322 l-89 -156 51 -88 c27 -49 50 -95 50 -104 0 -23 -64 -263
-68 -252 -1 5 11 65 28 132 l31 123 -32 61 c-18 34 -40 73 -51 88 -10 14 -18
31 -18 38 0 6 23 50 52 98 116 197 128 225 180 437 l29 120 120 120 c118 118
142 152 241 335 17 30 35 61 41 69 13 15 -2 29 -73 66 -25 13 -72 39 -104 59
l-60 36 -161 0 -161 0 -74 75 c-41 41 -83 75 -93 75 -11 0 -46 -7 -79 -16 -33
-8 -62 -13 -64 -11 -3 3 119 41 146 46 3 1 41 -35 85 -79z m5405 -1114 c0 -3
-16 -10 -37 -17 -20 -6 -75 -34 -122 -61 -85 -48 -87 -51 -138 -141 l-53 -92
104 -105 c57 -58 117 -129 135 -158 l31 -53 -49 -84 -50 -84 61 -3 62 -3 39
-73 c43 -81 43 -82 -4 -238 l-19 -62 -42 9 c-48 11 -91 34 -45 25 15 -3 38 -9
50 -12 23 -5 25 0 50 88 15 52 27 102 27 112 0 9 -17 46 -37 81 l-38 65 -62 0
c-35 0 -63 2 -63 4 0 2 23 42 50 89 l50 86 -31 53 c-17 29 -77 100 -134 158
l-103 105 55 95 c54 94 57 97 140 145 102 60 173 89 173 71z m-4379 -782 c30
-9 58 -19 62 -24 7 -6 -3 -63 -20 -106 -4 -11 9 -14 76 -14 l80 0 27 -46 c17
-29 32 -43 41 -40 34 14 136 37 140 32 5 -5 -78 -32 -132 -42 -33 -6 -35 -4
-57 40 l-22 46 -83 0 c-46 0 -83 4 -83 9 0 4 4 21 9 37 26 82 27 80 -46 98
l-66 17 -78 -77 -78 -78 51 -28 c44 -24 63 -28 130 -28 57 0 78 -3 78 -13 0
-14 -34 -114 -41 -122 -3 -2 -31 3 -63 11 -53 14 -65 14 -132 -2 -74 -18 -74
-18 -123 6 l-49 23 -112 -28 c-61 -15 -113 -26 -115 -23 -3 2 49 18 114 35
l119 31 44 -25 43 -25 77 17 c62 15 84 16 121 6 69 -17 74 -15 86 33 17 67 18
66 -61 66 -63 0 -80 4 -125 30 -29 17 -53 34 -53 37 0 15 155 163 170 163 9 0
41 -7 71 -16z m-1038 -106 l-27 -105 44 -67 c36 -56 47 -66 64 -62 12 4 58 16
103 27 l81 21 61 -36 c35 -20 68 -33 79 -30 15 5 15 4 1 -5 -12 -8 -31 -2 -80
24 l-64 34 -103 -26 c-56 -14 -104 -24 -105 -22 -2 2 -24 34 -50 71 l-47 67
20 78 c23 87 42 144 47 140 1 -2 -9 -51 -24 -109z m5068 -25 l49 -26 0 -76 0
-77 71 -18 c39 -10 68 -20 66 -22 -2 -3 -36 3 -76 13 l-71 17 0 77 0 77 -46
26 c-67 37 -117 35 -198 -10 l-65 -35 -61 31 c-34 17 -60 34 -57 37 3 3 30 -9
60 -26 l55 -31 58 34 c78 45 144 48 215 9z m-501 -60 c0 -90 29 -83 -337 -83
l-324 0 2 -70 c1 -39 0 -72 -2 -74 -2 -3 -18 -7 -34 -10 l-30 -6 28 11 c26 10
27 13 27 85 l0 74 325 0 325 0 0 78 c0 53 3 72 10 62 5 -8 10 -38 10 -67z
m-2954 -24 l119 -31 85 -84 c50 -49 94 -84 105 -84 11 0 70 14 130 30 115 31
141 36 114 20 -10 -6 -73 -23 -140 -39 l-124 -30 -90 89 -90 89 -100 26 c-55
15 -116 30 -135 35 -21 4 -27 8 -14 9 12 0 75 -13 140 -30z m1434 -126 c2 -2
-18 -1 -45 2 -29 4 -69 2 -94 -5 -24 -6 -45 -9 -47 -7 -3 3 21 11 53 19 53 13
114 9 133 -9z m115 -28 c42 -12 65 -30 140 -105 l90 -90 94 0 94 0 105 60 c57
33 116 63 131 67 14 3 -14 -16 -64 -42 -49 -26 -106 -58 -125 -71 -31 -21 -46
-24 -135 -24 l-100 0 -87 87 c-83 82 -93 90 -171 115 -82 28 -65 29 28 3z
m-330 3 c-11 -6 -22 -12 -24 -14 -2 -2 15 -34 37 -72 l41 -69 -19 -69 c-13
-43 -28 -75 -42 -86 -30 -22 -170 -99 -174 -95 -2 2 37 27 87 56 93 54 97 59
119 146 12 50 12 50 -29 121 -23 39 -41 74 -41 77 0 6 26 14 50 16 10 0 8 -3
-5 -11z"/>
<path d="M7890 10652 c-17 -5 -5 -8 40 -12 60 -5 66 -7 88 -40 13 -19 37 -39
55 -45 23 -7 34 -19 41 -42 5 -18 13 -33 18 -33 15 0 -2 60 -29 103 -13 21
-21 41 -19 46 3 4 -23 11 -57 15 -34 3 -73 8 -87 10 -14 2 -36 1 -50 -2z"/>
<path d="M7346 10364 c-21 -14 -53 -30 -72 -36 -28 -7 -41 -22 -78 -86 -47
-80 -47 -86 4 -94 20 -2 29 5 50 43 14 25 38 69 54 97 l29 52 93 0 c80 0 98 3
135 25 l44 25 -110 0 c-103 0 -113 -2 -149 -26z"/>
</g>
</svg>
