<?xml version="1.0" standalone="no"?>
<!DOCTYPE svg PUBLIC "-//W3C//DTD SVG 20010904//EN"
 "http://www.w3.org/TR/2001/REC-SVG-20010904/DTD/svg10.dtd">
<svg version="1.0" xmlns="http://www.w3.org/2000/svg"
 width="2469.000000pt" height="2469.000000pt" viewBox="0 0 2469.000000 2469.000000"
 preserveAspectRatio="xMidYMid meet">
<metadata>
Created by potrace 1.14, written by Peter Selinger 2001-2017
</metadata>
<g transform="translate(0.000000,2469.000000) scale(0.100000,-0.100000)"
fill="#000000" stroke="none">
<path d="M0 12345 l0 -12345 12340 0 12340 0 0 12345 0 12345 -12340 0 -12340
0 0 -12345z m8596 11920 c5 -11 16 -13 44 -9 29 5 38 2 43 -10 5 -13 14 -16
42 -10 27 5 36 3 41 -10 4 -11 -40 -62 -155 -177 -128 -127 -159 -164 -151
-175 7 -7 35 -24 63 -39 l51 -25 488 0 c319 0 488 -3 488 -10 0 -5 18 -10 40
-10 31 0 43 -5 56 -25 14 -22 22 -24 50 -19 26 5 35 2 40 -11 6 -14 15 -16 44
-11 30 5 39 2 44 -10 5 -13 15 -15 42 -11 25 4 37 2 41 -9 3 -8 19 -14 39 -14
18 0 49 -9 69 -20 20 -11 42 -20 50 -20 8 0 15 -4 15 -10 0 -5 7 -10 16 -10 9
0 30 -15 46 -32 17 -18 36 -32 43 -30 7 1 16 -5 19 -14 4 -9 12 -14 21 -10 9
3 18 -1 21 -9 14 -37 51 -14 167 104 116 116 118 118 160 116 53 -2 93 -18
109 -45 7 -11 18 -20 25 -20 7 0 28 -9 48 -20 20 -11 42 -20 50 -20 8 0 15 -4
15 -10 0 -5 8 -10 18 -10 10 0 24 -9 32 -20 8 -11 21 -20 30 -20 8 0 24 -11
34 -25 11 -14 26 -23 33 -21 8 3 16 -1 19 -9 4 -8 15 -15 25 -15 10 0 19 -4
19 -10 0 -6 41 -10 103 -10 106 0 127 -7 127 -42 0 -10 5 -18 10 -18 6 0 10
-9 10 -20 0 -11 5 -20 10 -20 6 0 10 -9 10 -19 0 -11 11 -28 25 -39 14 -11 25
-27 25 -36 0 -9 5 -16 10 -16 6 0 10 -8 10 -18 0 -11 9 -27 20 -37 11 -10 20
-24 20 -30 0 -7 7 -18 15 -25 40 -33 45 -66 45 -292 0 -211 -1 -218 -20 -218
-11 0 -20 -4 -20 -10 0 -5 -6 -10 -13 -10 -20 0 -73 -28 -87 -45 -7 -8 -18
-15 -25 -15 -6 0 -20 -9 -30 -20 -17 -18 -17 -20 0 -26 9 -4 20 -2 25 5 12 21
60 41 96 41 19 0 34 5 34 10 0 6 21 10 47 10 47 0 50 -2 140 -92 51 -51 93
-98 93 -104 0 -7 -7 -14 -15 -18 -11 -4 -14 -13 -9 -31 4 -18 2 -27 -10 -31
-11 -4 -16 -18 -16 -44 0 -22 -4 -42 -10 -45 -5 -3 -10 -17 -10 -30 0 -13 -4
-27 -10 -30 -5 -3 -10 -28 -10 -56 0 -27 5 -49 10 -49 6 0 10 9 10 20 0 11 5
20 10 20 6 0 10 7 10 16 0 9 10 26 23 38 13 12 22 27 19 34 -2 7 3 15 12 18 9
3 16 15 16 25 0 10 9 24 20 31 11 7 20 20 20 28 0 28 119 130 152 130 7 0 19
9 26 20 7 11 23 20 37 20 13 0 40 -9 60 -20 20 -11 42 -20 50 -20 8 0 15 -4
15 -10 0 -5 8 -10 18 -10 9 0 28 -14 40 -30 24 -30 73 -60 99 -60 7 0 13 -4
13 -10 0 -5 9 -10 20 -10 11 0 20 -4 20 -10 0 -5 9 -10 20 -10 11 0 20 -4 20
-10 0 -5 7 -10 15 -10 28 0 59 -24 159 -120 58 -57 100 -90 103 -82 3 7 22 12
44 12 21 0 39 5 39 10 0 6 15 10 33 10 53 0 84 22 192 130 77 78 106 100 127
100 15 0 30 -4 33 -10 3 -5 24 -10 45 -10 22 0 40 -5 43 -12 6 -17 38 1 53 30
6 12 18 30 27 40 22 24 22 52 -1 52 -10 0 -24 9 -32 20 -8 11 -19 20 -25 20
-6 0 -34 12 -63 26 l-52 26 0 57 c0 49 3 59 26 75 22 17 24 25 19 58 -9 52 13
78 67 78 21 0 38 -4 38 -10 0 -5 18 -10 39 -10 31 0 44 -6 60 -26 17 -21 26
-25 50 -19 22 5 32 2 39 -11 7 -13 18 -16 45 -11 25 4 37 1 41 -9 3 -8 13 -14
21 -14 20 0 45 -24 45 -42 0 -8 9 -20 20 -28 11 -8 20 -19 20 -26 0 -16 45
-102 65 -124 9 -10 27 -39 40 -64 21 -42 22 -46 6 -60 -10 -9 -30 -16 -44 -16
-15 0 -27 -4 -27 -10 0 -6 -30 -10 -69 -10 -39 0 -73 5 -76 10 -3 6 -24 10
-45 10 -22 0 -40 5 -43 13 -5 17 -37 -10 -37 -32 0 -9 -9 -23 -20 -31 -11 -8
-20 -22 -20 -31 0 -9 -7 -20 -15 -23 -9 -3 -15 -12 -13 -20 2 -8 -8 -24 -22
-36 -21 -18 -22 -24 -12 -40 7 -11 12 -35 12 -54 0 -18 6 -39 14 -46 8 -6 12
-18 9 -26 -3 -8 2 -23 12 -34 11 -12 16 -29 13 -45 -3 -14 1 -30 8 -36 8 -6
14 -24 14 -40 0 -16 5 -29 10 -29 6 0 10 -26 10 -59 0 -57 -1 -60 -32 -75 -17
-9 -37 -16 -45 -16 -7 0 -13 -4 -13 -10 0 -5 -9 -10 -20 -10 -11 0 -20 -4 -20
-10 0 -5 -9 -10 -20 -10 -11 0 -20 -4 -20 -10 0 -5 -9 -10 -20 -10 -11 0 -20
-4 -20 -10 0 -5 -8 -10 -18 -10 -10 0 -29 -11 -42 -25 -12 -13 -26 -22 -30
-20 -4 3 -15 -4 -25 -15 -19 -21 -111 -70 -132 -70 -7 0 -13 -4 -13 -10 0 -5
-8 -10 -18 -10 -10 0 -24 -9 -32 -20 -8 -11 -21 -20 -28 -20 -8 0 -23 -11 -34
-25 -11 -14 -26 -25 -34 -25 -21 0 -47 -27 -34 -35 5 -3 10 -17 10 -29 0 -13
7 -30 16 -37 11 -9 14 -23 11 -47 -4 -23 -2 -35 9 -39 7 -3 14 -14 14 -24 0
-17 9 -19 105 -19 98 0 105 -1 105 -20 0 -11 5 -20 10 -20 6 0 10 -32 10 -75
0 -41 3 -75 6 -75 10 0 94 92 94 103 0 16 31 47 47 47 8 0 32 18 53 40 25 26
47 40 63 40 14 0 27 7 31 15 4 11 13 14 31 9 18 -4 27 -2 31 10 4 9 18 16 34
16 16 0 32 5 35 10 3 6 21 10 40 10 19 0 37 5 40 11 8 12 45 -17 45 -36 0 -7
9 -20 20 -30 11 -10 20 -26 20 -37 0 -10 5 -18 10 -18 6 0 10 -9 10 -20 0 -11
5 -20 10 -20 6 0 10 -8 10 -18 0 -9 11 -26 25 -36 14 -10 25 -27 25 -37 0 -12
7 -19 18 -19 10 0 24 -9 32 -20 8 -11 22 -20 32 -20 10 0 18 -4 18 -10 0 -5 9
-10 20 -10 11 0 20 -5 20 -11 0 -6 10 -9 23 -7 15 2 21 9 19 21 -2 11 4 27 13
37 9 10 14 31 13 50 -1 20 3 35 10 38 7 2 12 21 12 42 0 21 5 42 10 45 6 3 10
16 10 29 0 13 9 31 20 41 11 10 20 26 20 37 0 10 5 18 10 18 6 0 10 9 10 20 0
11 5 20 10 20 6 0 10 8 10 18 0 9 11 26 25 36 18 13 23 25 19 41 -4 16 3 29
30 53 20 17 36 36 36 41 0 6 9 26 20 46 11 20 20 42 20 50 0 8 5 15 10 15 6 0
10 7 10 16 0 23 25 44 54 44 14 0 28 5 31 10 3 6 23 10 45 10 22 0 40 5 43 13
3 9 16 12 37 9 26 -4 37 1 55 22 16 19 32 26 59 26 20 0 36 5 36 10 0 6 18 10
39 10 22 0 43 5 46 10 3 6 24 10 46 10 21 0 39 5 39 10 0 6 86 10 238 10 216
0 240 2 253 18 22 27 39 60 39 77 0 8 5 15 10 15 6 0 10 8 10 18 0 10 9 24 20
32 11 8 20 21 20 30 0 8 11 24 25 34 14 11 24 25 21 32 -3 7 6 22 19 33 14 10
25 25 25 33 0 8 9 23 20 33 11 10 20 23 20 30 0 7 9 20 20 30 11 10 20 24 20
31 0 7 12 22 26 33 14 11 23 25 20 30 -4 5 -2 12 3 16 13 7 41 64 41 82 0 7 5
13 10 13 6 0 10 9 10 20 0 11 5 20 10 20 6 0 10 6 10 13 0 17 28 75 40 82 11
7 40 65 40 80 0 7 7 16 16 19 8 3 12 11 9 17 -4 6 2 17 13 25 28 19 701 23
712 3 5 -7 21 -10 40 -7 21 3 34 0 37 -9 3 -8 21 -13 43 -13 22 0 42 -4 45
-10 3 -5 24 -10 46 -10 32 0 39 -3 39 -20 0 -11 7 -20 15 -20 20 0 65 -44 65
-63 0 -8 7 -20 15 -27 8 -7 13 -16 10 -20 -3 -5 -1 -11 5 -15 5 -3 19 -26 30
-50 11 -24 24 -46 29 -50 12 -7 41 -64 41 -79 0 -7 9 -18 20 -26 11 -8 20 -22
20 -32 0 -10 5 -18 10 -18 6 0 10 -8 10 -18 0 -21 52 -72 73 -72 7 0 19 -9 27
-20 8 -11 22 -20 32 -20 10 0 18 -4 18 -10 0 -5 9 -10 19 -10 10 0 33 -16 50
-35 17 -19 36 -35 42 -35 15 0 99 -86 99 -101 0 -13 58 -69 71 -69 6 0 28 -18
49 -40 l38 -40 196 0 c124 0 196 4 196 10 0 6 7 10 15 10 8 0 30 9 50 20 20
11 42 20 50 20 8 0 15 5 15 10 0 6 9 10 19 10 10 0 21 7 25 15 3 8 15 15 27
15 20 0 21 4 18 93 l-3 92 33 3 c43 4 71 -21 71 -64 0 -28 12 -45 81 -113 45
-45 88 -81 95 -81 8 0 14 -4 14 -10 0 -5 8 -10 18 -10 11 0 27 -9 37 -20 10
-11 24 -20 31 -20 7 0 22 -12 33 -26 11 -14 25 -23 30 -20 5 4 12 2 16 -4 3
-5 25 -19 48 -29 26 -12 97 -75 186 -165 80 -80 148 -143 152 -140 4 2 10 0
14 -5 6 -11 63 -41 77 -41 5 0 16 -7 24 -15 12 -11 14 -44 12 -167 l-3 -153
-157 -3 c-94 -1 -158 -6 -158 -12 0 -6 -18 -10 -39 -10 -22 0 -43 -4 -46 -10
-3 -5 -24 -10 -46 -10 -21 0 -39 -4 -39 -10 0 -5 -22 -10 -48 -10 -43 0 -52 4
-87 40 -21 22 -43 40 -47 40 -5 0 -8 -37 -6 -82 3 -80 4 -83 28 -86 14 -2 29
-8 34 -13 6 -5 27 -9 48 -9 21 0 38 -4 38 -10 0 -5 18 -10 39 -10 22 0 43 -4
46 -10 3 -5 17 -10 30 -10 13 0 27 -4 30 -10 4 -6 87 -10 216 -10 133 0 209 4
209 10 0 15 29 12 46 -4 8 -8 14 -26 14 -39 0 -14 7 -30 16 -38 10 -8 14 -22
10 -40 -3 -17 0 -32 9 -39 8 -7 15 -27 15 -46 0 -18 5 -36 10 -39 6 -3 10 -24
10 -46 0 -21 5 -39 10 -39 6 0 10 -18 10 -39 0 -22 5 -43 10 -46 6 -3 10 -19
10 -36 0 -16 5 -29 10 -29 6 0 10 -13 10 -30 0 -16 5 -30 10 -30 6 0 10 -18
10 -39 0 -22 5 -43 10 -46 6 -3 10 -24 10 -46 0 -21 5 -39 10 -39 6 0 10 -13
10 -29 0 -16 7 -34 16 -42 10 -8 14 -26 13 -51 -2 -21 2 -43 9 -50 7 -7 12
-25 12 -40 0 -15 5 -28 10 -28 6 0 10 -18 10 -39 0 -22 5 -43 10 -46 6 -3 10
-21 10 -40 0 -19 5 -37 10 -40 6 -3 10 -19 10 -36 0 -16 5 -29 10 -29 6 0 10
-13 10 -29 0 -17 5 -33 10 -36 6 -3 10 -21 10 -40 0 -19 5 -37 10 -40 6 -3 10
-24 10 -45 0 -21 5 -40 12 -42 7 -3 11 -19 10 -40 -2 -22 3 -40 13 -48 20 -17
20 -76 -2 -88 -12 -7 -14 -18 -10 -40 4 -20 1 -34 -8 -42 -8 -7 -15 -27 -15
-46 0 -18 -4 -36 -10 -39 -5 -3 -10 -24 -10 -46 0 -21 -4 -39 -10 -39 -6 0
-11 -81 -12 -210 -2 -116 -7 -210 -11 -209 -5 1 -21 -10 -35 -23 -33 -28 -67
-48 -84 -48 -7 0 -19 -9 -26 -20 -7 -11 -21 -20 -32 -20 -11 0 -20 -4 -20 -10
0 -5 -9 -10 -20 -10 -11 0 -20 -4 -20 -10 0 -5 -9 -10 -20 -10 -11 0 -23 -7
-27 -16 -3 -8 -11 -13 -18 -10 -7 2 -21 -6 -31 -20 -11 -13 -24 -24 -31 -24
-7 0 -24 -10 -38 -22 -25 -22 -25 -22 -25 -200 0 -171 1 -178 20 -178 11 0 20
-4 20 -10 0 -5 9 -10 20 -10 11 0 20 -4 20 -10 0 -5 9 -10 20 -10 11 0 20 -4
20 -10 0 -5 9 -10 19 -10 11 0 28 -11 39 -25 11 -14 27 -25 36 -25 9 0 16 -4
16 -10 0 -5 9 -10 20 -10 11 0 25 -9 32 -20 7 -11 18 -20 24 -20 33 0 99 -59
397 -358 l327 -329 0 -111 c0 -63 -4 -113 -10 -117 -5 -3 -10 -14 -10 -23 0
-10 -9 -24 -20 -32 -11 -8 -20 -22 -20 -32 0 -10 -4 -18 -10 -18 -5 0 -10 -8
-10 -18 0 -11 -9 -27 -20 -37 -21 -19 -28 -75 -10 -75 6 0 10 -13 10 -29 0
-17 5 -33 10 -36 6 -3 10 -24 10 -46 0 -21 5 -39 10 -39 6 0 10 -18 10 -40 0
-22 4 -40 9 -40 6 0 11 -19 13 -42 3 -41 5 -43 38 -46 19 -2 39 -8 45 -13 5
-5 26 -9 47 -9 21 0 38 -4 38 -10 0 -5 7 -10 16 -10 39 0 44 -23 44 -188 0
-129 3 -162 15 -172 8 -7 13 -16 10 -20 -3 -4 2 -13 10 -20 8 -7 15 -20 15
-29 0 -9 9 -23 20 -31 11 -8 20 -22 20 -32 0 -10 5 -18 10 -18 6 0 10 -9 10
-20 0 -11 5 -20 10 -20 6 0 10 -91 10 -252 l0 -252 -37 -38 c-20 -21 -42 -38
-48 -38 -16 0 -105 -86 -105 -102 0 -15 -50 -68 -64 -68 -5 0 -21 -11 -36 -24
l-28 -23 129 -129 c103 -103 129 -134 129 -156 0 -16 5 -28 10 -28 6 0 10 -18
10 -39 0 -22 5 -43 10 -46 5 -3 10 -16 10 -29 0 -13 9 -31 20 -41 11 -10 20
-26 20 -37 0 -10 5 -18 10 -18 6 0 10 -9 10 -20 0 -11 5 -20 10 -20 6 0 10 -9
10 -19 0 -11 11 -28 25 -39 14 -11 25 -27 25 -36 0 -9 5 -16 10 -16 6 0 10 -9
10 -20 0 -11 5 -20 10 -20 6 0 10 -9 10 -19 0 -11 5 -23 10 -26 6 -4 10 -55
10 -121 l0 -114 29 0 c17 0 33 -4 36 -10 3 -5 24 -10 46 -10 21 0 39 -4 39
-10 0 -5 18 -10 40 -10 22 0 40 -4 40 -10 0 -5 18 -10 39 -10 22 0 43 -5 46
-10 3 -5 19 -10 36 -10 16 0 29 -4 29 -10 0 -5 9 -10 20 -10 13 0 20 -7 20
-19 0 -11 5 -23 10 -26 6 -3 10 -17 10 -29 0 -13 7 -29 16 -37 10 -8 14 -23
12 -41 -3 -16 1 -33 9 -39 7 -6 13 -29 13 -50 0 -21 5 -41 10 -44 6 -3 10 -21
10 -40 0 -19 5 -37 10 -40 6 -3 10 -24 10 -46 0 -21 5 -39 10 -39 6 0 10 -18
10 -39 0 -22 5 -43 10 -46 13 -8 13 -155 0 -155 -5 0 -12 12 -15 28 -3 15 -15
59 -25 97 -35 126 -52 189 -60 225 -9 40 -36 147 -50 200 -31 119 -29 116
-115 139 -143 38 -284 74 -308 78 -15 3 -32 14 -38 24 -5 10 -9 67 -8 127 1
105 0 110 -33 173 -19 35 -47 84 -63 109 -71 112 -100 181 -122 290 -3 14 -58
79 -130 151 -108 109 -124 129 -115 145 6 11 76 84 156 164 l146 145 0 232 0
232 -30 51 c-16 28 -30 53 -30 55 0 2 -13 26 -30 52 l-30 47 0 167 0 166 -97
27 -96 27 -21 -20 -20 -21 31 0 c18 0 35 -4 38 -10 3 -5 24 -10 46 -10 21 0
39 -4 39 -10 0 -5 9 -10 20 -10 19 0 20 -7 20 -154 0 -121 3 -156 14 -166 8
-6 12 -18 9 -26 -3 -8 0 -14 5 -14 11 0 42 -55 42 -74 0 -7 9 -18 20 -26 11
-8 20 -22 20 -32 0 -10 5 -18 10 -18 6 0 10 -81 10 -224 0 -193 -2 -225 -16
-237 -9 -7 -20 -23 -25 -36 -5 -13 -15 -23 -24 -23 -8 0 -15 -6 -15 -13 0 -7
-20 -33 -45 -57 -25 -24 -45 -40 -45 -36 0 15 -32 -17 -41 -41 -5 -13 -15 -23
-24 -23 -8 0 -15 -5 -15 -12 0 -7 -17 -29 -37 -50 l-37 -38 132 -133 c122
-122 132 -135 132 -170 0 -20 5 -37 10 -37 6 0 10 -17 10 -38 0 -28 7 -45 26
-63 14 -13 34 -43 45 -66 10 -23 23 -44 29 -48 5 -3 7 -12 4 -19 -3 -7 2 -16
11 -20 10 -3 15 -13 12 -20 -3 -8 1 -17 9 -20 8 -3 14 -15 14 -26 0 -11 5 -20
10 -20 6 0 10 -9 10 -20 0 -11 5 -20 10 -20 6 0 10 -52 10 -135 0 -110 3 -135
14 -135 8 0 23 -11 34 -25 11 -14 27 -25 35 -25 9 0 19 -5 22 -10 3 -5 24 -10
46 -10 21 0 39 -4 39 -10 0 -5 18 -10 40 -10 22 0 40 -4 40 -10 0 -5 18 -10
39 -10 22 0 43 -4 46 -10 3 -6 22 -10 42 -10 46 0 62 -22 63 -81 0 -34 5 -49
16 -53 11 -4 14 -13 10 -30 -4 -17 -1 -26 10 -30 11 -4 15 -17 13 -49 -2 -23
1 -49 7 -57 23 -38 34 -64 34 -86 0 -13 5 -24 10 -24 6 0 10 -18 10 -40 0 -22
5 -40 10 -40 6 0 10 -18 10 -39 0 -22 5 -43 10 -46 6 -3 10 -24 10 -46 0 -21
5 -39 10 -39 6 0 10 -11 10 -25 0 -14 -4 -25 -10 -25 -5 0 -10 -18 -10 -39 0
-22 -4 -43 -10 -46 -5 -3 -10 -24 -10 -46 0 -21 -4 -39 -10 -39 -5 0 -10 -22
-10 -48 0 -36 -5 -54 -20 -67 -13 -12 -20 -31 -20 -55 0 -23 -5 -40 -14 -43
-8 -3 -12 -15 -9 -31 4 -18 0 -28 -11 -32 -13 -5 -15 -14 -11 -36 5 -20 2 -35
-10 -47 -11 -13 -15 -33 -13 -62 1 -26 -2 -44 -10 -47 -7 -2 -12 -21 -12 -42
0 -21 -4 -42 -10 -45 -5 -3 -10 -24 -10 -46 0 -21 -4 -39 -10 -39 -5 0 -10
-16 -10 -35 0 -19 -9 -50 -20 -70 -11 -20 -20 -44 -20 -55 0 -10 -4 -22 -10
-25 -5 -3 -10 -21 -10 -39 0 -40 -15 -72 -52 -109 -22 -22 -36 -27 -78 -27
-27 0 -50 5 -50 10 0 6 -18 10 -39 10 -22 0 -43 5 -46 10 -3 6 -22 10 -41 10
-20 0 -42 6 -50 14 -16 17 -19 72 -4 81 5 3 10 24 10 46 0 21 5 39 10 39 22 0
8 48 -21 76 -28 27 -31 28 -43 12 -14 -19 -35 -22 -73 -12 -22 6 -23 11 -23
100 0 87 -1 94 -20 94 -13 0 -20 7 -20 20 0 13 -7 20 -20 20 -11 0 -20 5 -20
10 0 6 -8 10 -18 10 -11 0 -27 9 -37 20 -10 11 -23 20 -30 20 -6 0 -16 5 -22
11 -15 15 -116 15 -121 0 -6 -17 -171 -15 -178 2 -7 20 -40 14 -69 -13 -23
-22 -25 -30 -25 -122 0 -91 1 -98 20 -98 13 0 20 -7 20 -20 0 -13 7 -20 20
-20 11 0 20 -4 20 -10 0 -5 9 -10 19 -10 10 0 21 -7 25 -15 3 -8 11 -12 19 -9
7 2 22 -7 33 -21 10 -14 25 -25 32 -25 18 0 42 -25 42 -44 0 -9 -17 -34 -39
-56 -31 -32 -46 -40 -75 -40 -20 0 -36 -4 -36 -10 0 -5 -18 -10 -39 -10 -22 0
-43 -4 -46 -10 -3 -5 -28 -10 -56 -10 -27 0 -49 -4 -49 -10 0 -5 -9 -10 -20
-10 -11 0 -20 -4 -20 -10 0 -5 -9 -10 -19 -10 -10 0 -33 -16 -50 -36 -17 -19
-36 -32 -41 -29 -6 4 -13 -1 -16 -9 -3 -9 -11 -16 -18 -16 -18 0 -176 -82
-176 -91 0 -5 -8 -9 -18 -9 -9 0 -25 -11 -36 -24 -10 -14 -24 -22 -31 -20 -7
3 -15 -2 -18 -10 -4 -9 -15 -16 -25 -16 -20 0 -62 -42 -62 -63 0 -7 -9 -19
-20 -27 -11 -8 -20 -22 -20 -32 0 -10 -4 -18 -10 -18 -5 0 -10 -11 -10 -25 0
-24 -3 -25 -55 -25 -30 0 -55 -4 -55 -10 0 -5 -18 -10 -40 -10 -22 0 -40 -4
-40 -10 0 -5 -18 -10 -39 -10 -22 0 -43 -5 -46 -10 -8 -13 -95 -13 -95 0 0 6
-18 10 -40 10 -22 0 -40 5 -40 10 0 6 -18 10 -40 10 -22 0 -40 -4 -40 -10 0
-5 -7 -10 -15 -10 -22 0 -55 -20 -97 -60 -21 -19 -38 -30 -38 -25 0 4 -8 1
-17 -7 -10 -8 -25 -18 -34 -21 -29 -10 -49 -66 -49 -133 0 -38 -5 -66 -12 -70
-6 -4 -14 -2 -16 4 -2 7 -21 12 -42 12 -21 0 -42 5 -45 10 -13 21 -95 -2 -95
-27 0 -6 -11 -20 -25 -31 -14 -11 -25 -25 -25 -31 0 -13 -19 -48 -39 -73 -15
-19 -91 -26 -91 -8 0 6 -21 10 -47 10 -34 0 -53 -6 -70 -22 -21 -20 -23 -29
-23 -135 l0 -113 -169 0 c-168 0 -170 0 -173 -22 -2 -16 -9 -22 -20 -20 -16 3
-18 -8 -18 -101 l0 -104 -34 -29 c-18 -16 -35 -38 -37 -48 -2 -10 -12 -24 -21
-30 -13 -8 -21 -6 -36 12 -11 12 -27 22 -36 22 -9 0 -16 5 -16 10 0 6 -9 10
-20 10 -11 0 -20 5 -20 10 0 6 -9 10 -19 10 -11 0 -23 5 -26 10 -3 6 -35 10
-70 10 -35 0 -67 -4 -70 -10 -3 -5 -24 -10 -46 -10 -21 0 -39 -4 -39 -10 0 -5
-16 -10 -35 -10 -19 0 -50 -9 -70 -20 -20 -11 -42 -20 -50 -20 -8 0 -15 -4
-15 -10 0 -5 -7 -10 -16 -10 -9 0 -30 -16 -47 -35 -20 -24 -38 -35 -56 -35
-15 0 -33 -9 -41 -20 -8 -11 -22 -20 -32 -20 -10 0 -18 -4 -18 -10 0 -5 -9
-10 -20 -10 -11 0 -20 -4 -20 -10 0 -5 -6 -10 -13 -10 -21 0 -72 -28 -92 -50
-10 -11 -23 -20 -28 -20 -15 0 -57 -41 -57 -56 0 -14 -93 -106 -113 -113 -22
-7 -57 -44 -57 -60 0 -9 -9 -22 -20 -29 -18 -11 -20 -23 -20 -117 0 -76 -3
-105 -12 -105 -7 0 -43 30 -80 67 l-68 67 0 98 c0 53 -4 99 -8 102 -5 3 -17 3
-28 0 -17 -5 -19 -13 -16 -102 l3 -97 117 -118 c64 -64 119 -117 122 -117 3 0
5 67 5 150 l0 150 130 130 c97 98 151 144 213 181 46 27 86 49 88 49 2 0 27
15 56 34 120 76 207 116 319 145 63 17 124 33 135 37 15 4 53 -13 129 -56
l108 -61 64 63 63 62 0 108 c0 69 4 109 11 114 7 4 76 6 155 5 80 -1 164 1
189 5 l45 6 0 139 c0 114 3 141 15 145 8 3 46 -3 84 -15 38 -12 74 -21 79 -21
8 0 71 96 107 164 20 38 39 41 116 17 41 -12 82 -25 92 -27 15 -5 17 4 17 88
1 57 5 99 13 109 11 14 47 37 152 97 83 47 78 46 174 23 75 -17 98 -19 133
-10 24 5 59 14 78 19 201 50 214 56 249 111 17 28 31 53 31 56 0 18 49 67 88
88 26 14 65 36 87 49 22 14 51 31 65 39 90 52 137 79 150 87 8 5 42 25 75 43
56 31 80 40 183 67 164 43 185 52 241 107 47 46 53 55 41 66 -8 7 -70 46 -136
85 -134 79 -134 78 -134 182 0 94 5 98 82 78 60 -15 66 -15 145 5 l83 21 37
-20 c162 -88 153 -76 153 -205 0 -59 3 -110 8 -112 4 -3 38 5 75 16 47 14 71
17 78 10 11 -11 -22 -175 -43 -215 -12 -24 2 -30 173 -72 162 -41 177 -40 222
14 29 34 49 74 66 135 6 22 29 105 51 185 22 80 47 170 55 200 19 69 34 124
46 173 18 75 31 123 39 152 5 17 23 84 40 150 46 176 54 189 58 90 2 -49 -1
-81 -8 -83 -5 -2 -10 -21 -10 -42 0 -21 -4 -42 -10 -45 -5 -3 -10 -21 -10 -40
0 -19 -4 -37 -10 -40 -5 -3 -10 -24 -10 -46 0 -21 -4 -39 -10 -39 -5 0 -10
-17 -10 -39 0 -21 -6 -44 -14 -50 -8 -7 -12 -20 -9 -30 2 -9 -3 -23 -11 -30
-10 -8 -16 -29 -16 -52 0 -22 -4 -39 -10 -39 -5 0 -10 -13 -10 -29 0 -17 -4
-33 -10 -36 -5 -3 -10 -21 -10 -40 0 -19 -5 -37 -10 -40 -5 -3 -10 -24 -10
-46 0 -21 -4 -39 -10 -39 -5 0 -10 -18 -10 -39 0 -22 -4 -43 -10 -46 -5 -3
-10 -24 -10 -46 0 -21 -4 -39 -10 -39 -5 0 -10 -9 -10 -20 0 -11 -4 -20 -10
-20 -5 0 -10 -9 -10 -19 0 -11 -11 -28 -25 -39 -14 -11 -25 -26 -25 -34 0 -19
-20 -38 -42 -38 -10 0 -18 -4 -18 -10 0 -5 -25 -10 -55 -10 -30 0 -55 5 -55
10 0 6 -18 10 -40 10 -22 0 -40 5 -40 10 0 6 -18 10 -39 10 -22 0 -43 5 -46
10 -3 6 -24 10 -46 10 -21 0 -39 5 -39 10 0 6 -9 10 -20 10 -18 0 -20 7 -20
55 0 30 5 55 10 55 6 0 10 17 10 38 0 21 5 43 11 49 7 7 9 19 6 27 -8 20 -53
21 -61 1 -3 -8 -15 -15 -26 -15 -11 0 -20 -5 -20 -11 0 -6 -12 -9 -27 -7 l-28
3 -3 134 c-3 137 -10 161 -46 161 -9 0 -16 5 -16 10 0 6 -9 10 -19 10 -11 0
-23 5 -26 10 -8 13 -142 13 -150 0 -8 -13 -125 -13 -125 0 0 6 -5 10 -10 10
-7 0 -10 -30 -8 -82 2 -48 7 -82 13 -81 6 1 17 -4 25 -11 8 -7 36 -23 63 -36
26 -13 47 -27 47 -32 0 -4 9 -8 20 -8 11 0 20 -4 20 -10 0 -5 7 -10 15 -10 15
0 65 -42 65 -55 0 -13 -131 -135 -145 -135 -9 0 -18 -7 -22 -16 -4 -11 -13
-14 -30 -9 -16 4 -25 1 -29 -10 -4 -8 -18 -15 -34 -15 -16 0 -32 -4 -35 -10
-3 -5 -24 -10 -46 -10 -21 0 -39 -4 -39 -10 0 -5 -17 -10 -38 -10 -26 0 -42
-6 -52 -20 -8 -11 -19 -20 -26 -20 -13 0 -98 -42 -119 -60 -8 -7 -15 -9 -15
-4 0 4 -12 -3 -27 -17 -34 -29 -68 -49 -86 -49 -7 0 -19 -9 -27 -20 -8 -11
-22 -20 -32 -20 -10 0 -18 -4 -18 -10 0 -5 -9 -10 -20 -10 -11 0 -20 -4 -20
-10 0 -5 -8 -10 -18 -10 -19 0 -52 -33 -52 -53 0 -7 -9 -19 -20 -27 -11 -8
-20 -21 -20 -29 0 -7 -8 -21 -19 -30 -10 -9 -20 -25 -23 -36 -3 -15 -11 -19
-30 -17 -16 1 -28 -3 -32 -13 -3 -8 -15 -15 -26 -15 -11 0 -20 -4 -20 -10 0
-5 -18 -10 -40 -10 -22 0 -40 -4 -40 -10 0 -5 -18 -10 -39 -10 -22 0 -43 -4
-46 -10 -3 -5 -24 -10 -46 -10 -21 0 -39 -4 -39 -10 0 -5 -9 -10 -19 -10 -11
0 -23 5 -26 10 -3 6 -24 10 -46 10 -21 0 -39 5 -39 10 0 16 -96 12 -110 -5
-13 -16 -108 -65 -125 -65 -23 0 -35 -47 -37 -150 l-3 -105 -34 -3 c-18 -2
-38 1 -44 7 -6 6 -27 11 -47 11 -26 0 -40 7 -54 25 -22 30 -46 33 -46 6 0 -10
-7 -24 -15 -31 -8 -7 -15 -18 -15 -25 0 -7 -7 -18 -15 -25 -9 -7 -23 -29 -32
-49 -24 -53 -43 -71 -73 -71 -30 0 -79 22 -90 41 -5 6 -15 9 -24 6 -14 -5 -16
-26 -16 -137 0 -101 -3 -135 -14 -146 -12 -11 -54 -14 -210 -14 -180 0 -218
-5 -186 -25 14 -9 12 -151 -2 -178 -7 -12 -38 -48 -68 -79 -47 -50 -59 -58
-92 -58 -20 0 -40 5 -43 10 -3 6 -15 10 -26 10 -10 0 -19 5 -19 10 0 6 -9 10
-20 10 -11 0 -20 5 -20 10 0 6 -7 10 -16 10 -9 0 -25 10 -35 21 -21 25 -88 32
-96 12 -3 -7 -18 -13 -34 -13 -16 0 -29 -4 -29 -10 0 -5 -18 -10 -39 -10 -22
0 -43 -4 -46 -10 -3 -5 -17 -10 -30 -10 -13 0 -27 -4 -30 -10 -3 -5 -15 -10
-26 -10 -10 0 -19 -4 -19 -10 0 -5 -9 -10 -20 -10 -11 0 -20 -4 -20 -10 0 -5
-9 -10 -19 -10 -10 0 -22 -7 -25 -16 -4 -9 -13 -14 -21 -10 -9 3 -18 -1 -22
-10 -3 -8 -11 -13 -18 -10 -7 2 -21 -6 -31 -20 -11 -13 -26 -24 -35 -24 -9 0
-22 -7 -29 -15 -7 -9 -32 -24 -54 -35 -25 -11 -96 -74 -178 -157 l-138 -138
-2 -165 -3 -165 -25 -3 c-20 -2 -49 22 -157 130 l-132 133 -3 90 c-3 90 -3 90
-30 93 -16 2 -28 -1 -28 -7 0 -5 -10 -11 -22 -13 -21 -3 -23 -9 -26 -79 l-3
-76 121 -121 120 -122 0 -120 c0 -113 1 -120 20 -120 11 0 20 -4 20 -10 0 -5
9 -10 20 -10 11 0 20 -4 20 -10 0 -5 7 -10 16 -10 9 0 25 -11 36 -25 11 -14
28 -25 39 -25 10 0 19 -4 19 -10 0 -5 9 -10 20 -10 11 0 20 -4 20 -10 0 -5 9
-10 20 -10 11 0 25 -9 32 -20 7 -11 18 -20 23 -20 20 0 112 -50 130 -70 10
-11 23 -20 29 -20 15 0 276 -262 276 -277 0 -7 -4 -13 -10 -13 -5 0 -10 -8
-10 -19 0 -10 -7 -24 -15 -31 -8 -7 -15 -18 -15 -25 0 -7 -7 -18 -15 -25 -9
-7 -25 -32 -35 -55 -10 -23 -26 -48 -35 -55 -8 -7 -15 -21 -15 -31 0 -11 -4
-19 -10 -19 -5 0 -10 -9 -10 -20 0 -11 -4 -20 -10 -20 -5 0 -10 -17 -10 -39 0
-21 -6 -44 -13 -50 -8 -6 -12 -23 -9 -39 2 -18 -2 -33 -12 -41 -10 -8 -16 -29
-16 -52 0 -24 -5 -39 -12 -39 -7 0 39 -52 102 -115 63 -63 111 -115 105 -115
-5 0 2 -12 16 -27 30 -35 49 -68 49 -88 0 -8 5 -15 10 -15 6 0 10 -9 10 -20 0
-11 5 -20 10 -20 6 0 10 -8 10 -18 0 -10 9 -24 20 -32 11 -8 20 -20 20 -27 0
-16 19 -51 43 -80 22 -25 67 -111 67 -127 0 -7 9 -18 20 -26 11 -8 20 -22 20
-32 0 -10 5 -18 10 -18 6 0 10 -9 10 -20 0 -11 4 -20 8 -20 5 0 15 -12 22 -27
8 -16 21 -36 29 -45 8 -10 10 -18 6 -18 -4 0 -1 -8 7 -17 9 -10 17 -23 19 -30
2 -7 58 -66 123 -133 94 -94 122 -117 128 -106 6 11 18 14 40 9 23 -4 33 -2
40 11 7 12 18 15 49 10 27 -5 39 -3 39 5 0 23 28 41 62 41 30 0 50 -16 186
-153 120 -121 152 -159 152 -180 0 -15 5 -27 10 -27 6 0 10 -18 10 -39 0 -22
5 -43 10 -46 6 -3 10 -23 10 -45 0 -25 5 -40 16 -44 9 -4 14 -13 10 -21 -15
-40 1 -45 138 -45 136 0 156 -5 156 -42 0 -10 5 -18 10 -18 6 0 10 -9 10 -20
0 -11 5 -20 10 -20 6 0 10 -8 10 -18 0 -10 11 -29 25 -42 14 -13 25 -29 25
-37 0 -7 5 -13 10 -13 6 0 10 -8 10 -19 0 -10 7 -24 15 -31 9 -7 23 -29 32
-49 9 -20 52 -73 97 -118 l81 -83 137 0 c80 0 139 -4 143 -10 3 -5 15 -10 26
-10 10 0 19 -4 19 -10 0 -5 8 -10 18 -10 10 0 24 -9 32 -20 8 -11 22 -20 32
-20 10 0 18 -4 18 -10 0 -5 8 -10 18 -10 11 0 27 -9 37 -20 10 -11 23 -20 29
-20 18 -1 236 -226 236 -244 0 -9 5 -16 10 -16 6 0 10 -9 10 -20 0 -11 5 -20
10 -20 6 0 10 -18 10 -39 0 -22 5 -43 10 -46 6 -3 10 -24 10 -46 0 -21 5 -39
10 -39 6 0 10 -17 10 -39 0 -23 6 -44 16 -52 10 -8 14 -23 12 -41 -3 -16 1
-33 9 -40 11 -8 11 -14 1 -26 -7 -8 -11 -27 -10 -42 2 -15 -4 -32 -12 -40 -9
-7 -16 -27 -16 -46 0 -18 -5 -36 -10 -39 -6 -3 -10 -24 -10 -46 0 -21 -4 -39
-10 -39 -5 0 -10 -16 -10 -35 0 -19 -9 -50 -20 -70 -11 -20 -20 -42 -20 -50 0
-8 -4 -15 -10 -15 -5 0 -10 -8 -10 -18 0 -10 -9 -24 -20 -32 -11 -8 -20 -22
-20 -31 0 -9 -7 -22 -15 -29 -8 -7 -13 -16 -10 -20 3 -4 -2 -13 -10 -20 -8 -7
-15 -19 -15 -26 0 -23 -73 -18 -90 6 -8 11 -19 20 -25 20 -22 0 -117 53 -128
71 -7 11 -19 19 -29 19 -9 0 -20 5 -23 10 -3 6 -15 10 -26 10 -10 0 -19 5 -19
10 0 7 -33 10 -91 8 l-91 -3 1 -171 c2 -143 -1 -173 -14 -184 -8 -7 -15 -18
-15 -25 0 -6 -9 -20 -20 -30 -11 -10 -20 -26 -20 -37 0 -10 -4 -18 -10 -18 -5
0 -10 -9 -10 -20 0 -11 -4 -20 -10 -20 -5 0 -10 -6 -10 -13 0 -20 -28 -73 -45
-87 -8 -7 -15 -18 -15 -25 0 -7 -7 -18 -15 -25 -8 -7 -13 -16 -10 -20 2 -4 -4
-15 -15 -25 -20 -18 -50 -70 -50 -87 0 -20 -30 -38 -64 -38 -19 0 -38 -4 -41
-10 -3 -5 -24 -10 -46 -10 -21 0 -39 -4 -39 -10 0 -5 -18 -10 -40 -10 -22 0
-40 -4 -40 -10 0 -5 -20 -10 -44 -10 -31 0 -46 -5 -50 -16 -3 -8 -10 -13 -15
-10 -5 3 -14 -1 -21 -9 -7 -8 -23 -15 -36 -15 -12 0 -26 -4 -29 -10 -3 -5 -18
-10 -33 -10 -16 0 -34 -8 -42 -20 -8 -11 -22 -20 -32 -20 -10 0 -18 -4 -18
-10 0 -5 -9 -10 -20 -10 -11 0 -20 -4 -20 -10 0 -5 -6 -10 -13 -10 -20 0 -73
-28 -88 -46 -7 -8 -31 -24 -54 -34 -23 -10 -48 -26 -55 -35 -7 -8 -21 -15 -31
-15 -11 0 -19 -6 -19 -14 0 -19 -62 -136 -72 -136 -4 0 -8 -9 -8 -20 0 -11 -4
-20 -10 -20 -5 0 -10 -7 -10 -16 0 -9 -12 -27 -26 -40 -14 -13 -22 -29 -19
-34 3 -6 -1 -13 -9 -16 -9 -3 -16 -14 -17 -23 0 -9 -8 -29 -18 -46 l-18 -30
220 -222 c121 -122 227 -237 236 -257 9 -19 23 -43 31 -53 22 -27 40 -61 40
-76 0 -7 9 -19 20 -27 11 -8 20 -19 20 -26 0 -17 -29 -70 -45 -84 -8 -7 -15
-21 -15 -31 0 -11 -4 -19 -10 -19 -5 0 -10 -8 -10 -18 0 -10 -9 -24 -20 -32
-11 -8 -20 -22 -20 -32 0 -9 -4 -20 -10 -23 -5 -3 -17 -23 -26 -43 -10 -20
-26 -47 -37 -59 -11 -13 -16 -23 -11 -24 5 0 60 0 123 1 94 1 116 -2 132 -16
10 -9 19 -24 19 -33 0 -9 9 -23 20 -31 11 -8 20 -22 20 -32 0 -10 5 -18 10
-18 6 0 10 -6 10 -14 0 -8 14 -40 30 -71 17 -31 30 -63 30 -71 0 -8 5 -14 10
-14 6 0 10 -20 10 -45 0 -25 -4 -45 -10 -45 -5 0 -10 -18 -10 -39 0 -22 -4
-43 -10 -46 -5 -3 -10 -21 -10 -40 0 -19 -4 -37 -10 -40 -5 -3 -10 -24 -10
-46 0 -21 -4 -39 -10 -39 -5 0 -10 -13 -10 -29 0 -17 -4 -33 -10 -36 -5 -3
-10 -17 -10 -30 0 -13 -5 -27 -10 -30 -6 -3 -10 -15 -10 -26 0 -20 -15 -26
-25 -9 -3 6 -28 10 -56 10 -27 0 -49 5 -49 10 0 6 -11 10 -23 10 -29 0 -87 28
-87 42 0 6 -15 7 -39 3 -31 -5 -40 -3 -45 11 -5 13 -14 15 -42 11 -25 -4 -37
-2 -41 9 -3 9 -19 14 -44 14 -21 0 -39 4 -39 9 0 6 -19 11 -42 13 l-42 3 3
160 c2 151 1 161 -18 177 -12 10 -28 18 -36 18 -8 0 -15 5 -15 10 0 6 -9 10
-20 10 -11 0 -20 5 -20 10 0 6 -8 10 -18 10 -11 0 -27 9 -37 20 -16 18 -31 20
-132 20 -69 0 -113 -4 -113 -10 0 -5 -8 -10 -18 -10 -10 0 -24 -9 -32 -20 -8
-11 -22 -20 -32 -20 -10 0 -18 -4 -18 -10 0 -5 -6 -10 -13 -10 -16 0 -99 -41
-123 -61 -14 -11 -18 -11 -29 4 -7 9 -19 17 -28 17 -9 0 -19 5 -22 10 -3 6
-15 10 -26 10 -10 0 -19 5 -19 10 0 6 -9 10 -20 10 -11 0 -20 5 -20 10 0 6 -9
10 -20 10 -11 0 -20 5 -20 10 0 6 -9 10 -19 10 -11 0 -28 11 -39 25 -19 24
-24 25 -141 25 -113 0 -121 -1 -121 -19 0 -11 5 -23 10 -26 6 -4 10 -58 10
-130 0 -72 -4 -126 -10 -130 -5 -3 -10 -15 -10 -26 0 -19 -14 -19 -685 -19
l-685 0 0 -124 c0 -77 4 -126 10 -128 7 -2 5 -15 -5 -36 -14 -26 -21 -31 -41
-26 -17 4 -26 1 -30 -11 -5 -13 -14 -15 -45 -10 -32 6 -39 4 -39 -9 0 -10 -9
-16 -25 -16 -13 0 -40 -9 -60 -20 -20 -11 -42 -20 -50 -20 -8 0 -15 -4 -15
-10 0 -5 -8 -10 -18 -10 -10 0 -24 -9 -32 -20 -8 -11 -22 -20 -31 -20 -9 0
-20 -7 -23 -16 -4 -9 -13 -14 -21 -10 -9 3 -18 -1 -22 -10 -3 -8 -12 -13 -20
-10 -7 3 -16 -1 -19 -9 -4 -8 -15 -15 -25 -15 -10 0 -24 -9 -31 -20 -7 -11
-20 -20 -29 -20 -9 0 -24 -9 -34 -20 -10 -11 -23 -20 -30 -20 -6 0 -16 -5 -22
-11 -7 -7 -84 -10 -224 -9 l-214 1 -190 189 c-131 131 -197 190 -212 190 -12
0 -25 4 -28 10 -3 5 -24 10 -46 10 -21 0 -39 5 -39 10 0 6 -13 10 -29 10 -17
0 -33 5 -36 10 -3 6 -17 10 -31 10 -14 0 -27 7 -31 16 -4 10 -13 14 -29 10
-15 -4 -26 -1 -32 10 -8 14 -19 16 -56 11 -36 -5 -48 -3 -52 8 -9 21 -162 22
-170 1 -4 -10 -16 -13 -41 -9 -27 5 -38 2 -45 -11 -7 -13 -17 -15 -42 -10 -25
4 -35 2 -39 -10 -4 -9 -16 -16 -27 -16 -11 0 -20 -4 -20 -10 0 -5 -9 -10 -20
-10 -13 0 -20 -7 -20 -20 0 -11 5 -20 10 -20 6 0 10 -9 10 -20 0 -11 5 -20 10
-20 6 0 10 -9 10 -19 0 -11 11 -28 25 -39 14 -11 25 -24 25 -29 0 -14 30 -72
40 -78 12 -7 40 -65 40 -82 0 -7 -4 -13 -10 -13 -5 0 -10 -18 -10 -39 0 -22
-4 -43 -10 -46 -5 -3 -10 -17 -10 -30 0 -13 -4 -27 -10 -30 -5 -3 -10 -24 -10
-46 0 -21 -4 -39 -10 -39 -5 0 -10 -8 -10 -18 0 -20 -37 -55 -49 -47 -5 2 -17
-7 -27 -20 -10 -14 -26 -25 -34 -25 -9 0 -22 -9 -30 -20 -8 -11 -19 -20 -25
-20 -15 0 -114 -50 -121 -61 -3 -5 -10 -7 -15 -3 -6 3 -16 -2 -24 -12 -7 -11
-17 -16 -21 -12 -3 4 -15 -4 -26 -17 -11 -14 -28 -25 -39 -25 -10 0 -19 -4
-19 -10 0 -5 -9 -10 -20 -10 -19 0 -20 7 -20 170 l0 170 -39 0 c-22 0 -43 -5
-46 -10 -3 -6 -24 -10 -46 -10 -21 0 -39 -4 -39 -10 0 -5 -16 -10 -36 -10 -19
0 -42 -6 -49 -14 -8 -7 -25 -11 -39 -9 l-26 5 0 169 c0 162 -1 169 -20 169
-11 0 -20 5 -20 10 0 6 -6 10 -13 10 -24 0 -75 30 -99 59 -13 15 -28 26 -34
24 -6 -2 -17 3 -23 11 -7 8 -18 13 -25 10 -8 -3 -16 2 -19 10 -4 9 -13 13 -20
10 -8 -3 -17 2 -20 10 -4 9 -16 16 -27 16 -11 0 -20 5 -20 10 0 6 -9 10 -20
10 -11 0 -20 5 -20 10 0 6 -9 10 -20 10 -11 0 -20 5 -20 10 0 6 -13 10 -29 10
-17 0 -33 5 -36 10 -3 6 -24 10 -46 10 -21 0 -39 5 -39 10 0 6 -9 10 -20 10
-11 0 -20 7 -20 15 0 8 -4 15 -10 15 -5 0 -10 -4 -10 -9 0 -13 -59 -41 -87
-41 -12 0 -23 -4 -23 -10 0 -5 -18 -10 -40 -10 -22 0 -40 -4 -40 -10 0 -5 -18
-10 -39 -10 -22 0 -43 -4 -46 -10 -3 -5 -28 -10 -56 -10 -27 0 -49 -4 -49 -10
0 -5 -17 -10 -38 -10 -21 0 -44 -6 -50 -12 -7 -7 -28 -11 -46 -10 -23 2 -35
-2 -39 -12 -4 -9 -11 -16 -18 -16 -6 0 -98 88 -204 195 -152 152 -199 195
-219 195 -14 0 -26 5 -26 10 0 6 -18 10 -39 10 -22 0 -43 5 -46 10 -3 6 -24
10 -46 10 -21 0 -39 5 -39 10 0 6 -18 10 -40 10 -22 0 -40 5 -40 10 0 6 -15
10 -33 10 -34 0 -97 25 -97 38 0 13 -143 8 -147 -5 -3 -7 -13 -13 -24 -13 -10
0 -19 -4 -19 -10 0 -5 -13 -10 -30 -10 -16 0 -30 -4 -30 -10 0 -5 -18 -10 -39
-10 -22 0 -43 -4 -46 -10 -3 -5 -24 -10 -46 -10 -21 0 -39 -4 -39 -10 0 -15
-80 -12 -96 4 -8 8 -14 22 -14 30 0 9 -4 16 -10 16 -5 0 -10 7 -10 15 0 8 -9
30 -20 50 -11 20 -20 42 -20 50 0 13 -28 15 -180 15 l-180 0 0 30 c0 17 5 30
10 30 6 0 10 14 10 30 0 17 6 33 13 36 10 4 13 19 9 54 -3 33 -1 50 7 50 6 0
11 12 11 26 0 23 -3 25 -25 20 -18 -5 -27 -2 -31 9 -4 10 -19 15 -44 15 -22 0
-42 5 -45 10 -3 6 -24 10 -46 10 -21 0 -39 5 -39 10 0 6 -11 10 -25 10 -18 0
-65 -41 -190 -166 -91 -91 -165 -168 -165 -170 0 -2 9 -4 20 -4 11 0 20 -4 20
-10 0 -5 6 -10 13 -10 21 0 113 -49 132 -70 17 -18 31 -20 192 -20 l173 0 0
-39 c0 -22 -5 -43 -10 -46 -5 -3 -10 -17 -10 -30 0 -13 -4 -27 -10 -30 -5 -3
-10 -14 -10 -25 0 -10 -7 -20 -15 -24 -10 -4 -13 -14 -9 -34 10 -48 -47 -98
-63 -56 -4 10 -16 14 -39 12 -18 -1 -39 3 -46 10 -6 6 -29 12 -50 12 -21 0
-38 5 -38 10 0 6 -22 10 -50 10 -27 0 -50 -4 -50 -10 0 -5 -17 -10 -38 -10
-21 0 -44 -6 -50 -12 -7 -7 -28 -11 -46 -10 -21 2 -35 -2 -38 -10 -7 -16 -121
-15 -126 1 -2 6 -12 11 -23 11 -10 0 -19 5 -19 10 0 6 -7 10 -15 10 -8 0 -30
9 -50 20 -37 21 -125 28 -125 10 0 -5 -18 -10 -39 -10 -22 0 -43 -4 -46 -10
-3 -5 -21 -10 -39 -10 -17 0 -38 -6 -44 -12 -7 -7 -28 -11 -46 -10 -23 2 -35
-2 -40 -13 -4 -12 -14 -14 -41 -9 -27 5 -36 3 -41 -11 -6 -14 -15 -15 -54 -10
-38 5 -48 3 -53 -9 -4 -9 -16 -16 -27 -16 -11 0 -20 -4 -20 -10 0 -20 -37 -9
-50 15 -9 17 -19 23 -31 20 -10 -3 -19 1 -23 11 -4 9 -12 14 -21 10 -9 -3 -18
1 -21 9 -4 8 -15 15 -25 15 -10 0 -19 5 -19 10 0 6 -9 10 -20 10 -11 0 -20 5
-20 10 0 6 -7 10 -15 10 -8 0 -24 6 -35 12 -15 10 -22 10 -32 0 -6 -6 -29 -12
-50 -12 -21 0 -38 -4 -38 -10 0 -5 -18 -10 -40 -10 -22 0 -40 -4 -40 -10 0 -5
-17 -10 -39 -10 -22 0 -44 -6 -51 -15 -8 -9 -22 -12 -42 -8 -22 4 -33 2 -40
-10 -6 -11 -22 -17 -44 -17 -27 0 -36 5 -43 23 -5 13 -16 29 -25 36 -9 7 -16
21 -16 30 0 9 -9 23 -20 31 -11 8 -20 21 -20 28 0 8 -16 29 -35 48 -19 18 -35
39 -35 47 0 7 -9 19 -20 27 -21 15 -28 64 -10 75 5 3 10 16 10 29 0 12 5 27
12 34 7 7 11 31 9 56 -2 32 2 45 14 49 11 5 14 14 9 32 -4 18 -2 27 10 31 11
4 16 18 16 44 0 22 4 42 10 45 5 3 10 15 10 26 0 10 5 19 10 19 6 0 10 13 10
29 0 16 5 31 12 33 8 3 11 21 9 50 -1 25 2 49 8 53 6 3 11 24 11 46 0 21 5 39
10 39 6 0 10 18 10 39 0 22 4 43 10 46 6 3 10 24 10 45 0 22 5 40 12 42 8 3
12 19 10 41 -3 27 1 39 12 43 12 5 15 14 10 38 -4 23 -1 36 10 45 25 21 20 70
-9 97 -14 13 -25 30 -25 39 0 8 -4 15 -10 15 -5 0 -10 7 -10 15 0 8 -9 30 -20
50 -11 20 -20 42 -20 50 0 8 -4 15 -10 15 -5 0 -10 8 -10 18 0 10 -9 24 -20
32 -11 8 -20 21 -20 30 0 8 -11 23 -24 34 -19 13 -24 26 -23 52 2 18 8 39 15
46 7 7 12 17 12 24 0 6 7 17 15 24 16 14 45 67 45 84 0 7 9 18 20 26 11 8 20
22 20 32 0 10 5 18 10 18 6 0 10 6 10 13 0 23 31 77 51 90 10 6 19 20 19 29 0
10 9 23 20 30 12 8 20 24 20 39 0 14 9 34 20 44 11 10 20 26 20 37 0 10 5 18
10 18 6 0 10 9 10 20 0 11 5 20 10 20 6 0 10 9 10 19 0 11 4 23 10 26 6 3 10
17 10 29 0 13 7 29 16 37 10 8 14 23 12 41 -3 16 1 33 9 39 7 6 13 20 13 30 0
11 5 19 10 19 6 0 10 14 10 30 0 17 5 30 10 30 6 0 10 22 10 49 0 28 5 53 10
56 6 3 10 24 10 46 0 21 5 39 10 39 6 0 10 18 10 39 0 22 5 43 10 46 6 3 10
24 10 46 0 21 5 39 10 39 6 0 10 17 10 39 0 21 6 44 14 51 8 6 12 18 9 27 -7
17 192 223 215 223 17 0 42 25 42 42 0 19 132 148 152 148 11 0 18 7 18 18 0
10 24 42 54 71 30 30 52 59 50 66 -3 7 2 15 10 18 9 4 13 13 10 22 -4 8 1 17
10 21 9 3 16 15 16 25 0 10 5 19 10 19 6 0 10 8 10 18 0 10 9 24 20 32 11 8
20 19 20 26 0 17 29 70 45 84 8 7 15 18 15 25 0 8 11 22 25 33 14 11 25 27 25
35 0 9 4 19 10 22 5 3 10 18 10 33 0 16 8 34 20 42 11 8 20 22 20 32 0 10 5
18 10 18 6 0 10 8 10 17 0 9 10 27 22 40 19 20 20 26 8 48 -7 14 -21 25 -29
25 -9 0 -23 9 -31 20 -8 11 -19 20 -25 20 -13 0 -139 62 -158 78 -8 7 -16 10
-19 7 -2 -3 -15 6 -28 20 -13 14 -31 25 -40 25 -8 0 -22 9 -30 20 -8 11 -22
20 -32 20 -10 0 -18 5 -18 10 0 6 -9 10 -20 10 -11 0 -20 5 -20 10 0 6 -9 10
-19 10 -11 0 -23 5 -26 10 -4 6 -130 10 -344 10 l-337 0 -159 160 -159 160
-58 0 c-31 0 -60 -5 -63 -10 -3 -6 -24 -10 -46 -10 -21 0 -39 -4 -39 -10 0 -5
-18 -10 -39 -10 -22 0 -43 -4 -46 -10 -3 -5 -24 -10 -46 -10 -21 0 -39 -4 -39
-10 0 -5 -9 -10 -20 -10 -11 0 -20 -4 -20 -10 0 -5 -13 -10 -29 -10 -16 0 -34
-7 -42 -16 -8 -10 -22 -14 -40 -10 -18 3 -32 0 -40 -10 -8 -10 -27 -14 -63
-12 l-51 2 -157 158 c-87 87 -163 158 -170 158 -8 0 -51 -38 -98 -85 -47 -47
-92 -85 -101 -85 -19 0 -76 27 -84 41 -4 5 -10 7 -15 4 -4 -3 -13 2 -20 10 -7
8 -18 15 -24 15 -7 0 -23 11 -36 25 -26 27 -74 55 -97 55 -7 0 -13 5 -13 10 0
6 -6 10 -14 10 -19 0 -96 76 -96 95 0 8 -4 15 -10 15 -5 0 -10 8 -10 19 0 10
-7 24 -15 31 -17 14 -65 108 -65 127 0 7 -4 13 -10 13 -5 0 -10 7 -10 15 0 9
-16 29 -35 46 -24 21 -35 40 -35 58 0 15 -9 33 -20 41 -11 8 -20 19 -20 26 0
17 -29 70 -45 84 -8 7 -15 19 -15 26 0 14 -83 96 -104 103 -20 7 -66 54 -66
69 0 17 -36 51 -67 63 -20 7 -23 16 -23 63 0 30 4 58 10 61 5 3 10 24 10 46 0
25 5 42 15 45 10 4 12 15 8 35 -3 18 0 36 8 47 26 32 39 62 39 87 0 14 5 25
10 25 6 0 10 23 10 50 0 28 5 50 10 50 6 0 10 20 10 45 0 25 5 45 10 45 6 0
10 18 10 40 0 22 5 40 10 40 6 0 10 18 10 39 0 22 4 43 10 46 5 3 10 24 10 46
0 21 5 39 10 39 6 0 10 17 10 39 0 22 6 44 15 51 8 7 12 16 10 21 -3 4 2 12
10 17 24 13 17 88 -8 84 -9 -2 -20 4 -23 13 -3 8 -15 15 -25 15 -10 0 -19 5
-19 10 0 6 -9 10 -20 10 -11 0 -20 5 -20 10 0 6 -9 10 -19 10 -11 0 -31 15
-46 32 -15 18 -33 33 -39 33 -18 2 -49 17 -68 33 -10 8 -18 11 -18 7 0 -4 -8
-2 -17 6 -26 20 -61 39 -74 39 -16 0 -39 26 -39 44 0 9 -4 16 -10 16 -5 0 -10
6 -10 13 0 20 -28 73 -45 87 -8 7 -15 20 -15 29 0 9 -9 22 -20 29 -11 7 -20
21 -20 31 0 10 -7 22 -16 25 -9 3 -14 12 -11 20 3 8 -5 22 -19 32 -13 11 -24
27 -24 36 0 10 -4 18 -10 18 -5 0 -10 13 -10 28 0 16 -9 37 -20 47 -21 19 -29
95 -10 95 6 0 10 18 10 39 0 22 4 43 10 46 6 3 10 24 10 46 0 21 5 39 10 39 6
0 10 17 10 39 0 21 6 44 13 50 8 6 12 23 9 39 -2 17 2 33 11 41 11 8 14 23 10
46 -4 26 -2 36 11 41 11 4 16 18 16 43 0 34 14 50 230 266 204 204 255 265
220 265 -5 0 -10 18 -10 39 0 22 -4 43 -10 46 -5 3 -10 24 -10 46 0 21 -4 39
-10 39 -5 0 -10 16 -10 35 0 40 -41 95 -72 95 -10 0 -18 5 -18 10 0 6 -9 10
-20 10 -11 0 -20 5 -20 10 0 6 -8 10 -18 10 -10 0 -24 9 -32 20 -8 11 -19 20
-26 20 -21 0 -70 29 -92 55 -22 26 -30 75 -12 75 6 0 10 9 10 20 0 11 5 20 10
20 6 0 10 13 10 28 0 17 10 38 25 52 13 12 22 26 20 31 -3 4 6 16 20 27 28 22
32 32 12 32 -23 0 -76 30 -91 52 -8 11 -19 17 -24 14 -6 -3 -19 5 -30 19 -11
14 -26 25 -34 25 -27 0 -50 36 -43 68 4 22 2 31 -11 36 -13 5 -15 14 -11 42 4
25 2 37 -9 41 -7 3 -14 17 -14 32 -1 30 -41 81 -65 81 -8 0 -15 5 -15 10 0 6
-9 10 -19 10 -11 0 -23 5 -26 10 -3 6 -15 10 -26 10 -10 0 -19 5 -19 10 0 6
-7 10 -16 10 -36 0 -63 73 -31 86 8 3 11 17 9 40 -3 24 0 39 9 45 8 5 12 21
11 41 -3 30 6 42 83 117 91 89 106 123 65 149 -11 7 -20 21 -20 32 0 11 -4 20
-10 20 -5 0 -10 9 -10 19 0 13 -8 21 -22 23 -18 2 -23 10 -23 33 0 23 -5 31
-22 33 -13 2 -23 8 -23 13 0 5 -18 9 -40 9 -22 0 -40 5 -40 10 0 6 -18 10 -39
10 -22 0 -43 5 -46 10 -3 6 -19 10 -36 10 l-29 0 0 160 0 160 55 0 c30 0 55 5
55 10 0 6 18 10 40 10 22 0 40 5 40 10 0 6 18 10 39 10 22 0 43 5 46 10 3 6
21 10 39 10 29 0 46 13 122 91 93 95 109 126 63 121 -17 -1 -29 3 -33 13 -3 9
-18 15 -36 15 -16 0 -30 5 -30 10 0 6 -9 10 -20 10 -27 0 -27 50 0 70 11 8 20
26 20 40 0 15 11 37 25 50 13 12 22 26 20 30 -3 4 2 13 10 20 8 7 15 18 15 25
0 6 9 20 20 30 11 10 20 26 20 37 0 10 5 18 10 18 6 0 10 8 10 18 0 10 9 24
20 32 11 8 20 22 20 32 0 10 5 18 10 18 6 0 10 6 10 13 0 17 28 75 40 82 5 3
7 18 4 33 -4 19 0 33 10 41 10 8 16 29 16 52 0 22 5 39 10 39 6 0 10 9 10 20
0 11 5 20 10 20 6 0 10 13 10 29 0 17 4 33 10 36 6 3 10 24 10 45 0 21 6 41
13 44 9 5 9 7 0 12 -7 3 -13 14 -13 25 0 10 -4 19 -10 19 -5 0 -10 8 -10 18 0
11 -9 27 -20 37 -11 10 -20 23 -20 30 0 7 -9 20 -20 30 -21 19 -70 111 -70
132 0 7 -4 13 -10 13 -5 0 -10 9 -10 20 0 11 -4 20 -10 20 -5 0 -10 7 -10 15
0 9 -9 25 -20 37 -12 13 -20 36 -20 54 0 18 -4 36 -10 39 -5 3 -10 19 -10 35
0 16 -7 30 -16 34 -9 3 -14 13 -11 20 3 8 -1 17 -9 20 -8 3 -14 15 -14 26 0
11 -4 20 -10 20 -5 0 -10 9 -10 20 0 11 -9 25 -20 32 -11 7 -20 18 -20 24 0
17 -29 70 -45 84 -8 7 -15 18 -15 24 0 7 -5 17 -11 23 -6 6 -10 66 -10 154 0
138 1 144 20 147 12 2 21 8 21 13 0 5 18 9 40 9 22 0 40 5 40 10 0 6 18 10 39
10 22 0 43 5 46 10 3 5 24 10 46 10 21 0 39 5 39 10 0 6 18 10 40 10 25 0 43
5 46 13 3 9 23 13 62 13 46 -1 60 -5 75 -23 10 -13 27 -23 38 -23 10 0 19 -4
19 -10 0 -5 9 -10 20 -10 11 0 20 -4 20 -10 0 -5 9 -10 20 -10 11 0 20 -4 20
-10 0 -5 9 -10 19 -10 10 0 33 -16 50 -35 26 -30 37 -35 75 -35 30 0 46 5 50
15 4 12 14 14 39 10 28 -5 36 -2 52 19 15 20 29 26 57 26 21 0 38 5 38 10 0 6
18 10 39 10 22 0 43 5 46 10 3 6 28 10 56 10 27 0 49 5 49 10 0 6 18 10 39 10
22 0 43 5 46 10 3 5 23 10 45 10 24 0 40 5 44 15 4 10 14 13 36 9 33 -7 70 16
70 43 0 16 44 63 60 63 6 0 28 16 50 36 l39 36 -130 129 c-94 94 -129 136
-129 154 0 17 6 25 23 27 13 2 22 10 22 21 0 10 7 22 15 27 8 5 11 12 7 16
-10 10 43 64 63 64 8 0 22 9 30 20 8 11 22 20 31 20 9 0 20 7 23 16 4 9 13 14
21 10 9 -3 18 1 22 10 3 8 11 13 18 10 7 -2 21 6 31 20 11 13 26 24 34 24 9 0
22 9 30 20 8 11 19 20 25 20 15 0 114 50 121 61 3 5 10 7 15 3 6 -3 16 2 24
12 7 11 16 16 20 12 3 -3 24 13 46 37 l39 42 0 231 c0 143 -4 233 -10 237 -5
3 -10 28 -10 55 0 34 -4 50 -15 54 -12 4 -14 14 -10 40 4 21 3 36 -5 41 -6 4
-15 18 -21 32 l-9 25 -201 -4 -202 -3 -76 78 c-42 43 -78 85 -79 93 -5 20 26
84 39 84 6 0 9 16 8 35 -2 19 2 40 9 47 6 6 12 29 12 50 0 21 5 38 10 38 6 0
10 22 10 49 0 28 5 53 10 56 6 3 10 19 10 36 l0 29 295 0 295 0 0 255 c0 163
4 255 10 255 6 0 10 9 10 20 0 11 5 20 10 20 6 0 10 9 10 20 0 11 5 20 10 20
6 0 10 9 10 19 0 11 11 28 25 39 14 11 25 27 25 36 0 9 5 16 10 16 6 0 10 6
10 13 0 20 28 73 45 87 8 7 15 19 15 27 0 8 11 24 24 34 17 13 22 25 19 40 -4
14 0 25 11 31 16 9 17 34 15 280 -2 210 1 272 11 278 8 5 11 20 8 39 -3 19 1
36 9 42 7 7 13 32 13 60 0 27 5 49 10 49 6 0 10 12 10 28 0 17 9 34 24 45 20
15 22 24 18 67 -3 34 -1 50 7 50 8 0 11 22 9 73 l-3 72 -197 3 -198 2 0 273
c0 261 1 273 20 287 11 8 20 22 20 32 0 10 5 18 10 18 6 0 10 6 10 13 0 23 31
77 51 90 10 6 19 17 19 23 0 17 29 70 45 84 8 7 15 20 15 29 0 9 9 22 20 29
11 7 20 19 20 27 0 20 56 78 68 71 5 -3 18 6 28 19 10 14 27 25 36 25 10 0 18
5 18 10 0 6 7 10 15 10 8 0 30 9 50 20 20 11 42 20 50 20 8 0 15 5 15 10 0 6
7 10 15 10 9 0 29 16 46 35 19 21 40 35 54 35 13 0 27 5 30 10 4 6 213 10 596
10 386 0 589 -3 589 -10 0 -5 6 -10 14 -10 16 0 249 -231 241 -238 -3 -3 2
-13 11 -23 10 -11 15 -28 12 -44 -3 -15 1 -30 9 -37 9 -7 13 -27 12 -57 -2
-28 1 -46 9 -49 7 -2 12 -17 12 -32 0 -16 5 -32 10 -35 15 -9 10 -117 -6 -132
-7 -7 -19 -13 -27 -13 -7 0 -27 -16 -43 -35 -16 -19 -37 -35 -46 -35 -10 0
-18 -4 -18 -10 0 -5 -9 -10 -20 -10 -11 0 -20 -3 -20 -6 0 -11 29 -34 44 -34
9 0 16 -4 16 -10 0 -5 7 -10 15 -10 8 0 30 -9 50 -20 31 -17 54 -20 165 -20
80 0 130 4 130 10 0 6 -4 10 -10 10 -5 0 -10 14 -10 30 0 17 -4 30 -10 30 -5
0 -10 22 -10 49 0 28 -4 53 -10 56 -5 3 -10 15 -10 26 0 10 -7 19 -15 19 -8 0
-30 9 -50 20 -20 11 -41 20 -47 20 -6 0 -17 8 -24 18 -16 20 -18 72 -4 72 6 0
10 14 10 30 0 17 5 30 10 30 6 0 10 9 10 19 0 10 7 21 15 25 10 4 13 14 9 36
-5 22 -1 36 11 50 16 17 31 20 114 20 l96 0 85 -85 85 -85 67 0 68 0 0 30 c0
17 -4 30 -10 30 -5 0 -10 13 -10 29 0 17 -4 33 -10 36 -5 3 -10 19 -10 36 0
16 -4 29 -10 29 -5 0 -10 18 -10 39 0 22 -4 43 -10 46 -5 3 -10 21 -10 39 0
19 -6 38 -13 44 -15 13 -13 85 2 90 6 2 11 21 11 42 0 21 5 42 10 45 6 3 10
21 10 40 0 19 5 37 10 40 6 3 10 23 10 43 0 27 6 42 24 55 19 15 23 25 20 65
-3 45 -2 49 46 90 66 59 96 54 41 -7 -22 -24 -44 -56 -49 -70 -43 -121 -102
-344 -102 -385 0 -19 18 -101 41 -183 65 -235 65 -233 48 -244 -8 -5 -50 -9
-93 -9 l-80 0 -63 65 c-89 90 -98 95 -169 95 -99 0 -124 -8 -124 -39 0 -15 -4
-31 -8 -36 -14 -15 -35 -122 -29 -139 3 -8 29 -27 56 -41 28 -14 57 -35 65
-48 20 -31 60 -184 60 -232 l1 -40 -127 -3 c-140 -3 -126 -7 -278 76 -41 22
-76 47 -78 54 -4 18 20 39 83 74 28 15 65 39 83 52 36 28 37 38 13 127 -6 22
-15 58 -20 80 -45 198 -41 190 -153 302 l-103 103 -605 0 -605 0 -80 -47 c-44
-25 -82 -49 -85 -52 -3 -3 -27 -17 -55 -31 -144 -71 -163 -92 -286 -310 -29
-52 -66 -115 -81 -139 l-28 -45 0 -237 0 -237 186 -2 c103 0 195 -5 205 -11
27 -14 25 -102 -6 -214 -14 -49 -38 -139 -54 -200 -17 -60 -37 -136 -45 -168
-13 -45 -16 -113 -16 -305 0 -235 -1 -249 -22 -282 -11 -19 -29 -48 -38 -65
-10 -16 -34 -59 -55 -95 -21 -36 -51 -90 -68 -120 -16 -30 -38 -67 -48 -81
-17 -24 -19 -54 -21 -290 l-3 -264 -289 -5 c-243 -4 -290 -7 -297 -20 -4 -8
-19 -60 -33 -115 -13 -55 -32 -127 -42 -160 -9 -33 -18 -69 -21 -80 -3 -15 14
-38 65 -88 l70 -67 199 0 c182 0 201 -2 217 -19 9 -10 32 -80 51 -156 35 -137
35 -140 35 -360 0 -217 0 -222 -22 -242 -19 -17 -141 -90 -328 -196 -19 -10
-47 -28 -62 -38 -14 -11 -29 -19 -32 -19 -10 0 -131 -74 -146 -89 -9 -9 -22
-29 -30 -46 -8 -16 -21 -36 -27 -43 -7 -7 -13 -17 -13 -22 0 -5 54 -63 120
-130 66 -68 120 -130 120 -139 0 -25 -190 -207 -225 -215 -16 -4 -47 -11 -67
-16 -21 -6 -55 -14 -75 -19 -21 -5 -83 -21 -138 -36 -55 -15 -116 -30 -135
-35 -19 -4 -55 -14 -80 -23 -25 -8 -75 -23 -112 -32 l-66 -17 -120 71 c-66 39
-123 71 -126 71 -4 0 -20 10 -36 21 -18 14 -37 20 -52 16 -71 -16 -193 -48
-278 -72 -25 -7 -66 -19 -93 -26 l-47 -13 0 -112 c0 -116 1 -120 60 -214 19
-29 74 -126 100 -175 14 -27 31 -59 37 -70 7 -11 19 -49 28 -83 9 -35 29 -85
44 -110 15 -26 46 -81 69 -123 22 -41 61 -109 86 -149 46 -74 54 -98 38 -116
-5 -5 -19 -47 -32 -94 -56 -212 -71 -259 -98 -310 -14 -25 -46 -81 -72 -125
-58 -96 -84 -142 -122 -215 -16 -30 -34 -59 -39 -64 -15 -16 -10 -29 6 -16 12
10 15 10 15 -3 0 -15 80 -47 116 -47 6 0 22 -8 34 -18 l21 -17 -113 -110 -113
-110 -90 -23 c-49 -13 -106 -28 -125 -33 -19 -6 -48 -13 -65 -16 -52 -10 -55
-16 -55 -142 l0 -117 48 -12 c163 -44 222 -66 222 -82 0 -5 16 -34 35 -64 19
-31 48 -79 65 -108 l29 -53 -89 -90 c-85 -86 -91 -94 -111 -165 -32 -116 -36
-108 69 -171 52 -31 101 -62 110 -70 17 -14 30 -51 51 -136 31 -126 19 -112
162 -194 58 -33 79 -50 79 -62 0 -8 -27 -62 -60 -121 -33 -59 -60 -114 -60
-121 0 -10 70 -65 83 -65 10 0 184 -104 200 -119 9 -9 29 -59 43 -111 14 -52
31 -111 36 -130 28 -98 42 -75 -206 -327 -249 -254 -226 -219 -272 -408 -38
-155 -72 -279 -85 -313 -12 -29 -12 -69 0 -76 5 -3 18 -25 30 -48 12 -24 26
-50 31 -58 11 -16 131 -224 162 -280 25 -45 33 -52 88 -82 69 -38 107 -60 205
-119 50 -29 108 -63 130 -74 50 -25 53 -46 25 -146 -12 -41 -26 -90 -30 -109
-5 -19 -22 -89 -40 -155 -17 -66 -35 -138 -40 -160 -4 -22 -27 -103 -49 -180
-22 -77 -45 -157 -51 -177 -5 -21 -15 -56 -22 -78 l-11 -40 139 -143 c94 -96
150 -162 172 -202 42 -78 82 -148 120 -210 17 -27 42 -70 55 -95 13 -25 34
-63 47 -85 13 -22 29 -52 36 -66 8 -14 26 -32 41 -40 16 -8 66 -37 113 -65 47
-29 110 -66 140 -82 l55 -31 97 97 98 96 174 -173 c162 -161 176 -173 203
-167 80 19 108 27 223 61 163 48 187 54 235 66 22 6 56 14 75 19 95 25 72 37
258 -149 l170 -171 344 -1 343 -1 47 -26 c26 -15 95 -56 155 -92 59 -35 132
-77 160 -92 82 -43 163 -97 169 -112 3 -8 -17 -53 -45 -101 -28 -47 -51 -88
-51 -90 0 -2 -14 -28 -31 -57 -34 -57 -46 -78 -104 -178 -21 -36 -46 -80 -56
-97 -20 -35 -48 -84 -71 -124 -7 -13 -124 -136 -259 -274 -202 -205 -248 -256
-254 -285 -3 -19 -10 -46 -14 -60 -13 -37 -67 -249 -96 -370 -5 -23 -63 -221
-75 -255 -11 -33 -55 -116 -131 -245 -28 -47 -63 -107 -78 -135 -68 -123 -125
-222 -143 -247 -19 -27 -19 -27 5 -65 13 -21 65 -111 116 -200 l92 -163 -21
-72 c-21 -75 -33 -118 -50 -188 -5 -22 -14 -58 -20 -80 -15 -60 -28 -109 -44
-167 -8 -29 -13 -53 -11 -53 2 0 -2 -15 -10 -33 -13 -32 -43 -140 -92 -333
-14 -56 -23 -112 -20 -125 5 -20 110 -179 161 -243 18 -22 27 -21 251 39 171
46 192 50 208 37 6 -5 35 -22 62 -37 28 -15 78 -43 112 -62 62 -34 75 -36 128
-13 18 7 71 21 195 50 19 4 78 20 130 34 52 15 120 32 151 38 55 11 58 10 108
-20 28 -18 54 -32 57 -32 3 0 19 -9 35 -21 31 -22 39 -22 124 0 239 61 223 60
378 17 72 -20 103 -14 110 22 3 15 13 55 22 90 9 34 14 69 11 77 -4 12 -31 15
-146 15 -133 0 -144 1 -188 26 -166 92 -192 109 -192 126 0 11 74 93 170 190
l170 171 42 -7 c24 -4 57 -11 73 -16 17 -5 50 -14 75 -20 162 -41 157 -36 130
-135 -12 -44 -25 -94 -30 -111 -4 -18 -10 -37 -14 -43 -4 -6 -6 -12 -4 -12 2
-1 79 -5 173 -8 l170 -6 46 -83 c26 -45 48 -85 51 -87 4 -4 105 22 258 65 154
44 154 44 233 20 72 -22 302 -84 367 -99 67 -16 82 -28 260 -205 l178 -178 44
5 c23 3 62 10 86 16 23 6 59 15 80 20 20 5 53 14 72 19 19 5 79 22 133 36 53
15 114 32 135 39 32 11 47 10 102 -5 36 -10 83 -23 105 -29 49 -13 60 -19 200
-99 22 -13 49 -28 60 -34 87 -49 221 -132 227 -140 4 -6 8 -76 8 -155 l0 -143
28 5 c15 3 78 19 141 36 82 23 117 29 125 21 7 -7 12 -73 13 -173 1 -89 3
-164 3 -165 0 -2 19 7 43 21 43 25 87 50 167 95 101 57 185 110 191 123 8 16
20 61 51 186 l22 93 -21 37 c-12 21 -31 56 -43 78 -12 22 -42 72 -67 112 -24
40 -43 80 -41 90 3 19 48 34 323 105 77 20 97 17 335 -52 41 -12 115 -32 164
-45 l90 -24 195 -195 196 -196 185 0 c183 0 186 1 233 28 26 15 124 72 219
127 176 102 223 124 340 152 l68 16 2 156 3 156 680 5 c374 3 681 6 683 8 1 1
2 69 2 151 0 120 3 151 15 161 22 18 267 16 303 -3 34 -17 98 -53 137 -77 69
-42 79 -42 157 -1 40 22 100 55 132 75 58 35 63 36 159 36 89 0 105 -3 151
-27 72 -39 154 -91 161 -103 4 -6 6 -75 6 -153 -1 -78 3 -148 7 -155 10 -14
62 -31 125 -39 20 -3 40 -9 43 -14 3 -5 16 -9 29 -9 13 0 34 -4 47 -9 28 -11
242 -71 255 -71 5 0 14 21 21 48 7 26 20 70 28 97 34 116 74 271 74 287 0 10
-24 57 -52 105 -29 49 -60 102 -68 118 -37 73 -41 75 -177 75 -146 0 -147 1
-81 107 22 38 52 88 66 113 13 25 39 72 58 106 33 60 33 61 15 90 -9 16 -34
61 -55 99 -31 57 -79 111 -262 295 -123 124 -224 233 -224 243 0 17 46 106 81
157 9 14 29 48 44 75 101 184 92 173 232 257 243 145 274 160 393 193 52 15
124 35 160 45 36 11 90 25 120 33 46 11 59 19 81 53 25 38 71 119 113 199 12
22 23 42 26 45 3 3 28 42 54 88 36 62 46 86 37 95 -7 7 -11 66 -11 174 0 106
-4 163 -10 163 -7 0 -10 -58 -10 -171 1 -112 -2 -175 -9 -182 -6 -6 -11 -19
-11 -29 0 -10 -4 -18 -10 -18 -5 0 -10 -9 -10 -20 0 -11 -4 -20 -10 -20 -5 0
-10 -8 -10 -18 0 -10 -9 -24 -20 -32 -11 -8 -20 -26 -20 -40 0 -17 -13 -38
-35 -60 -19 -18 -32 -36 -30 -40 3 -4 -2 -13 -10 -20 -8 -7 -13 -16 -10 -20 3
-4 -2 -13 -10 -20 -8 -7 -15 -19 -15 -27 0 -27 -47 -63 -84 -63 -19 0 -38 -4
-41 -10 -3 -5 -19 -10 -36 -10 -16 0 -29 -4 -29 -10 0 -5 -9 -10 -19 -10 -10
0 -22 -7 -25 -16 -5 -13 -15 -15 -42 -11 -25 4 -37 2 -41 -9 -3 -9 -19 -14
-44 -14 -21 0 -39 -4 -39 -10 0 -5 -18 -10 -39 -10 -22 0 -43 -4 -46 -10 -3
-5 -15 -10 -26 -10 -10 0 -19 -4 -19 -10 0 -5 -8 -10 -18 -10 -10 0 -24 -9
-32 -20 -8 -11 -21 -20 -29 -20 -7 0 -24 -12 -37 -26 -13 -14 -29 -22 -34 -19
-6 3 -13 -1 -16 -9 -3 -9 -15 -16 -25 -16 -10 0 -19 -4 -19 -10 0 -5 -6 -10
-13 -10 -18 0 -75 -28 -83 -41 -3 -6 -17 -14 -31 -20 -13 -5 -22 -13 -19 -18
3 -4 -6 -19 -19 -31 -14 -13 -25 -29 -25 -35 0 -7 -9 -20 -20 -30 -11 -10 -20
-25 -20 -34 0 -9 -9 -23 -20 -31 -11 -8 -20 -22 -20 -32 0 -10 -4 -18 -10 -18
-5 0 -10 -9 -10 -20 0 -11 -6 -23 -14 -26 -8 -3 -12 -12 -9 -20 3 -7 -2 -17
-12 -20 -9 -4 -14 -12 -11 -19 2 -7 -11 -28 -30 -46 -62 -60 -61 -62 190 -316
124 -125 223 -230 221 -234 -3 -3 5 -15 16 -25 11 -10 29 -37 39 -60 11 -22
26 -47 35 -54 8 -7 15 -21 15 -31 0 -11 5 -19 10 -19 19 0 10 -21 -20 -47 -16
-13 -30 -33 -30 -44 0 -10 -4 -19 -10 -19 -5 0 -10 -9 -10 -20 0 -11 -4 -20
-10 -20 -5 0 -10 -6 -10 -13 0 -18 -28 -75 -41 -82 -5 -4 -7 -10 -5 -14 3 -4
-10 -23 -29 -41 -26 -25 -35 -42 -35 -67 0 -26 4 -33 20 -33 13 0 20 -7 20
-20 0 -18 8 -20 128 -22 124 -3 127 -4 130 -26 2 -12 12 -28 23 -35 10 -6 19
-19 19 -27 0 -9 9 -22 20 -30 11 -8 20 -22 20 -32 0 -9 5 -20 10 -23 6 -3 10
-19 10 -35 0 -15 4 -30 8 -32 5 -1 12 -15 16 -31 5 -20 2 -29 -9 -33 -10 -4
-15 -19 -15 -44 0 -22 -5 -42 -10 -45 -5 -3 -10 -27 -10 -53 0 -36 -5 -51 -20
-62 -13 -10 -20 -26 -20 -49 0 -47 -24 -71 -71 -71 -21 0 -41 5 -44 10 -3 6
-24 10 -46 10 -21 0 -39 5 -39 10 0 6 -18 10 -40 10 -22 0 -40 5 -40 10 0 6
-9 10 -20 10 -11 0 -23 7 -27 16 -3 9 -13 14 -24 11 -10 -3 -26 1 -36 9 -10 7
-35 14 -55 14 l-38 0 0 143 c0 129 -2 145 -20 165 -11 12 -20 28 -20 37 0 8
-9 15 -20 15 -11 0 -20 5 -20 10 0 6 -8 10 -18 10 -10 0 -24 9 -32 20 -8 12
-26 20 -42 20 -15 0 -30 5 -33 10 -8 13 -262 13 -270 0 -3 -5 -15 -10 -26 -10
-10 0 -19 -4 -19 -10 0 -5 -9 -10 -20 -10 -11 0 -20 -4 -20 -10 0 -5 -9 -10
-20 -10 -11 0 -20 -4 -20 -10 0 -5 -9 -10 -20 -10 -11 0 -20 -4 -20 -10 0 -5
-8 -10 -19 -10 -10 0 -24 -6 -30 -14 -13 -15 -64 -13 -69 3 -2 6 -11 11 -21
11 -9 0 -23 9 -31 20 -8 11 -22 20 -32 20 -10 0 -18 5 -18 10 0 6 -9 10 -19
10 -11 0 -23 5 -26 10 -4 6 -75 10 -182 10 -150 0 -174 -2 -170 -15 8 -20 -11
-29 -28 -15 -13 11 -15 -8 -15 -139 l0 -151 -655 0 c-430 0 -655 -3 -655 -10
0 -5 -9 -10 -20 -10 -19 0 -20 -7 -20 -160 l0 -160 -45 0 c-25 0 -45 -4 -45
-10 0 -5 -18 -10 -39 -10 -22 0 -43 -5 -46 -10 -3 -6 -17 -10 -30 -10 -13 0
-27 -4 -30 -10 -3 -5 -14 -10 -23 -10 -10 0 -23 -9 -30 -20 -7 -11 -21 -20
-31 -20 -10 0 -22 -7 -25 -16 -3 -8 -10 -13 -16 -9 -5 3 -24 -10 -41 -29 -17
-20 -40 -36 -50 -36 -10 0 -19 -4 -19 -10 0 -5 -9 -10 -20 -10 -11 0 -20 -4
-20 -10 0 -5 -9 -10 -20 -10 -11 0 -20 -4 -20 -10 0 -5 -6 -10 -13 -10 -18 0
-75 -28 -82 -41 -4 -5 -84 -9 -183 -9 l-177 0 -32 29 c-18 16 -33 35 -33 42 0
16 -40 59 -55 59 -15 0 -115 99 -115 113 0 15 -41 57 -56 57 -7 0 -36 25 -65
55 -45 48 -57 55 -90 55 -22 0 -39 5 -39 10 0 6 -18 10 -39 10 -22 0 -43 5
-46 10 -3 6 -28 10 -56 10 -27 0 -49 5 -49 10 0 6 -13 10 -30 10 -16 0 -30 5
-30 10 0 6 -9 10 -20 10 -10 0 -23 7 -28 17 -7 12 -18 14 -40 10 -20 -4 -34
-1 -42 8 -17 20 -106 20 -126 0 -8 -8 -22 -11 -31 -8 -9 4 -19 -1 -25 -10 -5
-10 -18 -17 -28 -17 -11 0 -20 -4 -20 -10 0 -5 -18 -10 -40 -10 -22 0 -40 -4
-40 -10 0 -5 -18 -10 -39 -10 -22 0 -43 -4 -46 -10 -3 -5 -19 -10 -36 -10 -22
0 -29 -5 -29 -20 0 -13 -7 -20 -20 -20 -29 0 -25 -22 12 -61 18 -19 32 -39 30
-45 -1 -7 4 -14 13 -17 8 -4 12 -13 9 -20 -3 -8 2 -17 11 -21 10 -4 15 -12 11
-21 -3 -9 1 -18 9 -21 8 -4 15 -15 15 -25 0 -10 5 -19 10 -19 6 0 10 -7 10
-15 0 -8 9 -31 21 -52 13 -24 17 -39 10 -41 -6 -2 -11 -21 -11 -42 0 -21 -4
-42 -10 -45 -5 -3 -10 -24 -10 -46 0 -21 -4 -39 -10 -39 -5 0 -10 -12 -10 -26
0 -29 -49 -84 -75 -84 -8 0 -15 -4 -15 -10 0 -5 -9 -10 -20 -10 -11 0 -20 -4
-20 -10 0 -5 -6 -10 -13 -10 -23 0 -77 -31 -90 -51 -6 -10 -19 -19 -28 -19 -9
0 -24 -9 -34 -20 -10 -11 -26 -20 -37 -20 -17 0 -18 11 -18 140 0 87 -4 140
-10 140 -5 0 -10 9 -10 20 0 17 -7 20 -50 20 -27 0 -50 -4 -50 -10 0 -5 -18
-10 -39 -10 -22 0 -43 -4 -46 -10 -3 -5 -26 -10 -51 -10 l-44 0 0 125 c0 97
-3 125 -13 125 -7 0 -26 14 -42 30 -29 30 -117 80 -142 80 -7 0 -13 5 -13 10
0 6 -9 10 -20 10 -11 0 -20 5 -20 10 0 6 -8 10 -18 10 -10 0 -24 9 -32 20 -8
11 -22 20 -31 20 -9 0 -25 11 -35 25 -10 14 -27 25 -36 25 -10 0 -18 5 -18 10
0 6 -9 10 -20 10 -11 0 -20 5 -20 10 0 6 -13 10 -29 10 -17 0 -33 4 -36 10 -3
5 -24 10 -46 10 -21 0 -39 5 -39 10 0 6 -36 10 -89 10 -50 0 -93 -4 -96 -10
-3 -5 -24 -10 -46 -10 -21 0 -39 -4 -39 -10 0 -5 -18 -10 -40 -10 -22 0 -40
-4 -40 -10 0 -5 -18 -10 -39 -10 -22 0 -43 -4 -46 -10 -3 -5 -23 -10 -45 -10
-26 0 -40 -5 -44 -16 -5 -13 -14 -15 -41 -10 -27 5 -37 3 -41 -9 -3 -8 -14
-15 -24 -15 -10 0 -20 -6 -23 -12 -5 -16 -47 18 -47 39 0 18 -63 80 -86 85
-11 2 -18 11 -18 21 1 9 -5 17 -14 17 -20 0 -52 29 -52 47 0 18 -63 80 -86 85
-11 2 -18 11 -16 21 2 11 -4 17 -16 17 -11 0 -33 16 -49 35 -24 28 -37 35 -66
35 -20 0 -39 5 -42 10 -3 6 -24 10 -46 10 -21 0 -39 5 -39 10 0 6 -18 10 -40
10 -22 0 -40 5 -40 10 0 6 -22 10 -49 10 -28 0 -53 5 -56 10 -3 6 -24 10 -46
10 -21 0 -39 5 -39 10 0 13 -137 13 -145 0 -3 -5 -24 -10 -46 -10 -21 0 -39
-4 -39 -10 0 -5 -18 -10 -40 -10 -22 0 -40 -4 -40 -10 0 -5 -25 -10 -55 -10
-30 0 -55 -4 -55 -10 0 -19 -39 -10 -65 15 -14 14 -25 30 -25 36 0 14 -22 51
-49 82 l-25 27 -143 0 -143 0 0 35 c0 19 5 35 10 35 6 0 10 9 10 20 0 11 5 20
10 20 6 0 10 13 10 29 0 17 5 33 10 36 15 9 12 55 -3 55 -8 0 -22 9 -32 20
-10 11 -30 20 -45 20 -16 0 -30 7 -34 16 -4 10 -14 14 -26 11 -11 -3 -27 1
-34 9 -8 8 -26 14 -40 14 -14 0 -26 5 -26 10 0 6 -18 10 -39 10 -22 0 -43 5
-46 10 -16 27 -95 -16 -95 -51 0 -17 -30 -49 -47 -49 -21 0 -123 -107 -123
-130 0 -12 -7 -20 -18 -20 -22 0 -132 -103 -132 -123 0 -9 -5 -19 -10 -22 -18
-11 -11 -35 10 -35 11 0 25 -9 32 -20 7 -11 20 -20 29 -20 9 0 22 -7 29 -15 7
-9 32 -25 55 -35 23 -10 47 -26 54 -34 30 -36 72 -46 193 -46 l118 0 0 -51 c0
-61 -21 -90 -51 -71 -10 7 -35 12 -54 12 -19 0 -35 5 -35 10 0 6 -18 10 -40
10 -22 0 -40 5 -40 10 0 13 -47 13 -55 0 -3 -5 -24 -10 -46 -10 -21 0 -39 -4
-39 -10 0 -5 -17 -10 -39 -10 -22 0 -44 -6 -51 -15 -7 -9 -21 -13 -30 -10 -9
3 -23 -1 -30 -10 -17 -21 -53 -19 -75 5 -19 21 -111 70 -132 70 -7 0 -13 5
-13 10 0 13 -67 13 -75 0 -3 -5 -24 -10 -46 -10 -21 0 -39 -4 -39 -10 0 -5
-18 -10 -39 -10 -22 0 -43 -4 -46 -10 -3 -5 -21 -10 -39 -10 -19 0 -39 -7 -46
-15 -7 -9 -21 -13 -35 -9 -15 4 -24 0 -28 -10 -4 -9 -16 -16 -27 -16 -11 0
-20 -4 -20 -10 0 -5 -18 -10 -40 -10 -22 0 -40 -4 -40 -10 0 -6 -28 -10 -65
-10 -37 0 -65 4 -65 10 0 6 -8 10 -19 10 -10 0 -32 16 -48 35 -17 19 -38 35
-47 35 -9 0 -16 5 -16 10 0 6 -9 10 -19 10 -11 0 -23 5 -26 10 -8 13 -132 13
-140 0 -3 -5 -24 -10 -46 -10 -21 0 -39 -4 -39 -10 0 -5 -16 -10 -36 -10 -19
0 -42 -6 -50 -14 -7 -8 -23 -12 -34 -9 -12 3 -22 -1 -26 -11 -3 -9 -15 -16
-25 -16 -10 0 -19 -4 -19 -10 0 -16 -32 -12 -52 7 -10 9 -18 24 -18 35 0 10
-4 18 -10 18 -5 0 -10 8 -10 18 0 9 -11 26 -25 36 -13 10 -22 23 -19 28 3 5
-6 20 -20 33 -14 13 -26 31 -26 39 0 8 -6 16 -12 19 -10 4 -10 7 0 18 6 7 12
34 12 60 0 29 5 49 12 51 8 3 12 19 10 41 -3 26 1 39 12 43 11 4 13 14 9 35
-4 21 0 35 12 49 13 14 16 28 11 50 -4 22 -1 32 9 36 10 4 15 20 15 45 0 21 5
39 10 39 6 0 10 25 10 55 0 30 5 55 10 55 6 0 10 9 10 20 0 11 5 20 10 20 6 0
10 13 10 29 0 17 5 33 10 36 6 3 10 21 10 40 0 19 4 37 10 40 5 3 10 24 10 46
0 23 5 42 13 45 8 3 11 17 9 37 -2 22 2 38 12 46 10 9 13 22 9 43 -4 22 -2 33
10 40 25 13 21 51 -8 72 -14 10 -25 27 -25 37 0 11 -4 19 -10 19 -5 0 -10 9
-10 20 0 11 -4 20 -10 20 -5 0 -10 8 -10 18 0 10 -12 29 -26 43 -14 13 -34 43
-45 66 -10 23 -24 45 -29 48 -6 4 -8 10 -5 15 3 4 -2 13 -10 20 -19 16 -19 40
1 68 9 13 13 29 10 37 -2 7 2 19 10 25 8 7 14 21 14 31 0 11 5 19 10 19 6 0
10 9 10 20 0 11 5 20 10 20 6 0 10 9 10 20 0 13 7 20 20 20 11 0 20 6 20 13 0
16 41 99 60 122 7 8 9 15 5 15 -5 0 -2 8 6 18 20 25 39 60 39 73 0 6 14 24 30
39 17 15 30 35 30 44 0 9 5 16 10 16 6 0 10 6 10 14 0 13 14 43 35 76 5 8 8
29 6 46 -1 21 3 33 14 38 12 4 14 14 9 41 -5 27 -3 36 11 41 12 5 15 16 13 40
-1 18 3 39 10 46 6 6 12 22 12 34 0 13 5 26 10 29 6 3 10 15 10 26 0 10 5 19
10 19 6 0 10 22 10 49 0 28 4 53 10 56 5 3 10 19 10 36 0 16 5 29 10 29 6 0
10 22 10 49 0 28 5 53 10 56 6 3 10 21 10 39 0 19 7 39 15 46 8 7 12 16 10 21
-7 10 31 49 48 49 16 0 130 114 121 122 -7 8 32 48 48 48 17 0 118 101 118
117 0 16 36 53 52 53 19 0 98 82 98 102 0 10 5 18 10 18 6 0 10 9 10 20 0 11
5 20 10 20 6 0 10 9 10 20 0 11 7 23 16 27 8 3 13 11 10 19 -3 7 11 26 30 42
19 16 34 34 34 40 0 6 9 27 20 47 11 20 20 42 20 50 0 8 5 15 10 15 6 0 10 9
10 20 0 11 5 20 10 20 6 0 10 9 10 19 0 10 7 22 16 25 8 3 12 11 9 17 -4 6 9
25 29 44 20 18 36 40 36 49 0 9 5 16 10 16 6 0 10 6 10 13 0 20 28 73 45 87 8
7 15 22 15 34 -1 26 -46 80 -60 71 -6 -3 -13 1 -16 9 -3 9 -12 16 -19 16 -18
0 -71 28 -85 45 -7 8 -18 15 -25 15 -6 0 -20 9 -30 20 -10 11 -26 20 -35 20
-10 0 -20 7 -24 15 -3 8 -12 12 -19 9 -8 -3 -17 2 -21 11 -4 10 -12 15 -21 11
-9 -3 -18 1 -21 9 -4 8 -15 15 -25 15 -10 0 -19 5 -19 10 0 6 -7 10 -16 10 -9
0 -29 14 -44 30 -15 17 -35 30 -43 30 -9 0 -19 5 -22 10 -4 6 -131 10 -350 10
-302 0 -344 2 -349 16 -3 8 -10 12 -16 9 -6 -3 -82 66 -169 154 -159 161 -159
161 -204 161 -25 0 -49 -4 -52 -10 -3 -5 -17 -10 -30 -10 -13 0 -27 -4 -30
-10 -3 -5 -24 -10 -46 -10 -21 0 -39 -4 -39 -10 0 -5 -9 -10 -20 -10 -11 0
-20 -4 -20 -10 0 -5 -17 -10 -39 -10 -22 0 -44 -6 -51 -15 -8 -9 -22 -12 -41
-8 -22 4 -33 1 -43 -12 -10 -14 -21 -17 -45 -12 -24 5 -33 3 -38 -9 -4 -11
-17 -15 -48 -13 -24 2 -50 -2 -57 -9 -12 -9 -46 21 -183 158 -112 113 -175
170 -189 170 -14 0 -53 -32 -106 -85 -47 -47 -90 -85 -96 -85 -6 0 -17 7 -24
15 -7 8 -16 13 -20 10 -4 -3 -13 2 -20 10 -7 8 -16 13 -20 10 -4 -3 -13 2 -20
10 -7 8 -21 15 -31 15 -11 0 -19 5 -19 10 0 6 -9 10 -20 10 -11 0 -20 5 -20
10 0 6 -7 10 -15 10 -20 0 -115 94 -115 114 0 9 -4 16 -10 16 -5 0 -10 9 -10
20 0 11 -9 25 -20 32 -11 7 -20 20 -20 29 0 9 -9 24 -20 34 -11 10 -20 24 -20
30 0 7 -7 18 -15 25 -8 7 -13 16 -10 20 3 4 -2 13 -10 20 -8 7 -15 18 -15 25
0 6 -9 20 -20 30 -11 10 -20 26 -20 37 0 10 -4 18 -10 18 -5 0 -10 9 -10 20 0
11 -4 20 -10 20 -5 0 -10 8 -10 17 0 9 -7 25 -16 35 -9 9 -26 37 -38 60 -11
23 -32 48 -45 54 -32 16 -131 115 -131 132 0 18 -51 61 -72 62 -19 0 -26 30
-8 30 6 0 10 18 10 39 0 22 5 41 12 43 8 3 12 18 10 40 -2 22 2 39 12 47 10 9
13 22 9 43 -4 23 -2 33 11 40 15 8 17 18 11 54 -5 35 -3 45 9 50 9 3 16 12 16
20 0 7 9 29 20 49 12 21 20 54 20 80 0 25 5 45 10 45 6 0 10 18 10 39 0 22 4
43 10 46 5 3 10 24 10 46 0 21 5 39 10 39 6 0 10 17 10 39 0 21 6 44 14 50 7
6 11 22 8 36 -2 14 2 32 9 41 8 9 13 43 14 80 0 53 -2 64 -16 64 -9 0 -25 11
-35 25 -10 14 -25 23 -32 20 -7 -2 -15 2 -18 10 -4 8 -15 15 -25 15 -10 0 -19
5 -19 10 0 6 -6 10 -14 10 -8 0 -40 14 -71 30 -31 17 -61 30 -66 30 -5 0 -23
16 -40 35 -17 19 -35 33 -39 30 -4 -3 -13 2 -20 10 -7 8 -19 15 -27 15 -19 0
-63 45 -63 65 0 8 -4 15 -10 15 -5 0 -10 6 -10 13 0 18 -28 75 -41 82 -5 4 -7
10 -4 15 3 4 -2 13 -10 20 -7 6 -12 17 -9 24 3 8 -2 16 -10 19 -9 4 -16 14
-16 23 0 9 -14 29 -30 44 -17 15 -30 35 -30 44 0 9 -4 16 -10 16 -5 0 -10 9
-10 20 0 11 -4 20 -10 20 -13 0 -13 67 0 75 6 3 10 24 10 46 0 21 5 39 10 39
6 0 10 9 10 20 0 11 5 20 10 20 6 0 10 13 10 29 0 17 4 33 10 36 5 3 10 21 10
40 0 19 4 37 10 40 5 3 10 23 10 45 0 24 5 40 14 43 11 4 13 16 9 39 -3 24 0
38 11 47 9 7 16 19 16 25 0 7 14 25 30 41 17 16 30 37 30 47 0 10 7 18 17 18
23 0 153 129 153 152 0 11 7 18 18 18 18 0 132 108 132 125 1 17 48 65 65 65
17 0 21 25 5 35 -6 3 -10 23 -10 43 0 26 -6 42 -20 52 -14 10 -20 26 -20 51 0
20 -7 42 -15 49 -9 8 -12 22 -8 42 4 23 2 33 -11 40 -13 7 -16 17 -12 34 5 17
2 24 -7 24 -29 0 -77 32 -77 51 0 12 -7 19 -20 19 -11 0 -20 5 -20 10 0 6 -6
10 -14 10 -8 0 -40 14 -71 30 -31 17 -63 30 -71 30 -21 0 -17 44 6 60 11 8 20
22 20 31 0 9 9 24 20 34 11 10 20 24 20 30 0 7 7 18 15 25 8 7 13 16 10 20 -3
4 2 13 10 20 17 14 20 46 5 55 -5 3 -10 15 -10 26 0 10 -7 19 -15 19 -8 0 -30
9 -50 20 -20 11 -42 20 -50 20 -8 0 -15 5 -15 10 0 6 -8 10 -18 10 -15 0 -46
34 -47 52 0 4 -6 13 -12 19 -7 7 -13 28 -13 45 0 18 -4 36 -10 39 -6 3 -10 23
-10 43 0 31 -8 45 -44 80 -24 23 -51 42 -60 42 -9 0 -16 5 -16 10 0 6 -9 10
-20 10 -10 0 -23 6 -27 13 -4 6 -15 12 -23 12 -8 0 -16 10 -18 23 -2 14 -10
22 -23 22 -10 0 -19 7 -19 15 0 8 5 15 10 15 6 0 10 18 10 40 0 22 5 40 10 40
6 0 10 8 10 19 0 10 7 25 16 32 9 7 20 23 25 36 5 14 17 23 30 23 14 0 19 5
16 14 -3 8 18 36 49 67 30 29 54 58 54 65 0 6 -9 19 -20 29 -11 10 -20 30 -20
44 0 15 -8 31 -20 39 -11 7 -20 21 -20 31 0 10 -7 22 -16 25 -8 3 -13 10 -9
16 3 5 -12 28 -33 49 -29 29 -45 38 -61 34 -14 -3 -23 0 -27 11 -3 9 -14 16
-24 16 -11 0 -22 5 -25 10 -3 6 -17 10 -30 10 -13 0 -27 5 -30 10 -3 6 -19 10
-36 10 l-29 0 0 100 0 100 34 0 c31 0 56 9 96 35 8 5 29 8 46 6 22 -1 33 3 38
15 5 13 14 15 42 11 26 -4 37 -2 41 9 3 9 15 14 28 12 24 -3 55 17 55 35 0 15
71 87 85 87 13 0 74 65 92 96 10 19 7 26 -23 55 -28 27 -41 33 -69 30 -25 -2
-37 2 -41 13 -4 9 -14 15 -23 14 -29 -5 -24 36 9 67 16 16 30 34 30 41 0 6 6
17 14 24 8 6 13 17 10 24 -3 8 2 16 11 20 10 4 15 12 11 21 -3 9 1 18 9 21 8
4 15 15 15 25 0 10 5 19 10 19 6 0 10 9 10 20 0 11 5 20 10 20 6 0 10 8 10 18
0 10 12 29 26 43 14 13 34 43 45 66 10 23 23 44 28 47 5 3 7 25 4 48 -5 32 -2
44 12 54 13 9 16 20 11 40 -5 18 -2 32 10 45 12 13 15 29 11 54 -4 23 -1 40 9
49 8 8 14 22 14 30 0 9 5 16 10 16 6 0 10 17 10 38 0 26 -6 42 -20 52 -11 8
-20 22 -20 32 0 10 -4 18 -10 18 -5 0 -10 9 -10 20 0 11 -7 23 -16 27 -8 3
-13 11 -10 19 3 7 -2 18 -10 24 -8 7 -14 18 -14 25 0 6 -9 20 -20 30 -11 10
-20 23 -20 30 0 7 -9 20 -20 30 -11 10 -20 25 -20 33 0 8 -10 23 -22 34 -16
14 -22 28 -19 49 1 19 -4 38 -14 49 -12 13 -15 28 -11 44 3 14 2 28 -4 31 -6
3 -19 26 -30 50 -11 24 -31 55 -45 69 -14 14 -25 32 -25 41 0 8 -4 15 -10 15
-5 0 -10 9 -10 20 0 11 -4 20 -10 20 -5 0 -10 7 -10 15 0 17 -17 50 -39 78 -8
9 -10 17 -6 17 4 0 0 8 -9 19 -14 15 -16 35 -14 107 3 84 4 89 26 92 12 2 22
8 22 13 0 5 18 9 40 9 22 0 40 5 40 10 0 6 18 10 39 10 22 0 43 5 46 10 3 6
24 10 46 10 21 0 39 5 39 10 0 6 9 10 19 10 10 0 21 7 25 15 3 10 19 15 43 15
31 0 44 -6 68 -35 17 -19 38 -35 48 -35 9 0 17 -4 17 -10 0 -5 9 -10 20 -10
11 0 20 -4 20 -10 0 -5 6 -10 14 -10 8 0 40 -13 71 -30 57 -30 145 -42 145
-20 0 6 18 10 39 10 22 0 43 5 46 10 3 6 24 10 46 10 21 0 39 5 39 10 0 6 18
10 40 10 22 0 40 5 40 10 0 6 18 10 39 10 22 0 43 5 46 10 3 6 28 10 56 10 27
0 49 5 49 10 0 6 13 10 29 10 16 0 34 6 40 14 7 8 20 12 30 9 9 -2 23 3 30 11
8 9 22 16 32 16 30 0 86 37 142 93 134 137 128 129 112 161 -8 15 -15 32 -15
37 0 15 -106 117 -126 121 -11 2 -18 11 -16 20 1 9 -9 25 -23 36 -18 15 -25
29 -25 55 0 20 5 39 10 42 6 3 10 15 10 26 0 12 7 19 19 19 11 0 23 5 26 10 3
6 13 10 22 10 8 0 24 11 35 25 11 14 25 25 32 25 7 0 21 9 31 20 10 11 26 20
37 20 10 0 18 5 18 10 0 6 9 10 20 10 11 0 20 5 20 10 0 6 9 10 20 10 11 0 20
5 20 10 0 6 9 10 20 10 11 0 20 5 20 10 0 6 9 10 19 10 11 0 28 11 39 25 11
14 27 25 36 25 9 0 21 9 28 20 7 11 18 20 25 20 7 0 28 9 48 20 20 11 40 20
46 20 6 0 17 6 25 14 11 12 14 62 14 270 0 159 -4 257 -10 261 -5 3 -10 23
-10 45 0 26 -5 40 -16 44 -13 5 -15 15 -11 41 4 26 2 37 -10 44 -10 5 -14 16
-10 30 3 15 -2 27 -19 40 -13 10 -24 26 -24 35 0 14 -24 16 -208 16 -196 0
-208 1 -220 20 -7 11 -21 20 -32 20 -18 0 -24 10 -21 32 0 4 -11 16 -24 26
-19 15 -25 29 -25 61 0 23 5 41 10 41 6 0 10 18 10 40 0 27 5 43 15 46 10 4
13 14 9 30 -4 17 -1 26 10 30 9 3 16 14 16 24 0 11 5 22 10 25 6 3 10 24 10
46 0 37 12 51 25 29 4 -6 100 -10 256 -10 159 0 249 4 249 10 0 6 14 10 30 10
l30 0 0 275 c0 177 4 275 10 275 6 0 10 9 10 20 0 11 5 20 10 20 6 0 10 8 10
19 0 10 16 32 36 49 20 17 33 36 29 41 -3 6 1 14 9 17 9 3 16 12 16 20 0 7 9
29 20 49 11 20 20 42 20 50 0 8 5 15 10 15 6 0 10 9 10 20 0 11 5 20 10 20 6
0 10 7 10 16 0 9 14 28 31 43 l31 27 -2 291 c-1 253 1 292 15 303 11 9 14 22
10 40 -4 18 -1 31 10 40 9 7 15 28 15 51 0 22 5 39 10 39 6 0 10 18 10 39 0
22 5 43 10 46 6 3 10 24 10 46 0 21 5 39 10 39 6 0 10 45 10 116 0 100 -2 115
-15 110 -9 -3 -18 1 -21 9 -5 13 -36 15 -185 15 l-179 0 0 215 c0 137 4 215
10 215 6 0 10 9 10 20 0 11 5 20 10 20 6 0 10 7 10 15 0 20 19 53 49 88 14 15
21 27 16 27 -5 0 2 12 16 28 30 34 49 67 49 87 0 8 5 15 10 15 6 0 10 9 10 20
0 11 5 20 10 20 6 0 10 8 10 18 0 26 61 72 95 72 8 0 15 5 15 10 0 6 9 10 20
10 11 0 20 5 20 10 0 6 8 10 18 10 10 0 31 14 47 30 16 17 34 30 41 30 6 0 17
7 24 15 7 8 16 13 20 10 5 -3 11 -1 15 4 3 5 19 17 37 25 27 14 106 16 624 16
464 0 593 -3 596 -12 3 -7 13 -13 24 -13 12 0 20 -8 22 -22 2 -13 10 -23 18
-23 18 0 64 -44 64 -61 0 -7 16 -28 36 -47 29 -28 35 -41 32 -64 -3 -16 1 -33
9 -39 7 -6 13 -29 13 -50 0 -22 5 -39 10 -39 6 0 10 -16 10 -35 0 -19 9 -50
20 -70 33 -59 27 -79 -32 -109 -29 -14 -58 -26 -65 -26 -7 0 -13 -4 -13 -10 0
-5 -9 -10 -20 -10 -13 0 -20 -7 -20 -20 0 -13 -7 -20 -20 -20 -11 0 -20 -6
-20 -13 0 -17 67 -87 83 -87 8 0 22 -9 32 -20 10 -11 23 -20 30 -20 7 0 20 -9
30 -20 10 -11 23 -20 30 -20 6 0 16 -5 22 -11 6 -6 68 -10 159 -10 143 0 149
1 152 20 2 14 11 21 25 22 12 0 16 3 10 6 -8 3 -13 24 -13 53 0 27 -4 52 -10
55 -5 3 -10 24 -10 46 0 21 -4 39 -10 39 -5 0 -10 12 -10 27 0 19 -14 42 -47
75 -26 26 -53 48 -61 48 -16 0 -42 24 -42 39 0 6 5 11 10 11 6 0 10 18 10 39
0 22 5 43 10 46 6 3 10 15 10 26 0 17 8 19 84 19 l84 0 73 -75 c40 -41 81 -75
91 -75 10 0 18 -4 18 -10 0 -6 28 -10 65 -10 57 0 69 3 90 25 21 20 25 34 25
80 0 30 -4 55 -10 55 -5 0 -10 18 -10 39 0 22 -4 43 -10 46 -5 3 -10 24 -10
46 0 21 -4 39 -10 39 -5 0 -10 22 -10 49 0 29 -6 53 -14 60 -16 13 -13 84 3
89 6 2 11 26 11 52 0 27 5 52 10 55 6 3 10 24 10 46 0 21 5 39 10 39 6 0 10
18 10 39 0 22 5 43 10 46 6 3 10 16 10 28 0 15 31 54 91 115 87 88 109 104
109 82 0 -5 9 -10 20 -10 11 0 20 -4 20 -10 0 -5 9 -10 20 -10 11 0 20 -4 20
-10 0 -5 6 -10 13 -10 18 0 75 -28 82 -41 4 -5 10 -7 15 -4 4 3 13 -2 20 -10
7 -8 18 -15 24 -15 7 0 23 -11 36 -25 42 -45 110 -69 125 -45 3 6 24 10 46 10
21 0 39 5 39 10 0 6 18 10 39 10 22 0 43 5 46 10 3 6 17 10 30 10 13 0 27 5
30 10 3 6 19 10 35 10 16 0 30 7 34 16 5 13 15 15 40 11 25 -4 36 -1 40 9 4
11 29 14 115 14 l110 0 34 -35 c19 -19 41 -35 51 -35 9 0 16 -8 16 -17 0 -10
45 -63 101 -118 55 -55 108 -116 116 -135 9 -19 23 -43 31 -52 8 -10 11 -18 7
-18 -4 0 -1 -8 7 -17 8 -10 21 -33 29 -50 8 -18 20 -33 27 -33 7 0 15 -7 18
-15 4 -10 14 -13 28 -9 14 3 27 -1 35 -10 17 -21 107 -22 127 -2 20 21 17 59
-6 76 -11 8 -20 22 -20 32 0 10 -4 18 -10 18 -5 0 -10 6 -10 13 0 29 -32 77
-51 77 -10 0 -19 6 -19 14 0 8 -13 40 -30 71 -16 31 -30 61 -30 66 0 4 -78 86
-172 181 l-173 173 -230 -6 -230 -5 215 -2 215 -2 170 -172 c94 -95 179 -189
190 -208 10 -19 30 -53 44 -75 25 -38 72 -122 108 -192 9 -18 13 -36 10 -40
-11 -11 -130 17 -149 34 -16 14 -137 211 -147 238 -2 6 -60 67 -129 138 l-127
127 -147 0 c-141 0 -203 -9 -283 -40 -16 -6 -30 -10 -30 -9 0 3 -76 -15 -130
-31 -96 -28 -106 -25 -292 89 -61 37 -128 76 -148 85 l-37 18 -31 -29 c-18
-15 -35 -34 -40 -40 -11 -17 -37 -17 -37 0 0 17 90 107 106 107 7 0 16 -4 19
-10 3 -5 15 -10 26 -10 10 0 19 -4 19 -10 0 -5 9 -10 20 -10 11 0 20 -4 20
-10 0 -5 9 -10 20 -10 11 0 20 -4 20 -10 0 -5 8 -10 19 -10 10 0 32 -16 48
-35 17 -19 38 -35 47 -35 9 0 16 -4 16 -10 0 -5 9 -10 20 -10 11 0 20 -4 20
-10 0 -5 9 -10 19 -10 11 0 23 -4 26 -10 3 -5 28 -10 56 -10 27 0 49 5 49 10
0 6 18 10 39 10 22 0 43 5 46 10 3 6 24 10 46 10 21 0 39 5 39 10 0 6 18 10
40 10 22 0 40 5 40 10 0 6 70 10 190 10 l189 0 131 -132 c71 -73 130 -138 130
-145 0 -6 5 -15 10 -18 6 -3 10 -14 10 -23 0 -10 9 -23 20 -30 11 -7 20 -21
20 -32 0 -11 5 -20 10 -20 6 0 10 -7 10 -16 0 -9 11 -25 25 -36 14 -11 25 -28
25 -39 0 -14 7 -19 30 -19 17 0 30 -4 30 -10 0 -5 9 -10 20 -10 24 0 26 13 5
30 -15 12 -65 107 -65 123 0 5 -11 18 -25 29 -14 11 -25 25 -25 32 0 7 -9 21
-20 31 -11 10 -20 31 -20 47 0 18 -5 28 -15 28 -19 0 -91 70 -87 84 4 12 -69
86 -85 86 -17 0 -83 65 -83 82 0 6 -12 25 -27 40 l-27 28 -257 0 c-161 0 -260
4 -264 10 -3 6 -24 10 -46 10 -21 0 -39 5 -39 10 0 6 -15 10 -33 10 -19 0 -48
7 -65 16 -25 12 -32 22 -32 45 0 16 -4 29 -10 29 -5 0 -10 8 -10 18 0 10 -9
24 -20 32 -11 8 -20 22 -20 32 0 10 -4 18 -10 18 -5 0 -10 8 -10 18 0 11 -9
27 -20 37 -11 10 -20 24 -20 30 0 7 -6 18 -13 24 -8 6 -13 21 -12 33 2 23 3
23 168 26 155 2 167 4 167 21 0 10 7 24 15 31 8 7 13 16 10 20 -3 5 6 17 20
28 14 11 25 24 25 30 0 6 -36 47 -80 91 -58 59 -87 81 -105 81 -14 0 -25 -5
-25 -11 0 -7 -15 -10 -40 -7 -26 2 -41 -1 -44 -9 -3 -7 -10 -13 -15 -13 -6 0
-9 86 -8 230 2 241 1 245 -42 233 -13 -3 -29 1 -39 10 -15 13 -48 17 -171 19
-134 3 -155 5 -165 20 -8 13 -8 23 2 38 6 11 12 33 12 49 0 17 5 33 10 36 6 3
10 15 10 26 0 10 5 19 10 19 6 0 10 13 10 29 0 16 5 31 12 33 8 3 11 23 9 56
-2 41 1 52 13 52 8 0 31 9 51 20 20 11 41 20 48 20 7 0 18 9 25 20 7 11 21 20
31 20 10 0 21 7 25 15 3 8 12 12 19 9 8 -3 17 2 21 11 4 10 12 15 21 11 9 -3
18 1 21 9 7 17 44 21 44 5 0 -5 9 -10 20 -10 11 0 20 -7 20 -15 0 -13 11 -15
61 -12 36 2 64 8 69 16 4 8 12 11 18 8 5 -4 17 2 27 13 18 19 110 70 128 70
27 0 49 71 27 85 -5 3 -10 15 -10 26 0 10 -4 19 -10 19 -5 0 -10 7 -10 16 0 8
-13 26 -30 40 -29 25 -60 76 -60 101 0 7 -4 13 -10 13 -5 0 -10 9 -10 20 0 11
-4 20 -10 20 -5 0 -10 6 -10 13 0 20 -28 73 -45 87 -8 7 -15 18 -15 25 0 6 -9
20 -20 30 -23 21 -50 71 -50 93 0 9 -6 12 -15 8 -9 -3 -18 1 -21 9 -4 8 -12
15 -19 15 -23 0 -74 31 -98 60 -14 16 -27 27 -30 24 -5 -6 -41 12 -69 35 -10
8 -18 10 -18 6 0 -4 -8 -2 -17 6 -10 8 -31 21 -46 29 -22 11 -27 19 -23 36 4
13 0 27 -10 35 -11 9 -14 23 -11 45 4 23 1 34 -10 38 -10 4 -14 17 -11 43 2
22 -2 38 -10 41 -7 2 -12 20 -12 42 0 21 -4 42 -10 45 -5 3 -10 15 -10 26 0
10 -4 19 -10 19 -5 0 -10 14 -10 30 l0 30 -206 0 -206 0 3 -222 c3 -226 -1
-247 -34 -213 -9 8 -31 15 -51 15 -19 0 -38 5 -41 10 -3 6 -17 10 -31 10 l-24
0 0 280 c0 261 1 282 20 315 11 20 20 41 20 48 0 7 9 19 20 27 11 8 20 22 20
32 0 10 5 18 10 18 6 0 10 9 10 19 0 11 12 29 26 40 14 11 23 25 19 31 -3 5 1
13 10 16 9 4 14 13 11 20 -3 7 -1 16 4 19 11 7 60 106 60 122 0 7 9 13 19 13
11 0 23 5 26 10 10 16 75 12 81 -5z m8870 -789 c8 -8 14 -22 14 -30 0 -9 5
-16 10 -16 6 0 10 -9 10 -20 0 -11 3 -20 8 -20 4 0 15 -11 24 -24 16 -23 16
-25 -1 -45 -10 -12 -26 -21 -35 -21 -9 0 -16 -4 -16 -10 0 -5 -7 -10 -16 -10
-25 0 -49 -29 -35 -43 6 -6 11 -21 11 -33 0 -13 5 -26 10 -29 6 -3 10 -15 10
-26 0 -14 7 -19 29 -19 17 0 33 -4 36 -10 3 -5 17 -10 30 -10 13 0 27 5 30 10
3 6 24 10 46 10 21 0 39 5 39 10 0 6 18 10 39 10 22 0 41 4 43 9 5 14 116 17
130 3 7 -7 17 -12 23 -12 6 0 23 -13 38 -28 25 -26 27 -34 27 -121 0 -95 -9
-121 -45 -121 -8 0 -18 -7 -21 -15 -4 -8 -15 -15 -25 -15 -10 0 -19 -4 -19
-10 0 -5 -8 -10 -18 -10 -10 0 -29 -12 -43 -26 l-24 -26 23 -18 c12 -10 22
-23 22 -29 0 -13 19 -48 39 -73 8 -10 24 -18 37 -18 13 0 26 -4 29 -10 3 -5
24 -10 46 -10 21 0 39 -4 39 -10 0 -5 7 -10 16 -10 30 0 44 -27 44 -84 0 -55
0 -56 43 -76 23 -11 52 -28 64 -39 l23 -19 -30 -57 c-24 -45 -30 -70 -30 -118
0 -42 -5 -66 -17 -79 -17 -19 -73 -25 -73 -8 0 6 -18 10 -39 10 -24 0 -41 5
-44 14 -4 9 -14 12 -27 9 -25 -7 -80 41 -80 69 0 10 -4 18 -10 18 -5 0 -10 7
-10 16 0 15 -23 44 -34 44 -3 0 -6 -7 -6 -15 0 -28 -52 -64 -92 -65 -21 0 -38
5 -38 10 0 6 -9 10 -20 10 -11 0 -20 5 -20 10 0 19 -34 10 -62 -17 -22 -21
-28 -36 -28 -69 0 -25 6 -47 15 -54 12 -10 15 -28 13 -69 l-3 -56 -94 -3 c-92
-3 -149 10 -166 38 -4 6 -10 8 -15 5 -4 -3 -22 11 -39 30 -17 19 -37 35 -45
35 -8 0 -18 5 -21 10 -3 6 -13 10 -20 10 -8 0 -33 20 -56 45 -23 25 -50 45
-61 45 -13 0 -18 5 -15 14 3 8 -16 34 -44 62 -61 60 -79 94 -79 150 l0 43 90
3 c54 2 89 7 88 13 -2 6 -7 9 -12 7 -4 -1 -23 13 -41 33 -19 19 -39 35 -45 35
-7 0 -28 17 -46 37 -33 36 -44 76 -24 88 6 3 10 15 10 26 0 10 5 19 10 19 6 0
10 7 10 15 0 24 46 65 73 65 34 0 39 10 16 29 -14 11 -33 15 -55 13 -30 -4
-34 -8 -34 -33 0 -16 -4 -29 -10 -29 -5 0 -10 -9 -10 -20 0 -11 -4 -20 -10
-20 -5 0 -10 -8 -10 -18 0 -11 -9 -27 -20 -37 -11 -10 -20 -23 -20 -28 0 -27
-34 -47 -82 -47 l-48 0 0 55 c0 30 5 55 10 55 6 0 10 22 10 49 0 28 5 53 10
56 6 3 10 24 10 46 0 21 5 39 10 39 6 0 10 9 10 20 0 11 5 20 10 20 6 0 10 18
10 39 0 22 5 43 10 46 6 3 10 26 10 51 0 33 4 46 18 51 9 3 23 11 30 16 17 14
109 9 133 -6 11 -7 19 -20 19 -29 0 -13 8 -18 30 -18 28 0 30 2 30 40 0 22 -4
40 -10 40 -5 0 -10 19 -10 41 0 28 -6 46 -17 54 -17 12 -17 14 1 34 11 12 27
21 36 21 10 0 20 7 24 15 4 11 14 13 36 8 23 -4 34 -1 44 12 10 14 21 16 49
11 21 -4 37 -3 37 1 0 14 47 63 61 64 8 0 28 9 44 19 37 23 52 24 71 6z"/>
<path d="M8488 24188 c-20 -35 -46 -81 -58 -103 -12 -22 -30 -51 -40 -65 -9
-14 -41 -68 -71 -120 l-54 -95 -3 -246 c-4 -271 -7 -257 64 -277 68 -20 81
-16 50 13 -15 14 -34 25 -42 25 -12 0 -14 39 -14 254 0 159 4 257 10 261 6 3
10 15 10 26 0 24 12 24 35 -1 10 -11 26 -20 36 -20 11 0 19 -9 21 -22 2 -13 8
-23 15 -23 7 0 18 -6 25 -12 6 -7 20 -13 31 -13 37 0 10 -25 -31 -28 -23 -2
-42 -7 -42 -13 0 -5 -9 -9 -20 -9 -19 0 -20 -6 -18 -212 l2 -213 5 192 c4 122
10 196 17 203 17 17 415 14 430 -3 11 -12 26 -61 66 -207 23 -88 37 -145 45
-182 6 -33 23 -48 93 -86 88 -47 256 -150 268 -164 5 -7 60 -101 122 -208 62
-107 121 -208 131 -225 78 -130 78 -138 1 -181 -26 -15 -84 -49 -129 -76 -45
-26 -93 -48 -106 -48 -14 0 -55 9 -92 21 l-66 20 -102 -58 c-56 -32 -111 -62
-122 -68 -11 -6 -23 -22 -27 -35 -12 -46 -50 -175 -64 -219 -8 -25 -11 -48 -7
-52 5 -4 78 -9 163 -11 117 -3 164 -8 193 -20 l37 -17 0 -184 c0 -102 3 -199
6 -217 6 -29 9 -31 38 -26 113 21 95 28 195 -75 50 -52 91 -100 91 -107 0 -7
-18 -40 -39 -74 -36 -56 -38 -63 -23 -74 14 -10 19 -7 32 20 8 18 21 40 29 50
7 9 10 16 6 16 -4 0 -1 7 6 16 23 27 19 70 -7 95 -13 12 -24 28 -24 34 0 14
-42 55 -56 55 -6 0 -34 25 -63 55 -29 30 -58 55 -65 55 -6 0 -18 -9 -26 -20
-9 -13 -26 -20 -47 -20 l-33 0 -2 223 -3 222 -24 -3 c-13 -2 -27 2 -31 9 -6 8
-51 11 -169 10 -162 -2 -177 1 -146 33 8 8 15 31 15 50 0 20 5 36 10 36 6 0
10 18 10 39 0 22 5 43 10 46 6 3 10 14 10 24 0 11 14 25 34 35 18 8 39 22 46
31 7 8 18 15 24 15 7 0 27 16 46 35 32 33 37 35 101 35 37 0 71 -4 74 -10 3
-5 33 -10 66 -10 33 0 59 4 59 10 0 6 8 10 18 10 10 0 24 9 32 20 8 11 22 20
32 20 10 0 18 5 18 10 0 6 6 10 13 10 30 0 117 52 117 70 0 11 8 20 21 22 12
2 27 11 33 20 8 14 5 24 -20 50 -16 18 -36 47 -44 63 -8 17 -23 40 -33 52 -20
23 -67 111 -67 126 0 5 -13 22 -30 37 -16 15 -30 35 -30 44 0 9 -4 16 -10 16
-5 0 -10 8 -10 19 0 10 -7 24 -15 31 -8 7 -13 16 -10 20 3 4 -2 13 -10 20 -8
7 -13 16 -10 20 3 4 -2 13 -10 20 -8 7 -15 18 -15 24 -1 16 -90 107 -100 101
-5 -3 -11 -1 -15 5 -3 5 -34 23 -69 40 -35 16 -69 37 -76 45 -7 8 -19 15 -27
15 -8 0 -23 10 -33 22 -10 13 -26 23 -37 23 -13 0 -19 9 -21 30 -2 17 -8 34
-13 40 -5 5 -9 24 -9 41 0 18 -4 36 -10 39 -5 3 -10 15 -10 26 0 10 -4 19 -10
19 -5 0 -10 18 -10 40 0 22 -4 40 -10 40 -5 0 -10 25 -10 55 0 30 -4 55 -10
55 -5 0 -10 7 -10 16 0 19 -21 41 -44 45 -9 2 -18 9 -19 14 -1 6 116 11 331
13 219 1 332 -1 332 -8 0 -5 18 -10 40 -10 22 0 40 -4 40 -10 0 -5 25 -10 55
-10 30 0 55 -4 55 -10 0 -5 18 -10 40 -10 22 0 40 -4 40 -10 0 -5 11 -10 23
-10 26 0 83 -25 92 -41 4 -5 17 -6 31 -3 15 4 32 1 42 -7 27 -22 61 -39 77
-39 8 0 15 -4 15 -10 0 -5 8 -10 18 -10 10 0 24 -9 32 -20 8 -11 24 -20 36
-20 31 0 80 -27 108 -60 46 -55 66 -46 211 100 114 115 165 153 165 120 0 -5
7 -10 16 -10 9 0 25 -11 36 -25 11 -14 23 -23 28 -20 4 3 13 -2 20 -10 7 -8
20 -15 29 -15 9 0 23 -9 31 -20 8 -11 22 -20 32 -20 10 0 18 -4 18 -10 0 -5 9
-10 20 -10 11 0 20 -4 20 -10 0 -5 6 -10 13 -10 21 0 72 -28 92 -50 10 -11 21
-18 25 -15 4 2 18 -7 30 -20 21 -22 32 -25 97 -25 73 0 103 -12 103 -40 0 -6
16 -26 35 -44 19 -19 35 -41 35 -50 0 -9 5 -16 10 -16 6 0 10 -9 10 -20 0 -11
5 -20 10 -20 6 0 10 -9 10 -20 0 -11 5 -20 10 -20 6 0 10 -7 10 -15 0 -8 9
-30 20 -50 18 -32 20 -54 20 -235 0 -193 -1 -200 -20 -200 -11 0 -20 -4 -20
-10 0 -5 -9 -10 -20 -10 -11 0 -20 -4 -20 -10 0 -5 -6 -10 -13 -10 -18 0 -75
-28 -82 -41 -4 -5 -10 -7 -15 -4 -4 3 -13 -2 -20 -10 -7 -8 -18 -15 -24 -15
-7 0 -25 -13 -41 -30 -16 -16 -34 -30 -40 -30 -12 0 -45 -32 -45 -43 0 -4 6
-7 14 -7 7 0 19 -7 26 -15 7 -8 20 -15 30 -15 10 0 23 7 30 15 7 9 29 15 51
15 22 0 39 5 39 10 0 6 18 10 40 10 22 0 40 5 40 10 0 6 18 10 39 10 22 0 43
5 46 10 3 6 28 10 56 10 27 0 49 5 49 10 0 21 21 8 79 -52 62 -63 73 -84 46
-94 -8 -4 -15 -15 -15 -25 0 -10 -4 -19 -10 -19 -5 0 -10 -22 -10 -49 0 -28
-4 -53 -10 -56 -5 -3 -10 -19 -10 -36 0 -16 -4 -29 -10 -29 -5 0 -10 -20 -10
-44 0 -25 5 -48 10 -51 6 -3 10 -15 10 -26 0 -12 7 -19 19 -19 11 0 23 -4 26
-10 13 -21 47 -8 90 35 25 24 45 48 45 53 0 14 30 71 41 77 5 4 7 10 4 15 -3
4 2 13 10 20 8 7 13 16 10 20 -3 4 2 13 10 20 8 7 15 18 15 24 0 15 45 66 58
66 6 0 27 9 47 20 38 22 80 26 90 10 3 -5 15 -10 26 -10 10 0 19 -4 19 -10 0
-5 9 -10 20 -10 11 0 20 -4 20 -10 0 -5 9 -10 20 -10 11 0 20 -4 20 -10 0 -5
6 -10 13 -10 26 0 75 -30 99 -60 12 -16 31 -30 41 -30 9 0 17 -4 17 -10 0 -5
6 -10 13 -10 20 0 73 -28 87 -45 7 -8 19 -15 27 -15 14 0 73 -62 63 -66 -9 -4
44 -54 74 -69 33 -17 102 -20 111 -5 3 6 24 10 46 10 21 0 39 5 39 10 0 6 13
10 28 10 20 0 41 13 72 45 24 25 49 45 55 45 17 0 95 84 95 103 0 13 9 17 44
17 25 0 48 -4 51 -10 3 -5 24 -10 46 -10 21 0 39 -4 39 -10 0 -5 9 -10 20 -10
26 0 36 -25 19 -46 -7 -8 -14 -39 -15 -69 -3 -41 0 -55 13 -59 12 -5 14 -16
10 -50 -5 -33 -2 -47 9 -57 8 -7 13 -21 11 -30 -3 -10 1 -23 9 -30 8 -7 14
-31 14 -60 0 -27 5 -49 10 -49 6 0 10 -9 10 -19 0 -18 -47 -51 -73 -51 -5 0
-23 -15 -39 -32 -17 -18 -36 -32 -43 -30 -7 1 -16 -5 -19 -14 -4 -9 -12 -14
-21 -10 -9 3 -18 -1 -21 -9 -4 -8 -15 -15 -25 -15 -10 0 -19 -4 -19 -10 0 -5
-9 -10 -20 -10 -11 0 -20 -4 -20 -10 0 -5 -6 -10 -13 -10 -23 0 -71 -28 -97
-55 -13 -14 -29 -25 -36 -25 -6 0 -17 -7 -24 -15 -7 -8 -16 -13 -20 -10 -5 3
-11 1 -15 -4 -6 -11 -63 -41 -77 -41 -5 0 -19 -10 -31 -22 -28 -29 -34 -114
-10 -140 8 -10 13 -24 10 -32 -3 -8 1 -20 9 -26 8 -7 14 -30 14 -51 0 -32 3
-39 20 -39 12 0 20 -7 20 -16 0 -30 27 -43 96 -46 l69 -3 3 -82 c3 -75 5 -83
22 -83 15 0 20 -7 20 -29 0 -29 1 -29 28 -16 15 8 49 37 76 64 27 28 53 48 58
45 9 -6 57 45 58 61 0 6 24 34 53 63 38 38 58 51 71 46 11 -4 22 0 30 11 9 13
22 16 45 13 22 -3 35 0 38 9 3 8 21 13 44 13 21 0 39 5 39 10 0 6 7 10 15 10
8 0 15 -7 15 -15 0 -8 9 -30 20 -50 11 -20 20 -42 20 -50 0 -8 5 -15 10 -15 6
0 10 -7 10 -15 0 -18 93 -115 111 -115 6 0 24 -13 39 -30 15 -16 33 -30 39
-30 6 0 26 -9 46 -20 49 -28 66 -25 105 15 28 28 34 42 32 69 -2 24 1 35 13
40 14 5 16 14 10 51 -5 37 -3 46 10 51 11 5 15 17 13 40 -1 18 3 39 10 46 6 6
12 20 12 30 0 10 5 18 10 18 6 0 10 7 10 16 0 9 14 29 30 44 18 17 30 38 30
53 0 16 10 34 26 46 14 11 23 25 20 30 -4 5 -2 12 3 15 11 7 61 106 61 121 0
6 9 17 20 25 11 8 20 20 20 28 0 7 9 22 20 34 14 16 26 19 50 15 22 -5 32 -3
36 8 4 10 20 15 44 15 22 0 42 5 45 10 3 6 24 10 46 10 21 0 39 5 39 10 0 6
18 10 39 10 22 0 43 5 46 10 3 6 21 10 40 10 19 0 37 5 40 10 4 6 103 10 264
10 l257 0 34 38 c40 42 60 75 60 97 0 8 5 15 10 15 6 0 10 9 10 20 0 11 5 20
10 20 6 0 10 9 10 20 0 11 5 20 10 20 6 0 10 8 10 18 0 11 9 27 20 37 11 10
20 23 20 30 0 15 52 65 68 65 18 0 14 -31 -7 -54 -19 -21 -19 -21 15 -59 19
-21 39 -35 45 -32 5 4 12 -1 15 -9 4 -9 18 -16 34 -16 16 0 32 -4 35 -10 3 -5
29 -10 56 -10 52 0 79 15 79 44 0 9 5 16 10 16 6 0 10 8 10 19 0 10 11 27 25
37 14 10 25 27 25 36 0 10 9 23 20 30 11 7 20 20 20 29 0 9 9 24 20 34 11 10
20 31 20 47 0 15 5 28 10 28 6 0 10 6 10 14 0 7 19 32 41 55 l41 41 184 0
c116 0 184 4 184 10 0 6 9 10 20 10 11 0 20 5 20 10 0 6 9 10 20 10 11 0 20 5
20 10 0 6 7 10 15 10 21 0 54 19 91 53 25 23 117 77 131 77 2 0 3 -9 3 -19 0
-13 8 -21 23 -23 14 -2 23 -11 25 -25 2 -13 8 -23 13 -23 5 0 9 -9 9 -20 0
-11 5 -20 10 -20 6 0 10 -7 10 -15 0 -8 9 -30 20 -50 11 -20 20 -41 20 -48 0
-7 9 -19 20 -27 11 -8 20 -21 20 -30 0 -8 11 -24 25 -34 14 -11 24 -25 21 -32
-6 -15 67 -84 89 -84 8 0 15 -4 15 -10 0 -5 9 -10 20 -10 11 0 20 -4 20 -10 0
-5 8 -10 19 -10 10 0 25 -7 32 -16 7 -9 23 -20 36 -25 14 -5 23 -17 23 -29 0
-13 6 -20 14 -18 8 2 75 -59 150 -134 l137 -138 204 0 c130 0 205 4 205 10 0
6 9 10 20 10 11 0 20 5 20 10 0 6 7 10 15 10 19 0 53 19 86 48 29 25 59 21 59
-9 0 -12 7 -19 20 -19 13 0 20 -7 20 -20 0 -11 5 -20 10 -20 6 0 10 -11 10
-23 0 -30 24 -78 50 -102 19 -17 21 -29 19 -149 -1 -88 2 -131 10 -134 6 -2
11 -12 11 -22 0 -10 14 -30 30 -43 17 -14 30 -32 30 -41 0 -8 5 -18 10 -21 6
-4 10 -78 10 -189 0 -214 0 -213 87 -208 41 3 54 0 59 -12 3 -9 15 -16 25 -16
10 0 19 -4 19 -10 0 -5 13 -10 29 -10 17 0 33 -4 36 -10 3 -5 21 -10 40 -10
19 0 37 -4 40 -10 3 -5 19 -10 36 -10 16 0 29 -4 29 -10 0 -6 61 -10 164 -10
99 0 167 4 171 10 11 18 45 11 45 -9 0 -11 5 -23 10 -26 5 -3 10 -17 10 -30 0
-13 4 -26 9 -30 18 -11 41 -68 41 -102 0 -18 5 -33 10 -33 6 0 10 -18 10 -40
0 -22 5 -40 10 -40 6 0 10 -25 10 -55 0 -30 5 -55 10 -55 6 0 10 -18 10 -40 0
-22 5 -40 10 -40 6 0 10 -18 10 -39 0 -22 5 -43 10 -46 6 -3 10 -24 10 -46 0
-21 5 -39 10 -39 6 0 10 -13 10 -29 0 -16 7 -34 15 -41 8 -7 12 -16 9 -21 -3
-5 2 -12 10 -15 11 -4 16 -19 16 -44 0 -22 5 -42 10 -45 6 -3 10 -24 10 -46 0
-21 5 -39 10 -39 6 0 10 -18 10 -39 0 -22 5 -43 10 -46 6 -3 10 -24 10 -46 0
-21 5 -39 10 -39 6 0 10 -18 10 -39 0 -22 5 -43 10 -46 6 -3 10 -28 10 -56 0
-27 5 -49 10 -49 6 0 10 -12 10 -26 0 -16 11 -36 25 -50 21 -19 25 -32 25 -78
0 -46 -4 -58 -25 -74 -18 -15 -25 -29 -25 -55 0 -20 -4 -39 -10 -42 -5 -3 -10
-24 -10 -46 0 -21 -4 -39 -10 -39 -5 0 -10 -18 -10 -39 0 -22 -5 -43 -10 -46
-6 -4 -10 -71 -10 -169 l0 -162 -27 -25 c-34 -29 -68 -49 -86 -49 -7 0 -19 -9
-27 -20 -8 -11 -21 -20 -30 -20 -8 0 -24 -11 -34 -25 -10 -14 -27 -25 -37 -25
-11 0 -19 -4 -19 -10 0 -5 -9 -10 -20 -10 -11 0 -20 -4 -20 -10 0 -5 -9 -10
-20 -10 -11 0 -20 -4 -20 -10 0 -5 -8 -10 -18 -10 -23 0 -42 -19 -42 -42 0
-10 -4 -18 -10 -18 -6 0 -10 -69 -10 -188 l0 -187 35 -33 c20 -17 41 -32 48
-32 7 0 19 -9 27 -20 8 -11 22 -20 32 -20 10 0 18 -4 18 -10 0 -5 9 -10 19
-10 11 0 28 -11 39 -25 11 -14 27 -25 36 -25 9 0 16 -4 16 -10 0 -5 9 -10 20
-10 11 0 20 -4 20 -10 0 -5 6 -10 13 -10 36 0 95 -53 390 -347 l317 -319 0
-103 c0 -102 0 -103 -30 -131 -17 -15 -30 -35 -30 -44 0 -9 -4 -16 -10 -16 -5
0 -10 -7 -10 -15 0 -8 -9 -30 -20 -50 -21 -37 -27 -105 -10 -105 6 0 10 -18
10 -39 0 -22 5 -43 10 -46 6 -3 10 -24 10 -46 0 -21 5 -39 10 -39 6 0 10 -18
10 -40 0 -22 5 -40 10 -40 6 0 10 -13 10 -30 0 -26 4 -30 26 -30 16 0 23 4 18
11 -6 11 -14 37 -35 124 -6 22 -14 56 -18 75 -5 19 -16 62 -26 95 -18 67 -20
59 55 185 44 75 45 75 48 184 l4 108 -324 325 c-177 178 -333 329 -344 336
-167 93 -315 180 -336 197 l-28 22 0 181 0 182 33 21 c50 34 186 114 192 114
2 0 29 16 59 35 30 19 58 35 61 35 4 0 26 14 51 30 l44 31 0 182 c0 153 4 194
21 257 12 41 25 91 29 110 5 19 13 53 19 75 14 55 14 94 -4 151 -8 27 -21 78
-30 114 -20 83 -66 255 -126 470 -20 73 -28 103 -48 185 -5 22 -18 74 -29 115
-22 81 -37 133 -84 305 -27 101 -35 131 -54 207 l-6 26 -222 -1 c-163 -2 -227
1 -238 10 -8 7 -43 19 -79 28 -35 9 -104 26 -154 38 l-90 23 -5 175 c-5 164
-6 177 -31 219 -14 25 -35 62 -47 83 -19 33 -22 53 -22 156 l0 118 -65 109
c-36 60 -71 122 -78 137 -10 23 -16 27 -36 22 -14 -4 -36 -14 -50 -24 -14 -10
-54 -33 -88 -50 l-61 -32 -201 3 -201 3 -153 153 c-121 122 -171 164 -237 203
-46 27 -94 59 -107 71 -12 13 -48 70 -81 128 -108 193 -167 290 -176 290 -5 0
-42 -20 -83 -45 -40 -25 -76 -45 -79 -45 -2 0 -23 -11 -45 -26 -42 -26 -95
-57 -139 -81 -18 -9 -74 -13 -206 -13 -163 0 -183 -2 -197 -18 -10 -10 -17
-22 -17 -26 0 -4 -13 -27 -30 -51 -16 -24 -30 -46 -30 -49 0 -3 -17 -33 -39
-68 -21 -35 -55 -93 -75 -130 -20 -37 -44 -68 -54 -70 -16 -4 -46 3 -157 37
-29 8 -41 18 -43 33 -2 12 1 22 7 22 6 0 11 4 11 9 0 5 33 65 72 133 94 158
103 176 94 185 -4 4 -16 2 -26 -5 -25 -15 -27 -15 -34 3 -3 8 5 25 19 39 14
14 25 30 25 35 0 6 9 26 20 46 11 20 20 42 20 50 0 8 5 15 10 15 6 0 10 9 10
20 0 11 5 20 10 20 6 0 10 7 10 15 0 8 9 24 20 35 19 19 33 20 330 20 272 0
311 -2 317 -16 3 -8 12 -13 20 -10 7 3 16 -1 19 -9 4 -9 19 -15 35 -15 32 0
37 -13 15 -36 -12 -11 -59 -14 -249 -14 -195 0 -237 -3 -247 -15 -14 -17 -67
-45 -85 -45 -7 0 -16 -7 -19 -16 -3 -8 -11 -12 -17 -9 -5 4 -16 -1 -23 -11 -9
-11 -21 -15 -35 -11 -14 3 -24 0 -28 -9 -3 -9 -19 -14 -42 -14 -40 0 -61 -14
-61 -42 0 -16 3 -16 41 -3 23 8 49 15 58 15 9 0 68 29 130 65 l113 65 224 0
c210 0 226 1 261 21 21 12 51 29 67 38 16 9 28 20 28 26 -1 5 -59 23 -129 41
l-128 33 -301 0 -300 1 -21 -37 c-12 -21 -30 -55 -42 -75 -11 -20 -46 -85 -78
-145 -73 -138 -173 -301 -232 -380 -25 -34 -73 -112 -106 -175 l-60 -113 -265
-6 c-200 -5 -277 -10 -315 -22 -27 -9 -84 -25 -125 -37 -41 -12 -91 -26 -110
-31 -19 -6 -55 -14 -79 -20 -24 -5 -49 -13 -56 -19 -6 -5 -14 -8 -17 -5 -8 8
-33 -26 -73 -100 -21 -38 -41 -74 -45 -80 -9 -12 -39 -64 -130 -230 -30 -54
-47 -108 -97 -300 -24 -92 -12 -91 -158 -10 -63 35 -115 73 -115 85 0 12 -110
199 -120 205 -5 3 -67 -11 -137 -31 l-128 -36 -136 -135 c-79 -79 -141 -133
-148 -129 -7 5 -11 46 -11 111 l0 104 -102 3 c-98 3 -103 4 -115 28 -12 26
-63 208 -63 227 0 12 121 90 258 167 122 68 152 85 209 122 29 19 55 34 58 34
2 0 31 16 65 36 66 38 64 32 40 127 -6 20 -14 54 -19 75 -6 20 -20 75 -32 122
-12 47 -24 95 -26 107 -3 14 17 59 60 135 73 126 72 125 177 98 85 -21 102
-23 156 -10 l53 13 -35 66 c-78 144 -140 240 -159 246 -11 3 -51 15 -90 25
-38 10 -107 29 -153 43 -79 24 -83 24 -92 7 -6 -10 -10 -29 -10 -42 0 -13 -4
-28 -9 -34 -13 -14 -35 -104 -27 -112 4 -4 49 -32 99 -63 106 -64 107 -66 50
-158 -40 -64 -45 -66 -108 -50 -22 5 -58 15 -79 20 l-39 10 -111 -110 c-85
-84 -120 -111 -151 -120 -37 -9 -96 -24 -153 -38 -18 -4 -39 11 -110 78 -71
68 -117 101 -242 172 -85 48 -164 93 -175 100 -103 64 -130 72 -163 45 -9 -7
-37 -24 -62 -38 -25 -13 -50 -29 -55 -34 -14 -14 -93 -149 -122 -206 -13 -25
-34 -58 -47 -75 -24 -30 -25 -30 -53 -13 -15 9 -29 25 -31 36 -2 10 13 81 34
158 20 76 38 148 40 159 4 15 -15 40 -68 93 -82 83 -74 82 -208 43 -41 -12
-106 -31 -145 -43 -92 -26 -119 -28 -123 -5 -2 10 4 19 15 23 10 3 27 10 37
16 60 32 110 61 181 105 l80 49 3 199 c3 224 10 195 -86 355 -25 41 -59 100
-75 130 -44 82 -42 80 -124 80 -82 0 -111 13 -311 134 -51 31 -95 56 -97 56
-3 0 -34 18 -70 40 -36 22 -75 40 -88 40 -15 0 -61 -39 -147 -125 -69 -69
-130 -125 -137 -125 -14 0 -49 19 -174 95 -104 64 -166 95 -188 95 -8 0 -28 4
-45 9 -17 5 -49 14 -71 20 -22 6 -80 22 -130 37 -49 14 -114 32 -143 40 -42
11 -146 14 -518 14 l-466 0 -70 37 c-39 21 -73 44 -76 51 -3 8 58 77 152 171
86 86 156 159 156 162 0 4 -12 9 -27 12 -16 3 -46 11 -68 17 -96 28 -96 28
-137 -42z m112 23 c0 -6 15 -11 33 -13 37 -3 43 -21 10 -26 -14 -2 -23 -10
-23 -20 0 -19 -124 -146 -152 -155 -10 -4 -18 -12 -18 -20 0 -13 -50 -67 -63
-67 -26 0 21 110 70 164 34 37 53 70 53 91 0 8 5 15 10 15 6 0 10 9 10 20 0
16 7 20 35 20 19 0 35 -4 35 -9z m4675 -1531 c3 -5 24 -10 46 -10 21 0 39 -4
39 -10 0 -5 18 -10 40 -10 22 0 40 -4 40 -10 0 -5 12 -10 26 -10 29 0 84 -49
84 -75 0 -8 5 -15 10 -15 6 0 10 -9 10 -20 0 -11 5 -20 10 -20 6 0 10 -7 10
-15 0 -20 19 -53 49 -87 32 -37 22 -58 -28 -58 -22 0 -43 5 -46 10 -3 6 -24
10 -46 10 -21 0 -39 5 -39 10 0 6 -13 10 -29 10 -16 0 -32 6 -34 13 -4 9 -8 8
-16 -3 -8 -12 -13 -12 -30 4 -12 11 -21 27 -21 38 0 10 -6 18 -13 18 -21 0
-106 45 -133 71 -19 18 -24 33 -24 70 0 26 5 51 10 54 6 3 10 15 10 26 0 15 7
19 34 19 19 0 38 -4 41 -10z"/>
<path d="M16063 22463 c-3 -7 -13 -13 -22 -13 -9 0 -23 -9 -31 -20 -8 -11 -21
-20 -30 -20 -8 0 -24 -11 -34 -25 -11 -14 -25 -24 -32 -21 -8 3 -18 -2 -22
-11 -7 -12 -18 -14 -40 -10 -18 4 -34 2 -38 -4 -3 -6 -17 -14 -30 -19 -13 -5
-28 -20 -33 -33 -5 -12 -16 -29 -25 -36 -18 -15 -46 -68 -46 -88 0 -7 -4 -13
-10 -13 -5 0 -10 -8 -10 -18 0 -10 -9 -24 -20 -32 -11 -8 -20 -20 -20 -27 0
-7 -9 -28 -20 -48 -11 -20 -20 -38 -20 -40 0 -3 9 -5 20 -5 11 0 20 -4 20 -10
0 -5 18 -10 39 -10 22 0 41 -5 44 -12 6 -18 67 40 67 64 0 10 5 18 10 18 6 0
10 13 10 30 0 19 7 34 20 42 11 7 20 20 20 29 0 9 7 22 15 29 17 14 45 67 45
87 0 7 5 13 10 13 6 0 10 7 10 16 0 9 11 25 25 36 14 11 25 28 25 39 0 19 8
20 206 19 196 -1 206 -1 223 19 10 12 23 21 29 21 6 0 27 9 47 20 20 11 42 20
50 20 18 0 20 20 3 20 -7 1 -111 2 -232 3 -167 2 -220 -1 -223 -10z"/>
<path d="M18152 21968 c-7 -7 -12 -40 -12 -75 0 -47 6 -73 24 -105 13 -24 38
-70 56 -103 18 -33 41 -71 50 -85 48 -69 60 -101 60 -163 0 -60 2 -63 35 -84
52 -34 70 -30 164 34 2 1 -24 31 -57 65 -83 85 -82 128 3 128 37 0 47 -6 115
-74 57 -57 77 -84 83 -113 4 -21 11 -51 14 -67 7 -34 -10 -48 -49 -40 -20 4
-42 -3 -82 -27 -48 -29 -56 -38 -66 -78 -7 -25 -20 -72 -30 -105 -16 -51 -16
-63 -4 -92 11 -26 57 -84 67 -84 1 0 25 7 52 16 155 48 242 64 345 64 58 0
110 4 117 8 17 11 23 242 6 242 -7 0 -13 4 -13 9 0 5 -33 28 -72 52 -49 28
-116 85 -201 170 -100 99 -150 140 -225 185 -53 32 -123 73 -154 92 -77 46
-198 172 -198 205 0 30 -12 41 -28 25z m95 -163 c29 -30 58 -54 65 -53 7 2 14
-7 16 -19 2 -15 10 -23 23 -23 10 0 19 -4 19 -10 0 -5 7 -10 15 -10 8 0 30 -9
50 -20 20 -11 42 -20 50 -20 8 0 15 -6 15 -14 0 -10 -14 -16 -42 -18 -35 -2
-43 -7 -43 -23 0 -13 -7 -20 -20 -20 -15 0 -21 -8 -23 -32 -4 -36 -32 -47 -32
-14 0 11 -4 23 -10 26 -5 3 -10 15 -10 26 0 10 -4 19 -10 19 -5 0 -10 9 -10
20 0 11 -4 20 -10 20 -5 0 -10 8 -10 18 0 10 -9 24 -20 32 -11 8 -20 22 -20
31 0 10 -11 26 -25 37 -14 11 -25 27 -25 36 0 9 -4 16 -10 16 -11 0 -14 33 -3
43 11 12 18 8 70 -48z m358 -254 c7 -12 -12 -24 -25 -16 -11 7 -4 25 10 25 5
0 11 -4 15 -9z m183 -162 c28 -28 52 -57 52 -65 0 -8 9 -14 20 -14 11 0 20 -4
20 -10 0 -5 9 -10 20 -10 11 0 20 -4 20 -10 0 -5 9 -10 19 -10 10 0 22 -7 25
-16 3 -8 10 -13 16 -9 5 3 18 -3 30 -15 17 -17 20 -33 20 -115 l0 -95 -130 0
c-80 0 -130 -4 -130 -10 0 -5 -13 -10 -30 -10 -16 0 -30 -4 -30 -10 0 -5 -17
-10 -38 -10 -28 0 -45 -7 -62 -25 -20 -21 -29 -24 -59 -19 -20 4 -41 13 -48
20 -15 15 -18 130 -3 139 6 3 10 26 10 50 0 35 6 49 31 74 17 17 35 29 40 25
5 -3 12 2 15 10 8 20 43 21 50 1 9 -21 54 -20 54 2 0 9 9 27 21 39 l21 23 -21
13 c-16 10 -21 23 -21 54 0 71 17 71 88 3z"/>
<path d="M18454 21546 c-4 -9 20 -40 60 -80 36 -36 66 -71 66 -79 0 -16 -34
-50 -42 -42 -3 3 -11 -1 -18 -10 -7 -8 -21 -15 -31 -15 -11 0 -19 -4 -19 -10
0 -5 -9 -10 -19 -10 -11 0 -22 -6 -25 -12 -5 -10 -7 -10 -12 0 -3 6 -14 12
-25 12 -10 0 -19 5 -19 10 0 6 -9 10 -19 10 -10 0 -22 8 -25 17 -10 25 -25 2
-19 -29 3 -16 9 -28 14 -28 5 0 9 -9 9 -20 0 -11 5 -20 10 -20 6 0 10 -8 10
-19 0 -10 7 -24 15 -31 21 -17 45 -69 45 -97 0 -12 5 -23 10 -23 6 0 10 9 10
19 0 10 7 21 14 24 11 4 13 16 9 41 -4 27 -2 37 10 42 12 4 15 14 10 35 -5 25
-2 29 15 29 12 0 24 5 27 10 3 6 15 10 26 10 10 0 19 5 19 10 0 6 9 10 19 10
10 0 22 7 25 16 3 8 14 14 23 13 40 -4 49 1 29 16 -14 11 -17 22 -12 45 5 26
1 35 -22 55 -15 14 -33 25 -41 25 -18 0 -61 51 -61 73 0 22 -58 24 -66 3z"/>
<path d="M9479 21106 c-2 -3 -68 -6 -147 -7 -78 -2 -142 -8 -142 -13 0 -11
128 -234 147 -257 8 -9 46 -24 86 -33 40 -10 94 -24 120 -33 58 -18 69 -12 37
22 -17 18 -34 25 -62 25 -21 0 -38 5 -38 10 0 6 -18 10 -40 10 -22 0 -40 4
-40 9 0 5 -10 11 -22 13 -13 2 -24 11 -27 23 -2 11 -12 27 -22 36 -11 9 -19
23 -19 30 0 8 -9 21 -20 29 -11 8 -20 22 -20 32 0 10 -5 18 -11 18 -6 0 -9 12
-7 28 l3 27 123 0 c110 0 122 2 122 18 0 16 -11 23 -21 13z"/>
<path d="M15770 9920 c0 -5 -18 -10 -39 -10 -33 0 -40 -4 -43 -22 -2 -14 -11
-24 -23 -26 -19 -3 -20 -10 -20 -119 l0 -116 98 -99 99 -99 -3 -105 c-2 -76 1
-108 10 -113 6 -4 11 -12 10 -17 -4 -23 2 -26 16 -8 10 14 14 48 15 128 l0
109 -105 107 -105 106 0 106 0 106 33 10 c17 6 44 13 58 16 16 3 29 15 32 27
4 14 11 20 21 16 8 -3 18 -2 21 3 4 6 -11 10 -34 10 -23 0 -41 -4 -41 -10z"/>
<path d="M15900 9169 c0 -16 26 -39 44 -39 9 0 16 -4 16 -10 0 -5 8 -10 18
-10 10 0 24 -9 32 -20 8 -11 22 -20 31 -20 9 0 25 -11 35 -25 10 -14 25 -23
32 -20 7 2 15 -2 18 -10 4 -8 15 -15 25 -15 10 0 19 -4 19 -10 0 -5 6 -10 13
-10 24 0 109 -48 141 -79 17 -16 34 -29 38 -28 4 1 59 -49 123 -112 l116 -115
-26 -22 c-14 -12 -25 -28 -25 -36 0 -9 -7 -21 -15 -28 -17 -14 -45 -67 -45
-87 0 -7 -4 -13 -10 -13 -5 0 -10 -9 -10 -20 0 -11 -4 -20 -10 -20 -5 0 -10
-9 -10 -20 0 -11 -4 -20 -10 -20 -5 0 -10 -13 -10 -29 0 -20 -9 -36 -26 -50
-21 -17 -25 -27 -21 -50 4 -19 1 -33 -8 -41 -9 -7 -15 -29 -15 -51 0 -22 -4
-39 -10 -39 -5 0 -10 -15 -10 -33 0 -28 16 -48 119 -151 66 -66 118 -123 116
-126 -3 -4 4 -15 15 -25 21 -19 70 -111 70 -132 0 -7 5 -13 10 -13 6 0 10 -9
10 -20 0 -11 5 -20 10 -20 6 0 10 -7 10 -15 0 -21 19 -54 53 -91 30 -34 77
-119 77 -141 0 -7 5 -13 10 -13 6 0 10 -9 10 -20 0 -11 5 -20 10 -20 6 0 10
-8 10 -18 0 -10 9 -24 20 -32 11 -8 20 -22 20 -31 0 -10 11 -26 25 -37 14 -11
25 -27 25 -36 0 -9 5 -16 10 -16 6 0 10 -8 10 -18 0 -18 208 -232 226 -232 6
0 21 -11 34 -25 26 -28 58 -33 66 -10 4 9 19 15 35 15 16 0 29 5 29 10 0 6 18
10 39 10 22 0 43 5 46 10 3 6 23 10 44 10 33 0 45 -7 94 -60 31 -33 57 -65 57
-71 0 -14 50 -59 65 -59 6 0 28 -18 48 -40 31 -34 37 -48 37 -84 0 -29 5 -46
14 -49 11 -4 13 -16 9 -42 -4 -27 -2 -39 12 -49 14 -10 17 -21 12 -44 -7 -36
-3 -39 20 -17 14 14 12 28 -18 138 -18 67 -35 128 -39 135 -7 15 -270 282
-277 282 -6 0 -160 -45 -209 -60 -17 -6 -39 -10 -50 -10 -30 0 -263 242 -307
318 -21 35 -37 64 -37 66 0 2 -30 55 -66 117 -70 119 -90 154 -125 216 -147
259 -153 268 -256 373 -82 83 -102 109 -98 125 4 11 11 37 16 58 5 20 13 54
18 75 5 20 15 57 21 82 6 25 33 83 59 130 27 47 59 103 71 125 12 22 31 55 43
74 l20 33 -129 127 c-132 129 -137 132 -403 282 -25 14 -79 44 -119 67 -81 46
-82 47 -82 31z"/>
<path d="M17890 6367 c0 -15 14 -17 121 -17 104 0 124 -3 135 -17 7 -10 14
-26 14 -35 0 -10 5 -18 10 -18 6 0 10 -9 10 -20 0 -11 5 -20 10 -20 6 0 10 -9
10 -19 0 -10 7 -22 16 -25 9 -4 14 -13 10 -21 -3 -9 1 -18 9 -21 8 -4 15 -14
15 -24 0 -10 14 -30 30 -43 19 -16 30 -35 30 -51 0 -19 5 -26 20 -26 13 0 20
-7 20 -19 0 -20 98 -120 129 -132 9 -4 29 -21 45 -38 l30 -31 141 0 c129 0
142 -2 155 -20 8 -11 22 -20 32 -20 10 0 18 -4 18 -10 0 -5 9 -10 20 -10 11 0
20 -4 20 -10 0 -5 8 -10 19 -10 10 0 32 -16 49 -35 16 -20 34 -34 39 -33 13 4
118 -100 110 -108 -9 -9 50 -65 65 -62 9 2 14 -11 16 -39 2 -24 7 -43 13 -43
5 0 9 -18 9 -39 0 -22 5 -43 10 -46 6 -3 10 -24 10 -46 0 -21 5 -39 10 -39 6
0 10 -18 10 -39 0 -30 6 -44 25 -59 14 -12 25 -30 25 -44 0 -14 -11 -35 -25
-48 -17 -16 -25 -34 -25 -56 0 -18 -4 -36 -10 -39 -5 -3 -10 -19 -10 -36 0
-16 -4 -29 -10 -29 -5 0 -10 -18 -10 -39 0 -22 -4 -43 -10 -46 -5 -3 -10 -24
-10 -46 0 -21 -4 -39 -10 -39 -5 0 -10 -9 -10 -20 0 -11 -4 -20 -10 -20 -5 0
-10 -9 -10 -20 0 -11 -4 -20 -10 -20 -5 0 -10 -6 -10 -13 0 -25 -31 -77 -45
-77 -8 0 -30 9 -50 20 -20 11 -42 20 -50 20 -8 0 -15 5 -15 10 0 6 -8 10 -18
10 -9 0 -23 9 -29 19 -13 20 -67 51 -90 51 -7 0 -13 5 -13 10 0 6 -47 10 -120
10 -108 0 -120 -2 -120 -17 0 -16 11 -18 107 -15 l108 3 80 -46 c44 -26 96
-56 115 -67 19 -11 49 -29 66 -39 28 -17 33 -17 44 -4 15 18 80 126 80 132 0
3 8 17 18 31 11 15 22 38 26 52 12 44 77 294 87 333 6 24 5 52 -2 80 -5 23
-14 58 -19 77 -17 73 -59 226 -67 247 -9 25 -154 178 -230 243 -29 25 -69 55
-90 66 -21 11 -60 32 -86 47 -45 26 -55 27 -185 27 l-137 0 -101 103 c-58 58
-114 126 -131 157 -104 192 -146 258 -167 264 -12 3 -68 6 -126 6 -69 0 -110
4 -118 12 -9 9 -12 8 -12 -5z"/>
<path d="M17355 23410 c-33 -22 -85 -46 -115 -55 -106 -29 -135 -39 -142 -44
-4 -3 4 -44 17 -91 36 -124 36 -124 -47 -144 -28 -6 -37 -1 -76 53 -17 22 -20
22 -58 11 -36 -11 -41 -17 -52 -59 -7 -25 -17 -59 -22 -75 -7 -21 -6 -34 2
-44 10 -11 8 -17 -8 -30 -25 -20 -48 -83 -69 -187 -3 -16 -9 -42 -12 -56 -4
-23 -2 -26 21 -26 29 0 34 4 70 69 24 44 48 117 65 198 15 70 29 84 104 101
20 5 54 13 75 19 120 30 127 30 228 5 55 -14 125 -25 163 -25 75 0 91 -10 91
-55 0 -19 17 -59 45 -104 40 -66 82 -188 78 -228 0 -7 8 -13 18 -13 12 0 19 7
19 20 0 11 7 20 15 20 8 0 15 -8 15 -18 0 -37 81 -92 135 -92 19 0 35 -4 35
-10 0 -5 9 -10 20 -10 17 0 20 -7 20 -38 0 -26 7 -45 20 -57 11 -10 20 -24 20
-31 0 -7 16 -21 35 -30 32 -15 49 -44 25 -44 -5 0 -10 -6 -10 -13 0 -8 -12
-24 -26 -38 -20 -19 -24 -30 -19 -56 6 -34 -9 -53 -28 -34 -6 6 -21 11 -32 11
-22 0 -55 28 -55 47 0 5 -9 18 -20 28 -11 10 -20 25 -20 32 0 19 -82 93 -94
85 -6 -3 -5 -7 2 -10 25 -8 12 -32 -18 -32 -22 0 -30 -5 -30 -18 0 -33 -90
-61 -111 -36 -13 16 -59 19 -59 4 0 -5 -8 -10 -17 -10 -23 0 -73 -49 -73 -72
0 -10 -4 -18 -9 -18 -16 0 -11 -89 5 -98 9 -5 14 -18 12 -28 -3 -16 -13 -20
-62 -22 -42 -2 -63 1 -75 12 -10 9 -21 13 -25 9 -4 -4 -12 0 -17 10 -6 9 -14
15 -18 12 -5 -2 -14 2 -21 10 -7 8 -21 15 -31 15 -11 0 -19 5 -19 10 0 6 -7
10 -15 10 -22 0 -215 197 -215 220 0 18 7 20 87 20 85 0 86 0 68 20 -16 17
-31 20 -112 20 -51 0 -93 -3 -93 -7 1 -79 136 -225 306 -330 107 -66 111 -67
187 -71 44 -2 83 0 88 5 6 6 2 34 -11 74 -11 35 -20 70 -20 77 0 7 19 33 41
57 47 51 67 55 142 29 54 -18 61 -14 91 49 27 59 52 48 107 -48 29 -51 52 -81
65 -83 10 -1 35 -7 54 -12 93 -24 87 -27 92 43 2 43 10 72 25 93 12 17 25 42
28 56 6 24 2 29 -43 52 -40 20 -53 33 -62 61 -7 20 -10 48 -7 61 5 30 4 31
-107 63 l-90 26 -48 78 c-26 43 -48 83 -48 89 0 6 -16 25 -36 43 -20 19 -33
38 -30 43 3 6 -1 12 -9 16 -8 3 -15 15 -15 26 0 11 -4 20 -10 20 -5 0 -10 22
-10 48 0 59 20 82 73 82 20 0 37 5 37 10 0 6 18 10 40 10 22 0 40 5 40 10 0
17 24 10 53 -15 23 -21 27 -32 27 -80 0 -57 -22 -95 -54 -95 -8 0 -24 -13 -37
-30 -13 -16 -32 -30 -41 -30 -11 0 -18 -8 -18 -20 0 -17 10 -13 78 27 110 65
103 54 100 156 l-3 89 -45 25 c-37 21 -50 24 -75 15 -16 -5 -77 -22 -134 -38
l-104 -27 -65 17 c-59 16 -66 16 -74 2 -11 -19 -49 -21 -66 -4 -7 7 -28 11
-46 10 -23 -2 -35 2 -39 12 -8 21 -53 20 -61 0 -12 -30 -46 13 -46 56 0 24 -5
40 -15 44 -8 3 -15 14 -15 23 0 46 65 93 127 93 18 0 33 5 33 10 0 6 9 10 20
10 11 0 20 5 20 10 0 6 9 10 20 10 11 0 20 5 20 10 0 16 58 11 79 -7 23 -19
19 -33 -10 -33 -10 0 -19 -4 -19 -10 0 -5 -9 -10 -19 -10 -13 0 -21 -8 -23
-22 -2 -16 -9 -22 -20 -20 -12 2 -18 -4 -18 -18 0 -11 5 -20 10 -20 6 0 10
-15 10 -33 0 -44 27 -98 45 -91 11 5 12 11 3 32 -29 73 -27 142 5 142 7 0 27
13 46 28 l33 28 -32 52 c-17 29 -35 52 -38 51 -4 0 -34 -18 -67 -39z m-445
-415 c0 -8 -7 -15 -15 -15 -16 0 -20 12 -8 23 11 12 23 8 23 -8z"/>
<path d="M17182 23038 c-7 -7 -29 -11 -48 -9 -27 2 -35 -1 -32 -11 3 -10 35
-14 124 -16 119 -3 119 -3 152 -35 18 -17 45 -56 59 -85 24 -50 28 -53 58 -50
18 1 39 -2 46 -8 8 -5 26 -16 42 -24 20 -10 27 -21 27 -41 0 -15 5 -31 10 -34
6 -3 10 -20 10 -36 0 -24 4 -30 18 -27 20 4 29 45 13 61 -6 6 -11 27 -11 47 0
24 -6 40 -20 50 -11 8 -20 23 -20 33 0 9 -7 20 -16 24 -8 3 -13 12 -10 19 3 7
-6 22 -19 33 -29 22 -32 46 -9 55 34 13 0 20 -85 17 -76 -2 -91 0 -99 15 -7
13 -18 16 -50 11 -29 -3 -45 -1 -53 9 -14 17 -71 18 -87 2z"/>
<path d="M17115 22961 c-37 -12 -105 -51 -105 -61 0 -5 20 -19 44 -30 68 -31
73 -79 8 -80 -38 0 -57 -16 -96 -81 -40 -68 -39 -77 18 -104 41 -19 166 -133
166 -150 0 -12 40 -29 49 -20 2 3 -12 19 -32 36 -20 17 -34 35 -32 40 7 10
-94 111 -104 105 -4 -3 -15 4 -24 15 -40 47 -1 115 69 121 32 2 40 7 42 26 2
14 10 22 23 22 28 0 23 16 -17 54 -60 57 -46 66 96 66 110 0 120 -2 120 -18 0
-11 9 -27 20 -37 11 -10 20 -24 20 -32 0 -7 7 -13 16 -13 9 0 25 -11 36 -25
11 -14 23 -23 28 -20 4 3 13 -2 20 -10 7 -8 21 -15 31 -15 12 0 19 -7 19 -18
0 -10 4 -22 9 -27 5 -6 11 -21 13 -35 1 -13 13 -30 26 -36 12 -6 33 -21 46
-33 29 -27 79 -26 84 2 2 11 -3 17 -14 17 -33 0 -103 32 -108 49 -22 85 -32
114 -41 116 -5 2 -32 9 -59 17 -51 13 -87 50 -122 124 -11 22 -24 34 -46 38
-39 8 -177 6 -203 -3z"/>
</g>
</svg>
